<svg version="1.1" xmlns="http://www.w3.org/2000/svg" viewBox="0 0 129.78252031375814 150.8446967428987" width="389.3475609412744" height="452.5340902286961">
  <!-- svg-source:excalidraw -->
  
  <defs>
    <style class="style-fonts">
      @font-face {
        font-family: "Virgil";
        src: url("https://excalidraw.com/Virgil.woff2");
      }
      @font-face {
        font-family: "Cascadia";
        src: url("https://excalidraw.com/Cascadia.woff2");
      }
      @font-face {
        font-family: "Assistant";
        src: url("https://excalidraw.com/Assistant-Regular.woff2");
      }
    </style>
    
  </defs>
  <g stroke-linecap="round"><g transform="translate(19.15239211203425 115.43494029882572) rotate(0 27.52510883714001 0.4008671016227936)" fill-rule="evenodd"><path d="M0 0 C0 0, 0.76 -4.14, 0 0 C-0.76 4.14, -6.71 23.24, -4.57 24.87 C-2.44 26.5, 5.48 9.71, 12.81 9.8 C20.14 9.89, 30.91 25.89, 39.42 25.4 C47.93 24.91, 63.87 13.76, 63.85 6.88 C63.83 0, 47.63 -14.82, 39.3 -15.87 C30.96 -16.93, 21.87 2.02, 13.85 0.57 C5.83 -0.89, -6.49 -24.5, -8.8 -24.6 C-11.11 -24.69, -1.47 -4.1, 0 0" stroke="none" stroke-width="0" fill="#228be6" fill-rule="evenodd"></path><path d="M0 0 C0 0, 0.76 -4.14, 0 0 C-0.76 4.14, -6.71 23.24, -4.57 24.87 C-2.44 26.5, 5.48 9.71, 12.81 9.8 C20.14 9.89, 30.91 25.89, 39.42 25.4 C47.93 24.91, 63.87 13.76, 63.85 6.88 C63.83 0, 47.63 -14.82, 39.3 -15.87 C30.96 -16.93, 21.87 2.02, 13.85 0.57 C5.83 -0.89, -6.49 -24.5, -8.8 -24.6 C-11.11 -24.69, -1.47 -4.1, 0 0 M0 0 C0 0, 0.76 -4.14, 0 0 C-0.76 4.14, -6.71 23.24, -4.57 24.87 C-2.44 26.5, 5.48 9.71, 12.81 9.8 C20.14 9.89, 30.91 25.89, 39.42 25.4 C47.93 24.91, 63.87 13.76, 63.85 6.88 C63.83 0, 47.63 -14.82, 39.3 -15.87 C30.96 -16.93, 21.87 2.02, 13.85 0.57 C5.83 -0.89, -6.49 -24.5, -8.8 -24.6 C-11.11 -24.69, -1.47 -4.1, 0 0" stroke="#228be6" stroke-width="1" fill="none"></path></g></g><mask></mask><g stroke-linecap="round" transform="translate(75.66434293139241 10.000000000000227) rotate(0 13.725655185624817 11.2746453310491)"><path d="M14.49 -0.45 C17.27 -0.46, 21.1 1.22, 23.18 2.93 C25.27 4.64, 26.61 7.33, 27 9.82 C27.39 12.31, 27.17 15.75, 25.5 17.85 C23.84 19.96, 19.9 21.9, 17.01 22.44 C14.12 22.97, 10.7 22.05, 8.15 21.08 C5.6 20.1, 2.97 18.66, 1.73 16.59 C0.49 14.52, 0.12 11.11, 0.73 8.65 C1.34 6.18, 2.95 3.32, 5.38 1.81 C7.82 0.29, 13.59 -0.15, 15.34 -0.44 C17.09 -0.72, 15.86 -0.2, 15.87 0.1 M14.31 0.06 C17.13 0.09, 21.06 1.76, 23.21 3.36 C25.37 4.96, 26.83 7.43, 27.23 9.64 C27.62 11.86, 27.17 14.65, 25.6 16.66 C24.02 18.67, 20.49 20.84, 17.76 21.72 C15.03 22.61, 11.85 22.89, 9.23 21.95 C6.61 21.02, 3.49 18.25, 2.02 16.11 C0.54 13.96, -0.26 11.33, 0.37 9.09 C1.01 6.85, 3.53 4.21, 5.85 2.65 C8.16 1.1, 12.96 0.23, 14.28 -0.24 C15.61 -0.72, 13.78 -0.49, 13.8 -0.2" stroke="none" stroke-width="0" fill="#ced4da"></path><path d="M10.66 0.12 C13.27 -0.35, 17.59 0.61, 20.26 1.86 C22.93 3.11, 25.61 5.48, 26.68 7.64 C27.76 9.8, 27.76 12.56, 26.7 14.83 C25.64 17.09, 22.78 19.96, 20.33 21.24 C17.87 22.52, 14.76 22.95, 11.97 22.52 C9.18 22.09, 5.63 20.57, 3.61 18.65 C1.6 16.73, 0.03 13.32, -0.1 10.98 C-0.23 8.64, 0.91 6.37, 2.85 4.62 C4.79 2.87, 10.01 1.24, 11.53 0.51 C13.06 -0.23, 12.02 0.01, 12 0.19 M15.71 -0.41 C18.48 -0.39, 21.89 1.42, 23.92 3.23 C25.95 5.03, 27.77 7.86, 27.91 10.39 C28.05 12.93, 26.63 16.4, 24.77 18.42 C22.9 20.43, 19.79 21.91, 16.75 22.47 C13.7 23.04, 9.15 22.99, 6.48 21.8 C3.82 20.62, 1.62 17.71, 0.75 15.37 C-0.12 13.02, 0.41 10.1, 1.26 7.71 C2.1 5.31, 3.34 2.38, 5.82 0.99 C8.3 -0.4, 14.55 -0.55, 16.13 -0.62 C17.7 -0.68, 15.27 0.22, 15.28 0.61" stroke="#ced4da" stroke-width="1" fill="none"></path></g><g stroke-linecap="round" transform="translate(106.05686512813327 39.41211825491064) rotate(0 6.862827592812437 5.882423650982105)"><path d="M6.69 -0.3 C8.07 -0.36, 9.64 0.11, 10.87 1 C12.11 1.89, 13.82 3.69, 14.08 5.04 C14.34 6.4, 13.22 8.12, 12.43 9.11 C11.64 10.09, 10.59 10.49, 9.34 10.95 C8.09 11.41, 6.28 12.19, 4.92 11.87 C3.57 11.55, 2.09 10.24, 1.22 9.03 C0.36 7.82, -0.51 5.94, -0.27 4.59 C-0.03 3.23, 1.36 1.69, 2.67 0.89 C3.98 0.09, 6.76 -0.11, 7.61 -0.2 C8.47 -0.29, 7.86 0.22, 7.79 0.37 M6.87 0.43 C8.24 0.28, 9.82 0.53, 10.99 1.12 C12.15 1.72, 13.54 2.81, 13.84 4.02 C14.14 5.22, 13.4 7.09, 12.79 8.35 C12.17 9.61, 11.42 11.13, 10.15 11.58 C8.88 12.04, 6.7 11.46, 5.19 11.07 C3.68 10.67, 1.87 10.17, 1.1 9.22 C0.34 8.27, 0.38 6.69, 0.58 5.36 C0.78 4.04, 1.34 2.23, 2.27 1.26 C3.2 0.3, 5.4 -0.31, 6.16 -0.43 C6.92 -0.55, 6.79 0.29, 6.85 0.52" stroke="none" stroke-width="0" fill="#ced4da"></path><path d="M6.15 0.47 C7.63 0.37, 9.72 0.84, 10.95 1.47 C12.17 2.1, 13.21 3.05, 13.49 4.25 C13.76 5.45, 13.17 7.49, 12.61 8.67 C12.06 9.85, 11.36 10.85, 10.15 11.32 C8.94 11.8, 6.83 11.97, 5.33 11.54 C3.83 11.11, 2.06 9.72, 1.14 8.76 C0.22 7.81, -0.34 6.92, -0.18 5.81 C-0.02 4.69, 0.95 3.06, 2.09 2.07 C3.24 1.08, 5.96 0.14, 6.7 -0.14 C7.44 -0.41, 6.5 0.31, 6.53 0.43 M7.87 -0.5 C9.35 -0.39, 11.49 0.39, 12.52 1.46 C13.54 2.52, 14.02 4.54, 14.01 5.92 C14.01 7.3, 13.56 8.69, 12.46 9.74 C11.37 10.8, 8.98 12.07, 7.46 12.27 C5.93 12.48, 4.4 11.69, 3.32 10.97 C2.24 10.26, 1.61 9.27, 1 7.98 C0.39 6.7, -0.8 4.6, -0.35 3.28 C0.11 1.97, 2.41 0.59, 3.72 0.1 C5.03 -0.39, 6.72 0.24, 7.52 0.33 C8.32 0.42, 8.5 0.68, 8.53 0.64" stroke="#ced4da" stroke-width="1" fill="none"></path></g><g stroke-linecap="round" transform="translate(93.80181585525384 64.90262074249972) rotate(0 3.186312810948664 3.6765147818638297)"><path d="M2.66 -0.24 C3.32 -0.29, 4.11 0.5, 4.73 0.94 C5.35 1.39, 6.12 1.7, 6.38 2.42 C6.64 3.13, 6.64 4.45, 6.29 5.26 C5.94 6.06, 4.87 6.88, 4.27 7.25 C3.67 7.61, 3.3 7.71, 2.71 7.44 C2.12 7.16, 1.21 6.23, 0.73 5.58 C0.25 4.94, -0.16 4.25, -0.18 3.56 C-0.21 2.87, 0.08 1.99, 0.57 1.44 C1.07 0.89, 2.36 0.48, 2.79 0.27 C3.21 0.05, 3.1 0.12, 3.14 0.13 M3.49 -0.07 C4.12 -0.11, 4.77 0.55, 5.17 1.06 C5.57 1.57, 5.81 2.15, 5.9 2.98 C6 3.8, 5.99 5.27, 5.74 6.02 C5.49 6.76, 5.07 7.25, 4.42 7.44 C3.76 7.63, 2.44 7.43, 1.8 7.16 C1.16 6.89, 0.82 6.52, 0.56 5.83 C0.3 5.14, 0.18 3.9, 0.25 3.01 C0.32 2.13, 0.55 1.01, 0.99 0.53 C1.44 0.06, 2.51 0.24, 2.92 0.15 C3.34 0.05, 3.39 -0.14, 3.48 -0.04" stroke="none" stroke-width="0" fill="#ced4da"></path><path d="M3.02 0.14 C3.71 -0.01, 4.6 0.19, 5.12 0.54 C5.64 0.88, 5.93 1.41, 6.13 2.2 C6.34 2.99, 6.58 4.47, 6.35 5.28 C6.13 6.1, 5.42 6.75, 4.78 7.07 C4.14 7.39, 3.27 7.42, 2.54 7.21 C1.8 7, 0.74 6.42, 0.36 5.83 C-0.01 5.23, 0.18 4.38, 0.29 3.63 C0.41 2.89, 0.64 1.98, 1.03 1.34 C1.43 0.71, 2.35 0.02, 2.68 -0.16 C3.02 -0.33, 3.03 0.16, 3.06 0.29 M2.78 0.31 C3.43 0.3, 4.23 0.56, 4.83 1.04 C5.44 1.52, 6.2 2.53, 6.41 3.2 C6.61 3.86, 6.34 4.39, 6.06 5.02 C5.78 5.66, 5.37 6.57, 4.7 6.98 C4.04 7.4, 2.79 7.83, 2.08 7.51 C1.37 7.19, 0.85 5.75, 0.44 5.05 C0.02 4.36, -0.44 4.06, -0.4 3.32 C-0.37 2.58, 0.01 1.08, 0.63 0.59 C1.25 0.11, 2.87 0.5, 3.34 0.4 C3.81 0.3, 3.55 -0.03, 3.46 -0.01" stroke="#ced4da" stroke-width="1" fill="none"></path></g><g stroke-linecap="round" transform="translate(97.72343162257539 94.31473899741013) rotate(0 3.186312810948607 3.6765147818638297)"><path d="M2.42 -0.2 C3.12 -0.31, 4.54 0.17, 5.12 0.65 C5.71 1.13, 5.75 1.99, 5.94 2.66 C6.12 3.33, 6.4 3.92, 6.24 4.67 C6.09 5.43, 5.58 6.73, 5 7.19 C4.43 7.65, 3.54 7.65, 2.79 7.42 C2.03 7.19, 0.91 6.5, 0.47 5.81 C0.03 5.12, 0.05 4.08, 0.15 3.3 C0.26 2.52, 0.62 1.66, 1.09 1.14 C1.56 0.62, 2.69 0.36, 2.98 0.19 C3.26 0.03, 2.87 0.13, 2.83 0.17 M3.15 -0.08 C3.8 -0.24, 4.92 -0.04, 5.44 0.46 C5.95 0.95, 6.08 2.01, 6.24 2.88 C6.4 3.76, 6.69 5.05, 6.41 5.71 C6.12 6.38, 5.26 6.61, 4.54 6.87 C3.82 7.13, 2.74 7.46, 2.11 7.26 C1.47 7.07, 1.09 6.42, 0.75 5.68 C0.41 4.94, 0.04 3.69, 0.06 2.83 C0.07 1.98, 0.3 0.98, 0.86 0.55 C1.41 0.12, 2.99 0.3, 3.37 0.26 C3.74 0.22, 3.06 0.34, 3.1 0.3" stroke="none" stroke-width="0" fill="#ced4da"></path><path d="M3.19 0.27 C3.85 0.14, 4.69 0.24, 5.16 0.72 C5.63 1.2, 5.81 2.34, 6 3.14 C6.18 3.94, 6.49 4.84, 6.25 5.5 C6 6.16, 5.21 6.86, 4.52 7.08 C3.83 7.3, 2.81 7.03, 2.11 6.84 C1.42 6.64, 0.67 6.47, 0.34 5.9 C0 5.32, -0.05 4.22, 0.09 3.37 C0.23 2.53, 0.7 1.36, 1.18 0.83 C1.65 0.3, 2.58 0.33, 2.95 0.21 C3.31 0.09, 3.3 0.08, 3.37 0.1 M3.12 -0.36 C3.8 -0.41, 4.57 0.17, 5.12 0.69 C5.67 1.2, 6.33 1.91, 6.42 2.72 C6.51 3.52, 5.97 4.83, 5.65 5.53 C5.32 6.23, 4.95 6.64, 4.48 6.92 C4.01 7.21, 3.55 7.51, 2.83 7.26 C2.1 7.01, 0.58 6.14, 0.15 5.43 C-0.27 4.72, 0.19 3.66, 0.26 2.98 C0.33 2.3, 0.09 1.78, 0.58 1.33 C1.07 0.89, 2.85 0.59, 3.21 0.32 C3.57 0.06, 2.77 -0.28, 2.74 -0.27" stroke="#ced4da" stroke-width="1" fill="none"></path></g></svg>