<svg version="1.1" xmlns="http://www.w3.org/2000/svg" viewBox="0 0 211.72858561819146 328.43956386119237" width="635.1857568545744" height="985.3186915835771">
  <!-- svg-source:excalidraw -->
  <g stroke-linecap="round"><g transform="translate(11.014504643579585 155.9668917068443) rotate(0 0 0)"><path d="M0 0 C0 0, 0 0, 0 0 M0 0 C0 0, 0 0, 0 0" stroke="#ffffff" stroke-width="1" fill="none"></path></g></g><mask></mask><g stroke-linecap="round"><g transform="translate(61.856785454646115 293.0298074171194) rotate(0 27.52510883714001 0.4008671016227936)" fill-rule="evenodd"><path d="M0 0 C0 0, 0.76 -4.14, 0 0 C-0.76 4.14, -6.71 23.24, -4.57 24.87 C-2.44 26.5, 5.48 9.71, 12.81 9.8 C20.14 9.89, 30.91 25.89, 39.42 25.4 C47.93 24.91, 63.87 13.76, 63.85 6.88 C63.83 0, 47.63 -14.82, 39.3 -15.87 C30.96 -16.93, 21.87 2.02, 13.85 0.57 C5.83 -0.89, -6.49 -24.5, -8.8 -24.6 C-11.11 -24.69, -1.47 -4.1, 0 0" stroke="none" stroke-width="0" fill="#228be6" fill-rule="evenodd"></path><path d="M0 0 C0 0, 0.76 -4.14, 0 0 C-0.76 4.14, -6.71 23.24, -4.57 24.87 C-2.44 26.5, 5.48 9.71, 12.81 9.8 C20.14 9.89, 30.91 25.89, 39.42 25.4 C47.93 24.91, 63.87 13.76, 63.85 6.88 C63.83 0, 47.63 -14.82, 39.3 -15.87 C30.96 -16.93, 21.87 2.02, 13.85 0.57 C5.83 -0.89, -6.49 -24.5, -8.8 -24.6 C-11.11 -24.69, -1.47 -4.1, 0 0 M0 0 C0 0, 0.76 -4.14, 0 0 C-0.76 4.14, -6.71 23.24, -4.57 24.87 C-2.44 26.5, 5.48 9.71, 12.81 9.8 C20.14 9.89, 30.91 25.89, 39.42 25.4 C47.93 24.91, 63.87 13.76, 63.85 6.88 C63.83 0, 47.63 -14.82, 39.3 -15.87 C30.96 -16.93, 21.87 2.02, 13.85 0.57 C5.83 -0.89, -6.49 -24.5, -8.8 -24.6 C-11.11 -24.69, -1.47 -4.1, 0 0" stroke="#228be6" stroke-width="1" fill="none"></path></g></g><mask></mask><g stroke-linecap="round" transform="translate(118.36873627400428 187.5948671182939) rotate(0 13.725655185624817 11.2746453310491)"><path d="M14.49 -0.45 C17.27 -0.46, 21.1 1.22, 23.18 2.93 C25.27 4.64, 26.61 7.33, 27 9.82 C27.39 12.31, 27.17 15.75, 25.5 17.85 C23.84 19.96, 19.9 21.9, 17.01 22.44 C14.12 22.97, 10.7 22.05, 8.15 21.08 C5.6 20.1, 2.97 18.66, 1.73 16.59 C0.49 14.52, 0.12 11.11, 0.73 8.65 C1.34 6.18, 2.95 3.32, 5.38 1.81 C7.82 0.29, 13.59 -0.15, 15.34 -0.44 C17.09 -0.72, 15.86 -0.2, 15.87 0.1 M14.31 0.06 C17.13 0.09, 21.06 1.76, 23.21 3.36 C25.37 4.96, 26.83 7.43, 27.23 9.64 C27.62 11.86, 27.17 14.65, 25.6 16.66 C24.02 18.67, 20.49 20.84, 17.76 21.72 C15.03 22.61, 11.85 22.89, 9.23 21.95 C6.61 21.02, 3.49 18.25, 2.02 16.11 C0.54 13.96, -0.26 11.33, 0.37 9.09 C1.01 6.85, 3.53 4.21, 5.85 2.65 C8.16 1.1, 12.96 0.23, 14.28 -0.24 C15.61 -0.72, 13.78 -0.49, 13.8 -0.2" stroke="none" stroke-width="0" fill="#ced4da"></path><path d="M10.66 0.12 C13.27 -0.35, 17.59 0.61, 20.26 1.86 C22.93 3.11, 25.61 5.48, 26.68 7.64 C27.76 9.8, 27.76 12.56, 26.7 14.83 C25.64 17.09, 22.78 19.96, 20.33 21.24 C17.87 22.52, 14.76 22.95, 11.97 22.52 C9.18 22.09, 5.63 20.57, 3.61 18.65 C1.6 16.73, 0.03 13.32, -0.1 10.98 C-0.23 8.64, 0.91 6.37, 2.85 4.62 C4.79 2.87, 10.01 1.24, 11.53 0.51 C13.06 -0.23, 12.02 0.01, 12 0.19 M15.71 -0.41 C18.48 -0.39, 21.89 1.42, 23.92 3.23 C25.95 5.03, 27.77 7.86, 27.91 10.39 C28.05 12.93, 26.63 16.4, 24.77 18.42 C22.9 20.43, 19.79 21.91, 16.75 22.47 C13.7 23.04, 9.15 22.99, 6.48 21.8 C3.82 20.62, 1.62 17.71, 0.75 15.37 C-0.12 13.02, 0.41 10.1, 1.26 7.71 C2.1 5.31, 3.34 2.38, 5.82 0.99 C8.3 -0.4, 14.55 -0.55, 16.13 -0.62 C17.7 -0.68, 15.27 0.22, 15.28 0.61" stroke="#ced4da" stroke-width="1" fill="none"></path></g><g stroke-linecap="round" transform="translate(148.76125847074513 217.00698537320432) rotate(0 6.862827592812437 5.882423650982105)"><path d="M6.69 -0.3 C8.07 -0.36, 9.64 0.11, 10.87 1 C12.11 1.89, 13.82 3.69, 14.08 5.04 C14.34 6.4, 13.22 8.12, 12.43 9.11 C11.64 10.09, 10.59 10.49, 9.34 10.95 C8.09 11.41, 6.28 12.19, 4.92 11.87 C3.57 11.55, 2.09 10.24, 1.22 9.03 C0.36 7.82, -0.51 5.94, -0.27 4.59 C-0.03 3.23, 1.36 1.69, 2.67 0.89 C3.98 0.09, 6.76 -0.11, 7.61 -0.2 C8.47 -0.29, 7.86 0.22, 7.79 0.37 M6.87 0.43 C8.24 0.28, 9.82 0.53, 10.99 1.12 C12.15 1.72, 13.54 2.81, 13.84 4.02 C14.14 5.22, 13.4 7.09, 12.79 8.35 C12.17 9.61, 11.42 11.13, 10.15 11.58 C8.88 12.04, 6.7 11.46, 5.19 11.07 C3.68 10.67, 1.87 10.17, 1.1 9.22 C0.34 8.27, 0.38 6.69, 0.58 5.36 C0.78 4.04, 1.34 2.23, 2.27 1.26 C3.2 0.3, 5.4 -0.31, 6.16 -0.43 C6.92 -0.55, 6.79 0.29, 6.85 0.52" stroke="none" stroke-width="0" fill="#ced4da"></path><path d="M6.15 0.47 C7.63 0.37, 9.72 0.84, 10.95 1.47 C12.17 2.1, 13.21 3.05, 13.49 4.25 C13.76 5.45, 13.17 7.49, 12.61 8.67 C12.06 9.85, 11.36 10.85, 10.15 11.32 C8.94 11.8, 6.83 11.97, 5.33 11.54 C3.83 11.11, 2.06 9.72, 1.14 8.76 C0.22 7.81, -0.34 6.92, -0.18 5.81 C-0.02 4.69, 0.95 3.06, 2.09 2.07 C3.24 1.08, 5.96 0.14, 6.7 -0.14 C7.44 -0.41, 6.5 0.31, 6.53 0.43 M7.87 -0.5 C9.35 -0.39, 11.49 0.39, 12.52 1.46 C13.54 2.52, 14.02 4.54, 14.01 5.92 C14.01 7.3, 13.56 8.69, 12.46 9.74 C11.37 10.8, 8.98 12.07, 7.46 12.27 C5.93 12.48, 4.4 11.69, 3.32 10.97 C2.24 10.26, 1.61 9.27, 1 7.98 C0.39 6.7, -0.8 4.6, -0.35 3.28 C0.11 1.97, 2.41 0.59, 3.72 0.1 C5.03 -0.39, 6.72 0.24, 7.52 0.33 C8.32 0.42, 8.5 0.68, 8.53 0.64" stroke="#ced4da" stroke-width="1" fill="none"></path></g><g stroke-linecap="round" transform="translate(136.5062091978657 242.4974878607934) rotate(0 3.186312810948664 3.6765147818638297)"><path d="M2.66 -0.24 C3.32 -0.29, 4.11 0.5, 4.73 0.94 C5.35 1.39, 6.12 1.7, 6.38 2.42 C6.64 3.13, 6.64 4.45, 6.29 5.26 C5.94 6.06, 4.87 6.88, 4.27 7.25 C3.67 7.61, 3.3 7.71, 2.71 7.44 C2.12 7.16, 1.21 6.23, 0.73 5.58 C0.25 4.94, -0.16 4.25, -0.18 3.56 C-0.21 2.87, 0.08 1.99, 0.57 1.44 C1.07 0.89, 2.36 0.48, 2.79 0.27 C3.21 0.05, 3.1 0.12, 3.14 0.13 M3.49 -0.07 C4.12 -0.11, 4.77 0.55, 5.17 1.06 C5.57 1.57, 5.81 2.15, 5.9 2.98 C6 3.8, 5.99 5.27, 5.74 6.02 C5.49 6.76, 5.07 7.25, 4.42 7.44 C3.76 7.63, 2.44 7.43, 1.8 7.16 C1.16 6.89, 0.82 6.52, 0.56 5.83 C0.3 5.14, 0.18 3.9, 0.25 3.01 C0.32 2.13, 0.55 1.01, 0.99 0.53 C1.44 0.06, 2.51 0.24, 2.92 0.15 C3.34 0.05, 3.39 -0.14, 3.48 -0.04" stroke="none" stroke-width="0" fill="#ced4da"></path><path d="M3.02 0.14 C3.71 -0.01, 4.6 0.19, 5.12 0.54 C5.64 0.88, 5.93 1.41, 6.13 2.2 C6.34 2.99, 6.58 4.47, 6.35 5.28 C6.13 6.1, 5.42 6.75, 4.78 7.07 C4.14 7.39, 3.27 7.42, 2.54 7.21 C1.8 7, 0.74 6.42, 0.36 5.83 C-0.01 5.23, 0.18 4.38, 0.29 3.63 C0.41 2.89, 0.64 1.98, 1.03 1.34 C1.43 0.71, 2.35 0.02, 2.68 -0.16 C3.02 -0.33, 3.03 0.16, 3.06 0.29 M2.78 0.31 C3.43 0.3, 4.23 0.56, 4.83 1.04 C5.44 1.52, 6.2 2.53, 6.41 3.2 C6.61 3.86, 6.34 4.39, 6.06 5.02 C5.78 5.66, 5.37 6.57, 4.7 6.98 C4.04 7.4, 2.79 7.83, 2.08 7.51 C1.37 7.19, 0.85 5.75, 0.44 5.05 C0.02 4.36, -0.44 4.06, -0.4 3.32 C-0.37 2.58, 0.01 1.08, 0.63 0.59 C1.25 0.11, 2.87 0.5, 3.34 0.4 C3.81 0.3, 3.55 -0.03, 3.46 -0.01" stroke="#ced4da" stroke-width="1" fill="none"></path></g><g stroke-linecap="round" transform="translate(140.42782496518726 271.9096061157038) rotate(0 3.186312810948607 3.6765147818638297)"><path d="M2.42 -0.2 C3.12 -0.31, 4.54 0.17, 5.12 0.65 C5.71 1.13, 5.75 1.99, 5.94 2.66 C6.12 3.33, 6.4 3.92, 6.24 4.67 C6.09 5.43, 5.58 6.73, 5 7.19 C4.43 7.65, 3.54 7.65, 2.79 7.42 C2.03 7.19, 0.91 6.5, 0.47 5.81 C0.03 5.12, 0.05 4.08, 0.15 3.3 C0.26 2.52, 0.62 1.66, 1.09 1.14 C1.56 0.62, 2.69 0.36, 2.98 0.19 C3.26 0.03, 2.87 0.13, 2.83 0.17 M3.15 -0.08 C3.8 -0.24, 4.92 -0.04, 5.44 0.46 C5.95 0.95, 6.08 2.01, 6.24 2.88 C6.4 3.76, 6.69 5.05, 6.41 5.71 C6.12 6.38, 5.26 6.61, 4.54 6.87 C3.82 7.13, 2.74 7.46, 2.11 7.26 C1.47 7.07, 1.09 6.42, 0.75 5.68 C0.41 4.94, 0.04 3.69, 0.06 2.83 C0.07 1.98, 0.3 0.98, 0.86 0.55 C1.41 0.12, 2.99 0.3, 3.37 0.26 C3.74 0.22, 3.06 0.34, 3.1 0.3" stroke="none" stroke-width="0" fill="#ced4da"></path><path d="M3.19 0.27 C3.85 0.14, 4.69 0.24, 5.16 0.72 C5.63 1.2, 5.81 2.34, 6 3.14 C6.18 3.94, 6.49 4.84, 6.25 5.5 C6 6.16, 5.21 6.86, 4.52 7.08 C3.83 7.3, 2.81 7.03, 2.11 6.84 C1.42 6.64, 0.67 6.47, 0.34 5.9 C0 5.32, -0.05 4.22, 0.09 3.37 C0.23 2.53, 0.7 1.36, 1.18 0.83 C1.65 0.3, 2.58 0.33, 2.95 0.21 C3.31 0.09, 3.3 0.08, 3.37 0.1 M3.12 -0.36 C3.8 -0.41, 4.57 0.17, 5.12 0.69 C5.67 1.2, 6.33 1.91, 6.42 2.72 C6.51 3.52, 5.97 4.83, 5.65 5.53 C5.32 6.23, 4.95 6.64, 4.48 6.92 C4.01 7.21, 3.55 7.51, 2.83 7.26 C2.1 7.01, 0.58 6.14, 0.15 5.43 C-0.27 4.72, 0.19 3.66, 0.26 2.98 C0.33 2.3, 0.09 1.78, 0.58 1.33 C1.07 0.89, 2.85 0.59, 3.21 0.32 C3.57 0.06, 2.77 -0.28, 2.74 -0.27" stroke="#ced4da" stroke-width="1" fill="none"></path></g><g transform="translate(10 127.16636037505032) rotate(0 95.86429280909573 -3.51569570370566)" stroke="none"><path fill="#868e96" d="M -2.77,-3.37 Q -2.77,-3.37 1.46,-6.02 5.70,-8.66 10.33,-10.93 14.96,-13.20 22.04,-15.30 29.12,-17.39 34.58,-17.70 40.05,-18.00 44.80,-14.52 49.56,-11.04 51.83,-7.14 54.09,-3.23 59.76,-2.80 65.42,-2.38 70.18,-5.09 74.93,-7.79 80.14,-10.35 85.35,-12.91 89.84,-13.69 94.33,-14.48 99.58,-13.35 104.83,-12.22 107.95,-7.60 111.07,-2.97 116.07,-4.20 121.06,-5.42 124.78,-7.68 128.51,-9.94 134.07,-11.80 139.63,-13.66 144.19,-12.88 148.74,-12.10 150.29,-7.47 151.84,-2.85 156.17,-2.94 160.49,-3.04 164.77,-4.81 169.05,-6.57 173.24,-8.03 177.42,-9.49 181.45,-11.24 185.48,-12.99 185.96,-12.36 186.45,-11.73 186.68,-12.55 186.91,-13.37 187.38,-14.07 187.86,-14.77 188.54,-15.29 189.22,-15.80 190.02,-16.07 190.83,-16.34 191.68,-16.34 192.53,-16.34 193.33,-16.06 194.14,-15.79 194.81,-15.28 195.49,-14.76 195.96,-14.06 196.44,-13.35 196.67,-12.53 196.89,-11.71 196.85,-10.86 196.80,-10.02 196.48,-9.23 196.17,-8.44 195.61,-7.79 195.06,-7.14 194.33,-6.71 193.61,-6.27 192.78,-6.09 191.94,-5.91 191.10,-6.00 190.26,-6.09 189.48,-6.45 188.71,-6.81 188.10,-7.40 187.48,-7.98 187.08,-8.73 186.69,-9.48 186.55,-10.32 186.42,-11.16 186.56,-12.00 186.69,-12.84 187.09,-13.59 187.49,-14.34 188.11,-14.92 188.73,-15.51 189.50,-15.86 190.27,-16.22 191.12,-16.31 191.96,-16.40 192.79,-16.21 193.62,-16.03 194.35,-15.59 195.08,-15.15 195.63,-14.50 196.18,-13.85 196.49,-13.06 196.80,-12.27 196.85,-11.42 196.89,-10.58 196.89,-10.58 196.89,-10.58 191.99,-6.48 187.10,-2.39 181.91,-0.41 176.73,1.56 170.88,3.99 165.04,6.42 160.70,8.21 156.37,10.00 150.36,8.52 144.35,7.04 141.82,2.01 139.29,-3.02 134.88,-1.05 130.47,0.90 125.43,4.13 120.39,7.36 114.43,7.91 108.48,8.46 105.20,5.32 101.93,2.19 98.66,-0.92 95.39,-4.03 90.21,-2.75 85.03,-1.48 80.16,1.30 75.29,4.09 70.11,6.92 64.93,9.74 59.72,10.05 54.50,10.36 49.65,6.00 44.79,1.65 42.35,-2.46 39.92,-6.58 35.51,-6.83 31.10,-7.07 25.33,-5.42 19.56,-3.76 15.41,-1.75 11.25,0.25 7.01,2.89 2.77,5.53 2.20,5.80 1.63,6.07 1.01,6.19 0.38,6.32 -0.24,6.29 -0.87,6.26 -1.48,6.08 -2.09,5.90 -2.63,5.58 -3.18,5.26 -3.63,4.81 -4.09,4.37 -4.42,3.84 -4.76,3.30 -4.95,2.70 -5.15,2.09 -5.20,1.46 -5.24,0.83 -5.14,0.21 -5.03,-0.41 -4.78,-0.99 -4.53,-1.57 -4.14,-2.07 -3.76,-2.58 -3.27,-2.97 -2.77,-3.37 -2.77,-3.37 L -2.77,-3.37 Z"></path></g><g transform="translate(43.20050099829109 10.11446103976914) rotate(1.98863785647392 3.767841638363848 27.044268610129393)" stroke="none"><path fill="#ced4da" d="M 5.21,-0.67 Q 5.21,-0.67 6.29,7.71 7.37,16.11 8.91,26.81 10.45,37.52 10.04,42.68 9.62,47.84 9.41,48.66 9.19,49.48 8.73,50.19 8.26,50.90 7.59,51.43 6.92,51.95 6.12,52.23 5.32,52.52 4.47,52.53 3.62,52.54 2.81,52.28 2.00,52.02 1.32,51.52 0.63,51.01 0.15,50.32 -0.33,49.62 -0.57,48.81 -0.81,47.99 -0.78,47.14 -0.74,46.29 -0.44,45.50 -0.14,44.70 0.39,44.05 0.93,43.39 1.66,42.94 2.38,42.49 3.21,42.30 4.03,42.10 4.88,42.18 5.73,42.26 6.50,42.61 7.28,42.95 7.90,43.53 8.53,44.11 8.94,44.85 9.35,45.60 9.50,46.43 9.65,47.27 9.52,48.11 9.40,48.95 9.01,49.71 8.62,50.46 8.01,51.06 7.41,51.65 6.64,52.02 5.87,52.39 5.03,52.49 4.19,52.59 3.35,52.42 2.52,52.25 1.79,51.83 1.05,51.40 0.49,50.76 -0.06,50.12 -0.38,49.33 -0.71,48.55 -0.77,47.70 -0.83,46.85 -0.83,46.85 -0.83,46.86 -0.38,42.90 0.05,38.94 -1.49,28.20 -3.04,17.45 -4.12,9.06 -5.21,0.67 -5.21,0.03 -5.21,-0.59 -5.07,-1.20 -4.92,-1.82 -4.63,-2.38 -4.34,-2.95 -3.92,-3.42 -3.51,-3.90 -2.99,-4.26 -2.47,-4.63 -1.88,-4.86 -1.29,-5.09 -0.66,-5.17 -0.03,-5.25 0.58,-5.18 1.21,-5.10 1.81,-4.88 2.40,-4.66 2.93,-4.31 3.45,-3.95 3.87,-3.48 4.30,-3.01 4.59,-2.45 4.89,-1.89 5.05,-1.28 5.21,-0.67 5.21,-0.67 L 5.21,-0.67 Z"></path></g><g transform="translate(31.26525056164678 61.06622849877499) rotate(0 15.731326707132894 -23.971545458488208)" stroke="none"><path fill="#ced4da" d="M -2.96,-17.07 Q -2.96,-17.07 2.26,-20.64 7.49,-24.22 11.51,-27.08 15.52,-29.94 21.13,-34.06 26.73,-38.17 27.48,-38.58 28.22,-38.99 29.06,-39.14 29.89,-39.29 30.73,-39.17 31.57,-39.04 32.33,-38.66 33.09,-38.27 33.68,-37.66 34.28,-37.05 34.64,-36.29 35.01,-35.52 35.12,-34.68 35.22,-33.83 35.05,-33.00 34.88,-32.17 34.45,-31.43 34.03,-30.70 33.39,-30.14 32.75,-29.58 31.96,-29.25 31.18,-28.93 30.33,-28.87 29.48,-28.81 28.66,-29.02 27.84,-29.24 27.13,-29.70 26.42,-30.17 25.89,-30.84 25.37,-31.51 25.09,-32.31 24.80,-33.11 24.79,-33.96 24.78,-34.81 25.04,-35.62 25.30,-36.43 25.80,-37.11 26.30,-37.80 27.00,-38.29 27.70,-38.77 28.51,-39.01 29.33,-39.25 30.18,-39.22 31.03,-39.19 31.82,-38.88 32.61,-38.58 33.27,-38.04 33.93,-37.50 34.37,-36.78 34.82,-36.06 35.02,-35.23 35.21,-34.40 35.13,-33.55 35.06,-32.71 34.71,-31.93 34.36,-31.16 33.79,-30.53 33.21,-29.90 33.21,-29.90 33.22,-29.91 27.42,-25.65 21.62,-21.39 17.52,-18.46 13.42,-15.54 8.19,-11.97 2.96,-8.39 2.40,-8.10 1.84,-7.81 1.22,-7.66 0.60,-7.51 -0.02,-7.51 -0.65,-7.52 -1.27,-7.67 -1.88,-7.83 -2.44,-8.12 -3.00,-8.42 -3.47,-8.84 -3.94,-9.26 -4.30,-9.79 -4.66,-10.31 -4.88,-10.90 -5.10,-11.50 -5.17,-12.13 -5.25,-12.75 -5.17,-13.38 -5.09,-14.01 -4.86,-14.60 -4.64,-15.19 -4.27,-15.71 -3.91,-16.23 -3.43,-16.65 -2.96,-17.07 -2.96,-17.07 L -2.96,-17.07 Z"></path></g><g transform="translate(30.862878495575842 26.20475135546758) rotate(355.74616356388077 15.38458797762587 12.762708673763541)" stroke="none"><path fill="#ced4da" d="M 2.96,-4.10 Q 2.96,-4.10 10.28,1.73 17.60,7.57 22.73,11.52 27.85,15.48 28.43,16.10 29.01,16.72 29.36,17.50 29.71,18.27 29.80,19.11 29.88,19.96 29.69,20.79 29.51,21.62 29.06,22.34 28.62,23.07 27.97,23.61 27.32,24.16 26.52,24.47 25.73,24.78 24.88,24.82 24.03,24.85 23.22,24.62 22.40,24.39 21.70,23.91 21.00,23.42 20.49,22.74 19.98,22.06 19.72,21.26 19.45,20.45 19.46,19.60 19.46,18.75 19.74,17.94 20.02,17.14 20.54,16.47 21.06,15.80 21.76,15.32 22.47,14.85 23.29,14.63 24.11,14.41 24.96,14.46 25.81,14.52 26.60,14.84 27.38,15.16 28.03,15.71 28.67,16.27 29.10,17.00 29.54,17.73 29.71,18.56 29.89,19.39 29.79,20.24 29.69,21.08 29.33,21.85 28.97,22.62 28.38,23.23 27.79,23.84 27.03,24.24 26.28,24.63 25.44,24.76 24.60,24.89 23.76,24.75 22.92,24.60 22.18,24.20 21.43,23.79 21.43,23.79 21.43,23.80 16.24,19.79 11.05,15.78 3.73,9.94 -3.58,4.10 -4.03,3.65 -4.47,3.20 -4.79,2.65 -5.12,2.11 -5.30,1.50 -5.48,0.90 -5.52,0.26 -5.55,-0.36 -5.43,-0.98 -5.31,-1.60 -5.05,-2.18 -4.78,-2.75 -4.39,-3.25 -3.99,-3.74 -3.49,-4.13 -2.99,-4.51 -2.41,-4.77 -1.83,-5.02 -1.20,-5.13 -0.58,-5.24 0.04,-5.20 0.67,-5.15 1.28,-4.96 1.88,-4.77 2.42,-4.43 2.96,-4.10 2.96,-4.10 L 2.96,-4.10 Z"></path></g><g transform="translate(86.59032758543844 40.60617281132522) rotate(1.98863785647392 1.7705837808656497 12.708640108150007)" stroke="none"><path fill="#ced4da" d="M 2.60,-0.33 Q 2.60,-0.33 3.11,3.60 3.62,7.55 4.34,12.58 5.06,17.61 4.87,20.05 4.68,22.49 4.57,22.90 4.46,23.31 4.23,23.67 4.00,24.02 3.66,24.29 3.33,24.55 2.93,24.69 2.53,24.83 2.10,24.84 1.68,24.84 1.27,24.71 0.87,24.58 0.52,24.33 0.18,24.08 -0.05,23.73 -0.29,23.38 -0.41,22.98 -0.53,22.57 -0.52,22.14 -0.50,21.72 -0.35,21.32 -0.20,20.93 0.06,20.60 0.33,20.27 0.69,20.04 1.05,19.82 1.47,19.72 1.88,19.63 2.30,19.67 2.73,19.70 3.12,19.88 3.50,20.05 3.82,20.34 4.13,20.63 4.33,21.00 4.54,21.37 4.61,21.79 4.69,22.21 4.63,22.63 4.56,23.05 4.37,23.43 4.18,23.80 3.87,24.10 3.57,24.40 3.19,24.58 2.80,24.77 2.38,24.82 1.96,24.87 1.54,24.79 1.13,24.70 0.76,24.49 0.39,24.27 0.11,23.95 -0.16,23.63 -0.32,23.24 -0.48,22.85 -0.51,22.42 -0.54,22.00 -0.54,22.00 -0.54,22.00 -0.33,20.16 -0.13,18.32 -0.85,13.27 -1.58,8.22 -2.09,4.27 -2.60,0.33 -2.60,0.01 -2.60,-0.29 -2.53,-0.60 -2.46,-0.91 -2.31,-1.19 -2.17,-1.47 -1.96,-1.71 -1.75,-1.95 -1.49,-2.13 -1.23,-2.31 -0.94,-2.43 -0.64,-2.54 -0.33,-2.58 -0.01,-2.62 0.29,-2.59 0.60,-2.55 0.90,-2.44 1.20,-2.33 1.46,-2.15 1.72,-1.97 1.93,-1.74 2.15,-1.50 2.29,-1.22 2.44,-0.94 2.52,-0.64 2.60,-0.33 2.60,-0.33 L 2.60,-0.33 Z"></path></g><g transform="translate(80.98171584642 64.5494224826482) rotate(0 7.392463535501179 -11.264706339811255)" stroke="none"><path fill="#ced4da" d="M -1.48,-8.15 Q -1.48,-8.15 0.97,-9.83 3.43,-11.51 5.31,-12.85 7.20,-14.20 9.83,-16.13 12.46,-18.06 12.83,-18.26 13.21,-18.47 13.62,-18.54 14.04,-18.62 14.46,-18.56 14.88,-18.49 15.26,-18.30 15.64,-18.11 15.94,-17.80 16.23,-17.50 16.42,-17.12 16.60,-16.73 16.65,-16.31 16.71,-15.89 16.62,-15.47 16.54,-15.06 16.32,-14.69 16.11,-14.32 15.79,-14.04 15.47,-13.76 15.08,-13.60 14.69,-13.44 14.26,-13.41 13.84,-13.38 13.43,-13.49 13.02,-13.59 12.66,-13.83 12.30,-14.06 12.04,-14.39 11.78,-14.73 11.64,-15.13 11.50,-15.53 11.49,-15.95 11.48,-16.38 11.61,-16.78 11.74,-17.19 12.00,-17.53 12.25,-17.87 12.60,-18.12 12.94,-18.36 13.35,-18.48 13.76,-18.60 14.18,-18.58 14.61,-18.57 15.01,-18.41 15.40,-18.26 15.73,-17.99 16.06,-17.72 16.28,-17.36 16.51,-17.00 16.61,-16.59 16.70,-16.17 16.66,-15.75 16.62,-15.33 16.45,-14.94 16.28,-14.55 15.99,-14.24 15.70,-13.93 15.70,-13.93 15.70,-13.93 12.98,-11.92 10.25,-9.92 8.32,-8.54 6.39,-7.17 3.93,-5.49 1.48,-3.81 1.20,-3.67 0.92,-3.52 0.61,-3.44 0.30,-3.37 -0.01,-3.37 -0.32,-3.37 -0.63,-3.45 -0.94,-3.53 -1.22,-3.68 -1.50,-3.82 -1.73,-4.04 -1.97,-4.25 -2.15,-4.51 -2.33,-4.77 -2.44,-5.07 -2.55,-5.36 -2.58,-5.68 -2.62,-5.99 -2.58,-6.31 -2.54,-6.62 -2.43,-6.92 -2.32,-7.21 -2.13,-7.47 -1.95,-7.73 -1.71,-7.94 -1.48,-8.15 -1.48,-8.15 L -1.48,-8.15 Z"></path></g><g transform="translate(80.79263320377208 48.16732049129155) rotate(355.74616356388077 7.229524105029213 5.99745083434334)" stroke="none"><path fill="#ced4da" d="M 1.49,-2.05 Q 1.49,-2.05 4.93,0.69 8.37,3.43 10.77,5.29 13.18,7.15 13.47,7.46 13.76,7.77 13.94,8.15 14.11,8.54 14.16,8.96 14.20,9.39 14.10,9.80 14.01,10.22 13.79,10.58 13.57,10.94 13.24,11.21 12.91,11.49 12.52,11.64 12.12,11.79 11.70,11.81 11.27,11.83 10.86,11.72 10.46,11.60 10.11,11.36 9.76,11.12 9.50,10.78 9.25,10.44 9.11,10.03 8.98,9.63 8.98,9.21 8.99,8.78 9.13,8.38 9.26,7.98 9.52,7.64 9.78,7.30 10.14,7.07 10.49,6.83 10.90,6.72 11.31,6.61 11.74,6.64 12.16,6.66 12.55,6.82 12.95,6.98 13.27,7.26 13.59,7.54 13.81,7.91 14.02,8.27 14.11,8.69 14.20,9.10 14.15,9.52 14.10,9.95 13.92,10.33 13.74,10.72 13.44,11.02 13.15,11.33 12.77,11.52 12.40,11.72 11.98,11.79 11.56,11.85 11.14,11.78 10.72,11.71 10.34,11.51 9.97,11.30 9.97,11.30 9.97,11.30 7.53,9.42 5.09,7.54 1.65,4.79 -1.78,2.05 -2.00,1.82 -2.22,1.60 -2.39,1.32 -2.55,1.05 -2.64,0.75 -2.73,0.45 -2.75,0.13 -2.76,-0.18 -2.70,-0.49 -2.64,-0.80 -2.51,-1.09 -2.38,-1.37 -2.18,-1.62 -1.98,-1.87 -1.73,-2.06 -1.48,-2.25 -1.19,-2.38 -0.90,-2.51 -0.59,-2.56 -0.28,-2.62 0.03,-2.60 0.34,-2.57 0.65,-2.48 0.95,-2.38 1.22,-2.21 1.49,-2.05 1.49,-2.05 L 1.49,-2.05 Z"></path></g></svg>