<svg version="1.1" xmlns="http://www.w3.org/2000/svg" viewBox="0 0 197.5740756258947 188.819074968956" width="197.5740756258947" height="188.819074968956">
  <!-- svg-source:excalidraw -->
  
  <defs>
    <style class="style-fonts">
      @font-face {
        font-family: "Virgil";
        src: url("https://excalidraw.com/Virgil.woff2");
      }
      @font-face {
        font-family: "Cascadia";
        src: url("https://excalidraw.com/Cascadia.woff2");
      }
      @font-face {
        font-family: "Assistant";
        src: url("https://excalidraw.com/Assistant-Regular.woff2");
      }
    </style>
    
  </defs>
  <g stroke-linecap="round" transform="translate(10 10) rotate(0 88.78703781294735 84.409537484478)"><path d="M0 0 L177.57 0 L177.57 168.82 L0 168.82" stroke="none" stroke-width="0" fill="#d0bdef"></path><path d="M0 0 C68.17 0, 136.34 0, 177.57 0 M0 0 C61.93 0, 123.85 0, 177.57 0 M177.57 0 C177.57 58.1, 177.57 116.2, 177.57 168.82 M177.57 0 C177.57 58.2, 177.57 116.41, 177.57 168.82 M177.57 168.82 C128.01 168.82, 78.45 168.82, 0 168.82 M177.57 168.82 C124.79 168.82, 72.01 168.82, 0 168.82 M0 168.82 C0 119.39, 0 69.96, 0 0 M0 168.82 C0 123.2, 0 77.59, 0 0" stroke="transparent" stroke-width="4" fill="none"></path></g><g stroke-linecap="round" transform="translate(93.29033410047123 21.78364005890171) rotate(0 40.89486142333135 32.98313411241941)"><path d="M34.06 0.17 C41.23 -1.27, 51.02 0.78, 58.18 3.8 C65.33 6.81, 73.22 12.72, 77 18.26 C80.78 23.81, 82.1 30.76, 80.84 37.06 C79.58 43.36, 74.99 51.16, 69.43 56.05 C63.87 60.95, 55.38 65.2, 47.49 66.44 C39.61 67.68, 29.3 66.56, 22.11 63.5 C14.92 60.44, 7.94 53.96, 4.36 48.08 C0.77 42.2, -0.47 34.71, 0.62 28.22 C1.71 21.73, 4.54 13.86, 10.88 9.15 C17.21 4.44, 32.88 1.33, 38.63 -0.04 C44.38 -1.41, 45.35 0.33, 45.39 0.94 M23.04 3.02 C29.75 0.01, 41.82 -0.22, 49.56 1.13 C57.3 2.49, 64.03 6.42, 69.49 11.14 C74.95 15.85, 81.22 23.04, 82.32 29.42 C83.43 35.79, 79.98 43.86, 76.13 49.38 C72.29 54.9, 66.49 59.8, 59.24 62.55 C52 65.31, 40.63 66.95, 32.66 65.92 C24.7 64.88, 16.87 60.93, 11.48 56.34 C6.08 51.76, 1.36 44.73, 0.3 38.39 C-0.76 32.05, 1.36 24.25, 5.11 18.29 C8.86 12.34, 19.78 5.18, 22.8 2.66 C25.81 0.14, 23.01 2.5, 23.2 3.19" stroke="none" stroke-width="0" fill="#1971c2"></path><path d="M44.7 0.82 C52.37 0.96, 62.68 3.52, 68.86 7.79 C75.04 12.06, 80.08 20.18, 81.77 26.42 C83.47 32.67, 82.31 39.57, 79.04 45.27 C75.76 50.96, 69.13 57.23, 62.1 60.59 C55.07 63.94, 44.86 65.88, 36.86 65.4 C28.86 64.93, 20.1 62.09, 14.11 57.77 C8.12 53.44, 2.58 45.94, 0.91 39.45 C-0.76 32.95, 1.02 24.66, 4.11 18.8 C7.21 12.94, 12.14 7.44, 19.47 4.28 C26.8 1.13, 42.84 0.17, 48.09 -0.13 C53.34 -0.43, 51.15 1.78, 50.97 2.48 M39.42 0.98 C47.19 0.53, 58.14 1.83, 64.82 5.59 C71.5 9.36, 77 17.54, 79.5 23.56 C82.01 29.59, 82.38 35.58, 79.84 41.75 C77.29 47.92, 70.49 56.63, 64.26 60.59 C58.03 64.56, 50.12 65.49, 42.45 65.52 C34.79 65.54, 25.12 64.22, 18.28 60.75 C11.44 57.27, 4.31 51.07, 1.42 44.68 C-1.48 38.3, -1.71 28.58, 0.89 22.44 C3.48 16.29, 10.25 11.43, 16.99 7.83 C23.73 4.23, 37.34 2.28, 41.32 0.85 C45.29 -0.58, 41.06 -1.24, 40.83 -0.76" stroke="#1971c2" stroke-width="2" fill="none"></path></g><g stroke-linecap="round"><g transform="translate(43.6408984235386 115.0665854324875) rotate(0 55.8257897559979 18.258605123304676)" fill-rule="evenodd"><path d="M0.15 1.48 L1.92 34.15 L28.45 22.31 L69.87 37.35 L110.44 23.29 L68.27 4.62 L30.51 19.33 L1.92 -1.65" stroke="none" stroke-width="0" fill="#1e1e1e" fill-rule="evenodd"></path><path d="M0 0 C1.5 6.63, 0.53 16.3, 2.68 34.85 M0 0 C1.24 13.7, 0.8 26.62, 2.68 34.85 M2.68 34.85 C9.16 32.82, 13.82 28.91, 29.15 23.09 M2.68 34.85 C12.24 30.72, 21.46 26.4, 29.15 23.09 M29.15 23.09 C44.98 27.1, 59.8 31.85, 71.46 36.52 M29.15 23.09 C44.56 28.92, 60 32.36, 71.46 36.52 M71.46 36.52 C79.79 34.31, 90.52 28.78, 111.65 22.18 M71.46 36.52 C86.89 32.24, 102.1 26.63, 111.65 22.18 M111.65 22.18 C98.39 14.6, 85.46 9.55, 69.4 4.45 M111.65 22.18 C95.51 15.11, 80.53 9.09, 69.4 4.45 M69.4 4.45 C52.05 10.65, 37.37 18.19, 29.04 20.13 M69.4 4.45 C60.73 7.75, 52.56 10.22, 29.04 20.13 M29.04 20.13 C24.07 16.23, 16.04 12.52, 0 0 M29.04 20.13 C22.59 15.85, 17.42 12.08, 0 0 M0 0 C0 0, 0 0, 0 0 M0 0 C0 0, 0 0, 0 0" stroke="#1e1e1e" stroke-width="2" fill="none"></path></g></g><mask></mask><g stroke-linecap="round" transform="translate(155.30966558765795 107.53695248499616) rotate(0 4.395505937030066 3.9253613835926444)"><path d="M4.25 -0.11 C5.07 -0.18, 6.09 0.37, 6.82 0.94 C7.56 1.5, 8.46 2.52, 8.68 3.29 C8.9 4.06, 8.61 4.82, 8.14 5.53 C7.66 6.25, 6.69 7.18, 5.83 7.6 C4.96 8.01, 3.85 8.22, 2.95 8.01 C2.04 7.81, 0.93 7.15, 0.42 6.37 C-0.1 5.59, -0.3 4.22, -0.13 3.33 C0.05 2.43, 0.76 1.6, 1.46 0.99 C2.15 0.39, 3.6 -0.16, 4.03 -0.32 C4.46 -0.47, 3.99 -0.07, 4.04 0.06 M4.14 0.17 C4.98 0.09, 5.92 0.13, 6.72 0.61 C7.53 1.08, 8.77 2.15, 8.99 3.01 C9.21 3.87, 8.44 5, 8.04 5.77 C7.65 6.55, 7.45 7.31, 6.63 7.67 C5.82 8.03, 4.05 8.19, 3.14 7.94 C2.22 7.69, 1.69 6.86, 1.13 6.17 C0.57 5.49, -0.25 4.63, -0.22 3.84 C-0.19 3.06, 0.63 2.02, 1.32 1.45 C2.01 0.88, 3.46 0.58, 3.9 0.42 C4.34 0.25, 3.98 0.5, 3.96 0.47" stroke="none" stroke-width="0" fill="#ffffff"></path><path d="M5.18 0.17 C6.07 0.18, 7.17 0.34, 7.8 0.88 C8.44 1.41, 8.96 2.5, 8.98 3.37 C9.01 4.24, 8.53 5.37, 7.96 6.11 C7.4 6.85, 6.51 7.6, 5.59 7.8 C4.67 7.99, 3.28 7.7, 2.45 7.27 C1.61 6.84, 1.01 5.96, 0.59 5.21 C0.17 4.46, -0.32 3.55, -0.1 2.76 C0.13 1.97, 1.1 0.86, 1.93 0.44 C2.77 0.03, 4.42 0.32, 4.91 0.29 C5.4 0.25, 4.87 0.22, 4.86 0.22 M4.08 -0.13 C5.01 -0.24, 6.09 0.64, 6.84 1.09 C7.59 1.53, 8.39 1.73, 8.59 2.54 C8.78 3.35, 8.35 5.15, 8.02 5.94 C7.7 6.74, 7.36 6.97, 6.63 7.32 C5.89 7.66, 4.64 8.12, 3.63 8 C2.62 7.87, 1.22 7.34, 0.57 6.57 C-0.09 5.8, -0.45 4.19, -0.3 3.36 C-0.15 2.53, 0.68 2.11, 1.45 1.6 C2.22 1.09, 3.85 0.63, 4.29 0.3 C4.74 -0.03, 4.21 -0.42, 4.14 -0.38" stroke="#ffffff" stroke-width="4" fill="none"></path></g><g stroke-linecap="round" transform="translate(131.39733632037678 87.20464554335058) rotate(0 9.196313292481136 6.7432265704878205)"><path d="M8.88 0.24 C10.73 0.25, 13.59 1.13, 15.1 1.97 C16.62 2.82, 17.7 3.96, 17.97 5.33 C18.24 6.7, 17.69 8.83, 16.71 10.2 C15.72 11.57, 13.93 13.01, 12.08 13.56 C10.23 14.12, 7.46 14.12, 5.61 13.51 C3.77 12.9, 1.91 11.25, 1.01 9.91 C0.12 8.57, -0.08 6.94, 0.25 5.48 C0.58 4.01, 1.49 2.02, 2.99 1.11 C4.49 0.19, 8.02 0.12, 9.23 -0.02 C10.43 -0.17, 10.22 0.08, 10.22 0.22 M7.01 0.08 C8.85 -0.29, 12.29 0.29, 13.98 1.04 C15.66 1.78, 16.38 3.2, 17.12 4.55 C17.86 5.89, 18.96 7.72, 18.41 9.08 C17.87 10.45, 15.5 12.01, 13.83 12.72 C12.17 13.42, 10.39 13.51, 8.44 13.32 C6.48 13.13, 3.47 12.56, 2.09 11.57 C0.71 10.59, 0.2 8.8, 0.16 7.41 C0.13 6.02, 0.68 4.36, 1.86 3.24 C3.04 2.13, 6.39 1.25, 7.23 0.72 C8.08 0.19, 6.95 0.07, 6.93 0.03" stroke="none" stroke-width="0" fill="#ffffff"></path><path d="M8.21 -0.43 C10.02 -0.82, 12.69 -0.25, 14.32 0.56 C15.94 1.36, 17.34 2.96, 17.95 4.42 C18.56 5.88, 18.7 7.98, 17.97 9.31 C17.24 10.65, 15.28 11.81, 13.56 12.41 C11.84 13, 9.67 13.16, 7.67 12.9 C5.68 12.64, 2.86 11.94, 1.58 10.83 C0.3 9.71, -0.14 7.59, -0.02 6.23 C0.09 4.86, 0.89 3.66, 2.28 2.65 C3.67 1.64, 7.16 0.63, 8.3 0.18 C9.44 -0.28, 9.13 -0.13, 9.13 -0.09 M10.64 0.69 C12.46 0.78, 14.91 0.76, 16.11 1.85 C17.31 2.95, 17.71 5.77, 17.83 7.26 C17.95 8.75, 17.88 9.71, 16.81 10.79 C15.73 11.88, 13.46 13.38, 11.38 13.78 C9.3 14.17, 6.18 14, 4.31 13.16 C2.43 12.32, 0.7 10.07, 0.12 8.73 C-0.46 7.39, 0 6.37, 0.81 5.14 C1.63 3.91, 3.31 2.33, 5 1.37 C6.69 0.41, 10.03 -0.47, 10.93 -0.62 C11.84 -0.77, 10.59 0.12, 10.43 0.45" stroke="#ffffff" stroke-width="4" fill="none"></path></g><g stroke-linecap="round" transform="translate(153.09329233000608 58.07717232683672) rotate(0 11.49235159291402 8.830534116336025)"><path d="M10.52 0.44 C12.84 0.09, 15.88 0.34, 17.81 1.37 C19.75 2.41, 21.49 4.7, 22.13 6.65 C22.76 8.6, 22.66 11.29, 21.62 13.06 C20.58 14.83, 18.1 16.58, 15.88 17.26 C13.65 17.94, 10.56 17.72, 8.28 17.14 C5.99 16.56, 3.61 15.37, 2.19 13.77 C0.77 12.18, -0.36 9.44, -0.23 7.57 C-0.1 5.7, 1.08 3.8, 2.99 2.55 C4.9 1.3, 9.86 0.43, 11.23 0.06 C12.6 -0.31, 11.33 0.15, 11.23 0.33 M12.87 0.31 C15.15 0.4, 17.18 1.57, 18.92 2.89 C20.67 4.22, 23.07 6.39, 23.36 8.26 C23.65 10.12, 22.06 12.59, 20.68 14.08 C19.3 15.57, 17.43 16.7, 15.05 17.21 C12.68 17.72, 8.75 17.84, 6.46 17.15 C4.16 16.46, 2.33 14.69, 1.31 13.04 C0.29 11.4, -0.26 9.07, 0.33 7.27 C0.91 5.47, 2.86 3.48, 4.81 2.23 C6.76 0.98, 10.82 0.15, 12.03 -0.24 C13.23 -0.63, 12.1 -0.34, 12.03 -0.1" stroke="none" stroke-width="0" fill="#ffffff"></path><path d="M13.06 -0.39 C15.35 -0.25, 18.15 1.08, 19.83 2.53 C21.52 3.99, 23.03 6.48, 23.18 8.35 C23.34 10.23, 22.18 12.36, 20.74 13.79 C19.3 15.23, 16.99 16.49, 14.54 16.96 C12.08 17.44, 8.25 17.46, 5.99 16.64 C3.72 15.82, 1.87 13.7, 0.94 12.05 C0.01 10.4, -0.24 8.47, 0.42 6.73 C1.09 5, 2.78 2.78, 4.92 1.64 C7.06 0.49, 11.83 0.14, 13.25 -0.12 C14.67 -0.39, 13.4 -0.16, 13.43 0.04 M10.58 -0.47 C12.82 -0.72, 15.56 1.11, 17.65 2.26 C19.74 3.41, 22.35 4.63, 23.13 6.44 C23.91 8.24, 23.54 11.25, 22.33 13.08 C21.11 14.91, 18.23 16.78, 15.83 17.42 C13.42 18.07, 10.16 17.43, 7.9 16.94 C5.64 16.44, 3.51 15.86, 2.28 14.43 C1.06 13, 0.31 10.47, 0.55 8.37 C0.79 6.26, 2.08 3.15, 3.72 1.79 C5.36 0.44, 9.35 0.41, 10.41 0.26 C11.47 0.1, 10.07 0.65, 10.08 0.85" stroke="#ffffff" stroke-width="4" fill="none"></path></g></svg>