<svg version="1.1" xmlns="http://www.w3.org/2000/svg" viewBox="0 0 211.72858561819146 143.19940555441372" width="635" height="430">
  <!-- svg-source:excalidraw -->
  <g transform="translate(10 127.16636037505032) rotate(0 95.86429280909573 -3.51569570370566)" stroke="none"><path fill="#868e96" d="M -2.77,-3.37 Q -2.77,-3.37 1.46,-6.02 5.70,-8.66 10.33,-10.93 14.96,-13.20 22.04,-15.30 29.12,-17.39 34.58,-17.70 40.05,-18.00 44.80,-14.52 49.56,-11.04 51.83,-7.14 54.09,-3.23 59.76,-2.80 65.42,-2.38 70.18,-5.09 74.93,-7.79 80.14,-10.35 85.35,-12.91 89.84,-13.69 94.33,-14.48 99.58,-13.35 104.83,-12.22 107.95,-7.60 111.07,-2.97 116.07,-4.20 121.06,-5.42 124.78,-7.68 128.51,-9.94 134.07,-11.80 139.63,-13.66 144.19,-12.88 148.74,-12.10 150.29,-7.47 151.84,-2.85 156.17,-2.94 160.49,-3.04 164.77,-4.81 169.05,-6.57 173.24,-8.03 177.42,-9.49 181.45,-11.24 185.48,-12.99 185.96,-12.36 186.45,-11.73 186.68,-12.55 186.91,-13.37 187.38,-14.07 187.86,-14.77 188.54,-15.29 189.22,-15.80 190.02,-16.07 190.83,-16.34 191.68,-16.34 192.53,-16.34 193.33,-16.06 194.14,-15.79 194.81,-15.28 195.49,-14.76 195.96,-14.06 196.44,-13.35 196.67,-12.53 196.89,-11.71 196.85,-10.86 196.80,-10.02 196.48,-9.23 196.17,-8.44 195.61,-7.79 195.06,-7.14 194.33,-6.71 193.61,-6.27 192.78,-6.09 191.94,-5.91 191.10,-6.00 190.26,-6.09 189.48,-6.45 188.71,-6.81 188.10,-7.40 187.48,-7.98 187.08,-8.73 186.69,-9.48 186.55,-10.32 186.42,-11.16 186.56,-12.00 186.69,-12.84 187.09,-13.59 187.49,-14.34 188.11,-14.92 188.73,-15.51 189.50,-15.86 190.27,-16.22 191.12,-16.31 191.96,-16.40 192.79,-16.21 193.62,-16.03 194.35,-15.59 195.08,-15.15 195.63,-14.50 196.18,-13.85 196.49,-13.06 196.80,-12.27 196.85,-11.42 196.89,-10.58 196.89,-10.58 196.89,-10.58 191.99,-6.48 187.10,-2.39 181.91,-0.41 176.73,1.56 170.88,3.99 165.04,6.42 160.70,8.21 156.37,10.00 150.36,8.52 144.35,7.04 141.82,2.01 139.29,-3.02 134.88,-1.05 130.47,0.90 125.43,4.13 120.39,7.36 114.43,7.91 108.48,8.46 105.20,5.32 101.93,2.19 98.66,-0.92 95.39,-4.03 90.21,-2.75 85.03,-1.48 80.16,1.30 75.29,4.09 70.11,6.92 64.93,9.74 59.72,10.05 54.50,10.36 49.65,6.00 44.79,1.65 42.35,-2.46 39.92,-6.58 35.51,-6.83 31.10,-7.07 25.33,-5.42 19.56,-3.76 15.41,-1.75 11.25,0.25 7.01,2.89 2.77,5.53 2.20,5.80 1.63,6.07 1.01,6.19 0.38,6.32 -0.24,6.29 -0.87,6.26 -1.48,6.08 -2.09,5.90 -2.63,5.58 -3.18,5.26 -3.63,4.81 -4.09,4.37 -4.42,3.84 -4.76,3.30 -4.95,2.70 -5.15,2.09 -5.20,1.46 -5.24,0.83 -5.14,0.21 -5.03,-0.41 -4.78,-0.99 -4.53,-1.57 -4.14,-2.07 -3.76,-2.58 -3.27,-2.97 -2.77,-3.37 -2.77,-3.37 L -2.77,-3.37 Z"></path></g><g transform="translate(43.20050099829109 10.11446103976914) rotate(1.98863785647392 3.767841638363848 27.044268610129393)" stroke="none"><path fill="#ced4da" d="M 5.21,-0.67 Q 5.21,-0.67 6.29,7.71 7.37,16.11 8.91,26.81 10.45,37.52 10.04,42.68 9.62,47.84 9.41,48.66 9.19,49.48 8.73,50.19 8.26,50.90 7.59,51.43 6.92,51.95 6.12,52.23 5.32,52.52 4.47,52.53 3.62,52.54 2.81,52.28 2.00,52.02 1.32,51.52 0.63,51.01 0.15,50.32 -0.33,49.62 -0.57,48.81 -0.81,47.99 -0.78,47.14 -0.74,46.29 -0.44,45.50 -0.14,44.70 0.39,44.05 0.93,43.39 1.66,42.94 2.38,42.49 3.21,42.30 4.03,42.10 4.88,42.18 5.73,42.26 6.50,42.61 7.28,42.95 7.90,43.53 8.53,44.11 8.94,44.85 9.35,45.60 9.50,46.43 9.65,47.27 9.52,48.11 9.40,48.95 9.01,49.71 8.62,50.46 8.01,51.06 7.41,51.65 6.64,52.02 5.87,52.39 5.03,52.49 4.19,52.59 3.35,52.42 2.52,52.25 1.79,51.83 1.05,51.40 0.49,50.76 -0.06,50.12 -0.38,49.33 -0.71,48.55 -0.77,47.70 -0.83,46.85 -0.83,46.85 -0.83,46.86 -0.38,42.90 0.05,38.94 -1.49,28.20 -3.04,17.45 -4.12,9.06 -5.21,0.67 -5.21,0.03 -5.21,-0.59 -5.07,-1.20 -4.92,-1.82 -4.63,-2.38 -4.34,-2.95 -3.92,-3.42 -3.51,-3.90 -2.99,-4.26 -2.47,-4.63 -1.88,-4.86 -1.29,-5.09 -0.66,-5.17 -0.03,-5.25 0.58,-5.18 1.21,-5.10 1.81,-4.88 2.40,-4.66 2.93,-4.31 3.45,-3.95 3.87,-3.48 4.30,-3.01 4.59,-2.45 4.89,-1.89 5.05,-1.28 5.21,-0.67 5.21,-0.67 L 5.21,-0.67 Z"></path></g><g transform="translate(31.26525056164678 61.06622849877499) rotate(0 15.731326707132894 -23.971545458488208)" stroke="none"><path fill="#ced4da" d="M -2.96,-17.07 Q -2.96,-17.07 2.26,-20.64 7.49,-24.22 11.51,-27.08 15.52,-29.94 21.13,-34.06 26.73,-38.17 27.48,-38.58 28.22,-38.99 29.06,-39.14 29.89,-39.29 30.73,-39.17 31.57,-39.04 32.33,-38.66 33.09,-38.27 33.68,-37.66 34.28,-37.05 34.64,-36.29 35.01,-35.52 35.12,-34.68 35.22,-33.83 35.05,-33.00 34.88,-32.17 34.45,-31.43 34.03,-30.70 33.39,-30.14 32.75,-29.58 31.96,-29.25 31.18,-28.93 30.33,-28.87 29.48,-28.81 28.66,-29.02 27.84,-29.24 27.13,-29.70 26.42,-30.17 25.89,-30.84 25.37,-31.51 25.09,-32.31 24.80,-33.11 24.79,-33.96 24.78,-34.81 25.04,-35.62 25.30,-36.43 25.80,-37.11 26.30,-37.80 27.00,-38.29 27.70,-38.77 28.51,-39.01 29.33,-39.25 30.18,-39.22 31.03,-39.19 31.82,-38.88 32.61,-38.58 33.27,-38.04 33.93,-37.50 34.37,-36.78 34.82,-36.06 35.02,-35.23 35.21,-34.40 35.13,-33.55 35.06,-32.71 34.71,-31.93 34.36,-31.16 33.79,-30.53 33.21,-29.90 33.21,-29.90 33.22,-29.91 27.42,-25.65 21.62,-21.39 17.52,-18.46 13.42,-15.54 8.19,-11.97 2.96,-8.39 2.40,-8.10 1.84,-7.81 1.22,-7.66 0.60,-7.51 -0.02,-7.51 -0.65,-7.52 -1.27,-7.67 -1.88,-7.83 -2.44,-8.12 -3.00,-8.42 -3.47,-8.84 -3.94,-9.26 -4.30,-9.79 -4.66,-10.31 -4.88,-10.90 -5.10,-11.50 -5.17,-12.13 -5.25,-12.75 -5.17,-13.38 -5.09,-14.01 -4.86,-14.60 -4.64,-15.19 -4.27,-15.71 -3.91,-16.23 -3.43,-16.65 -2.96,-17.07 -2.96,-17.07 L -2.96,-17.07 Z"></path></g><g transform="translate(30.862878495575842 26.20475135546758) rotate(355.74616356388077 15.38458797762587 12.762708673763541)" stroke="none"><path fill="#ced4da" d="M 2.96,-4.10 Q 2.96,-4.10 10.28,1.73 17.60,7.57 22.73,11.52 27.85,15.48 28.43,16.10 29.01,16.72 29.36,17.50 29.71,18.27 29.80,19.11 29.88,19.96 29.69,20.79 29.51,21.62 29.06,22.34 28.62,23.07 27.97,23.61 27.32,24.16 26.52,24.47 25.73,24.78 24.88,24.82 24.03,24.85 23.22,24.62 22.40,24.39 21.70,23.91 21.00,23.42 20.49,22.74 19.98,22.06 19.72,21.26 19.45,20.45 19.46,19.60 19.46,18.75 19.74,17.94 20.02,17.14 20.54,16.47 21.06,15.80 21.76,15.32 22.47,14.85 23.29,14.63 24.11,14.41 24.96,14.46 25.81,14.52 26.60,14.84 27.38,15.16 28.03,15.71 28.67,16.27 29.10,17.00 29.54,17.73 29.71,18.56 29.89,19.39 29.79,20.24 29.69,21.08 29.33,21.85 28.97,22.62 28.38,23.23 27.79,23.84 27.03,24.24 26.28,24.63 25.44,24.76 24.60,24.89 23.76,24.75 22.92,24.60 22.18,24.20 21.43,23.79 21.43,23.79 21.43,23.80 16.24,19.79 11.05,15.78 3.73,9.94 -3.58,4.10 -4.03,3.65 -4.47,3.20 -4.79,2.65 -5.12,2.11 -5.30,1.50 -5.48,0.90 -5.52,0.26 -5.55,-0.36 -5.43,-0.98 -5.31,-1.60 -5.05,-2.18 -4.78,-2.75 -4.39,-3.25 -3.99,-3.74 -3.49,-4.13 -2.99,-4.51 -2.41,-4.77 -1.83,-5.02 -1.20,-5.13 -0.58,-5.24 0.04,-5.20 0.67,-5.15 1.28,-4.96 1.88,-4.77 2.42,-4.43 2.96,-4.10 2.96,-4.10 L 2.96,-4.10 Z"></path></g><g transform="translate(86.59032758543844 40.60617281132522) rotate(1.98863785647392 1.7705837808656497 12.708640108150007)" stroke="none"><path fill="#ced4da" d="M 2.60,-0.33 Q 2.60,-0.33 3.11,3.60 3.62,7.55 4.34,12.58 5.06,17.61 4.87,20.05 4.68,22.49 4.57,22.90 4.46,23.31 4.23,23.67 4.00,24.02 3.66,24.29 3.33,24.55 2.93,24.69 2.53,24.83 2.10,24.84 1.68,24.84 1.27,24.71 0.87,24.58 0.52,24.33 0.18,24.08 -0.05,23.73 -0.29,23.38 -0.41,22.98 -0.53,22.57 -0.52,22.14 -0.50,21.72 -0.35,21.32 -0.20,20.93 0.06,20.60 0.33,20.27 0.69,20.04 1.05,19.82 1.47,19.72 1.88,19.63 2.30,19.67 2.73,19.70 3.12,19.88 3.50,20.05 3.82,20.34 4.13,20.63 4.33,21.00 4.54,21.37 4.61,21.79 4.69,22.21 4.63,22.63 4.56,23.05 4.37,23.43 4.18,23.80 3.87,24.10 3.57,24.40 3.19,24.58 2.80,24.77 2.38,24.82 1.96,24.87 1.54,24.79 1.13,24.70 0.76,24.49 0.39,24.27 0.11,23.95 -0.16,23.63 -0.32,23.24 -0.48,22.85 -0.51,22.42 -0.54,22.00 -0.54,22.00 -0.54,22.00 -0.33,20.16 -0.13,18.32 -0.85,13.27 -1.58,8.22 -2.09,4.27 -2.60,0.33 -2.60,0.01 -2.60,-0.29 -2.53,-0.60 -2.46,-0.91 -2.31,-1.19 -2.17,-1.47 -1.96,-1.71 -1.75,-1.95 -1.49,-2.13 -1.23,-2.31 -0.94,-2.43 -0.64,-2.54 -0.33,-2.58 -0.01,-2.62 0.29,-2.59 0.60,-2.55 0.90,-2.44 1.20,-2.33 1.46,-2.15 1.72,-1.97 1.93,-1.74 2.15,-1.50 2.29,-1.22 2.44,-0.94 2.52,-0.64 2.60,-0.33 2.60,-0.33 L 2.60,-0.33 Z"></path></g><g transform="translate(80.98171584642 64.5494224826482) rotate(0 7.392463535501179 -11.264706339811255)" stroke="none"><path fill="#ced4da" d="M -1.48,-8.15 Q -1.48,-8.15 0.97,-9.83 3.43,-11.51 5.31,-12.85 7.20,-14.20 9.83,-16.13 12.46,-18.06 12.83,-18.26 13.21,-18.47 13.62,-18.54 14.04,-18.62 14.46,-18.56 14.88,-18.49 15.26,-18.30 15.64,-18.11 15.94,-17.80 16.23,-17.50 16.42,-17.12 16.60,-16.73 16.65,-16.31 16.71,-15.89 16.62,-15.47 16.54,-15.06 16.32,-14.69 16.11,-14.32 15.79,-14.04 15.47,-13.76 15.08,-13.60 14.69,-13.44 14.26,-13.41 13.84,-13.38 13.43,-13.49 13.02,-13.59 12.66,-13.83 12.30,-14.06 12.04,-14.39 11.78,-14.73 11.64,-15.13 11.50,-15.53 11.49,-15.95 11.48,-16.38 11.61,-16.78 11.74,-17.19 12.00,-17.53 12.25,-17.87 12.60,-18.12 12.94,-18.36 13.35,-18.48 13.76,-18.60 14.18,-18.58 14.61,-18.57 15.01,-18.41 15.40,-18.26 15.73,-17.99 16.06,-17.72 16.28,-17.36 16.51,-17.00 16.61,-16.59 16.70,-16.17 16.66,-15.75 16.62,-15.33 16.45,-14.94 16.28,-14.55 15.99,-14.24 15.70,-13.93 15.70,-13.93 15.70,-13.93 12.98,-11.92 10.25,-9.92 8.32,-8.54 6.39,-7.17 3.93,-5.49 1.48,-3.81 1.20,-3.67 0.92,-3.52 0.61,-3.44 0.30,-3.37 -0.01,-3.37 -0.32,-3.37 -0.63,-3.45 -0.94,-3.53 -1.22,-3.68 -1.50,-3.82 -1.73,-4.04 -1.97,-4.25 -2.15,-4.51 -2.33,-4.77 -2.44,-5.07 -2.55,-5.36 -2.58,-5.68 -2.62,-5.99 -2.58,-6.31 -2.54,-6.62 -2.43,-6.92 -2.32,-7.21 -2.13,-7.47 -1.95,-7.73 -1.71,-7.94 -1.48,-8.15 -1.48,-8.15 L -1.48,-8.15 Z"></path></g><g transform="translate(80.79263320377208 48.16732049129155) rotate(355.74616356388077 7.229524105029213 5.99745083434334)" stroke="none"><path fill="#ced4da" d="M 1.49,-2.05 Q 1.49,-2.05 4.93,0.69 8.37,3.43 10.77,5.29 13.18,7.15 13.47,7.46 13.76,7.77 13.94,8.15 14.11,8.54 14.16,8.96 14.20,9.39 14.10,9.80 14.01,10.22 13.79,10.58 13.57,10.94 13.24,11.21 12.91,11.49 12.52,11.64 12.12,11.79 11.70,11.81 11.27,11.83 10.86,11.72 10.46,11.60 10.11,11.36 9.76,11.12 9.50,10.78 9.25,10.44 9.11,10.03 8.98,9.63 8.98,9.21 8.99,8.78 9.13,8.38 9.26,7.98 9.52,7.64 9.78,7.30 10.14,7.07 10.49,6.83 10.90,6.72 11.31,6.61 11.74,6.64 12.16,6.66 12.55,6.82 12.95,6.98 13.27,7.26 13.59,7.54 13.81,7.91 14.02,8.27 14.11,8.69 14.20,9.10 14.15,9.52 14.10,9.95 13.92,10.33 13.74,10.72 13.44,11.02 13.15,11.33 12.77,11.52 12.40,11.72 11.98,11.79 11.56,11.85 11.14,11.78 10.72,11.71 10.34,11.51 9.97,11.30 9.97,11.30 9.97,11.30 7.53,9.42 5.09,7.54 1.65,4.79 -1.78,2.05 -2.00,1.82 -2.22,1.60 -2.39,1.32 -2.55,1.05 -2.64,0.75 -2.73,0.45 -2.75,0.13 -2.76,-0.18 -2.70,-0.49 -2.64,-0.80 -2.51,-1.09 -2.38,-1.37 -2.18,-1.62 -1.98,-1.87 -1.73,-2.06 -1.48,-2.25 -1.19,-2.38 -0.90,-2.51 -0.59,-2.56 -0.28,-2.62 0.03,-2.60 0.34,-2.57 0.65,-2.48 0.95,-2.38 1.22,-2.21 1.49,-2.05 1.49,-2.05 L 1.49,-2.05 Z"></path></g></svg>