<svg version="1.1" xmlns="http://www.w3.org/2000/svg" viewBox="0 0 162.28316360351346 177.7697991451996" width="486.8494908105404" height="533.3093974355988">
  <!-- svg-source:excalidraw -->
  
  <defs>
    <style class="style-fonts">
      @font-face {
        font-family: "Virgil";
        src: url("https://excalidraw.com/Virgil.woff2");
      }
      @font-face {
        font-family: "Cascadia";
        src: url("https://excalidraw.com/Cascadia.woff2");
      }
      @font-face {
        font-family: "Assistant";
        src: url("https://excalidraw.com/Assistant-Regular.woff2");
      }
    </style>
    
  </defs>
  <g stroke-linecap="round" transform="translate(10 10) rotate(0 71.14158180175673 78.8848995725998)"><path d="M0 0 C30.61 0, 61.22 0, 142.28 0 M0 0 C52.82 0, 105.63 0, 142.28 0 M142.28 0 C142.28 43.82, 142.28 87.65, 142.28 157.77 M142.28 0 C142.28 57.84, 142.28 115.67, 142.28 157.77 M142.28 157.77 C101.59 157.77, 60.89 157.77, 0 157.77 M142.28 157.77 C105.11 157.77, 67.95 157.77, 0 157.77 M0 157.77 C0 101.78, 0 45.8, 0 0 M0 157.77 C0 111.64, 0 65.51, 0 0" stroke="transparent" stroke-width="4" fill="none"></path></g><g stroke-linecap="round" transform="translate(106.55695798128 32.71658885421925) rotate(0 13.5 11.5)"><path d="M16.72 0.42 C19.37 0.76, 22.07 2.05, 23.74 3.96 C25.41 5.88, 26.79 9.32, 26.75 11.92 C26.7 14.53, 25.33 17.7, 23.46 19.57 C21.59 21.45, 18.31 22.92, 15.52 23.17 C12.73 23.42, 9.26 22.43, 6.72 21.06 C4.18 19.69, 1.24 17.28, 0.27 14.93 C-0.7 12.57, -0.33 9.12, 0.87 6.93 C2.07 4.74, 4.8 2.84, 7.47 1.81 C10.14 0.78, 15.19 1, 16.89 0.75 C18.6 0.5, 17.79 0.14, 17.69 0.33 M12.62 -0.09 C15.36 -0.11, 19.22 1.35, 21.53 3.02 C23.85 4.69, 25.81 7.51, 26.53 9.92 C27.26 12.34, 27.34 15.38, 25.88 17.53 C24.42 19.68, 20.46 21.89, 17.76 22.82 C15.06 23.75, 12.2 24.04, 9.68 23.11 C7.15 22.18, 4.19 19.41, 2.62 17.24 C1.04 15.07, -0.16 12.53, 0.23 10.1 C0.63 7.67, 2.7 4.21, 4.99 2.65 C7.27 1.09, 12.57 1.04, 13.96 0.73 C15.34 0.42, 13.29 0.61, 13.3 0.8" stroke="none" stroke-width="0" fill="#1971c2"></path><path d="M11.88 0.18 C14.6 -0.19, 19.08 0.51, 21.52 1.87 C23.95 3.22, 25.77 5.83, 26.48 8.3 C27.19 10.78, 26.97 14.52, 25.79 16.72 C24.61 18.91, 22.03 20.55, 19.41 21.48 C16.78 22.4, 12.81 22.88, 10.05 22.25 C7.29 21.63, 4.47 19.73, 2.85 17.72 C1.24 15.72, 0.19 12.63, 0.36 10.21 C0.54 7.78, 1.9 4.87, 3.91 3.16 C5.92 1.45, 11.02 0.46, 12.43 -0.04 C13.85 -0.54, 12.39 -0.11, 12.4 0.17 M14.36 -0.05 C17.3 -0.07, 21.17 1.09, 23.38 2.87 C25.58 4.65, 27.28 8.21, 27.6 10.61 C27.92 13.02, 26.98 15.41, 25.29 17.3 C23.6 19.19, 20.32 21.05, 17.48 21.96 C14.63 22.88, 10.77 23.67, 8.23 22.8 C5.68 21.93, 3.52 19.14, 2.23 16.74 C0.94 14.35, -0.07 10.96, 0.49 8.44 C1.04 5.92, 3.22 2.95, 5.53 1.63 C7.85 0.31, 12.84 0.61, 14.37 0.5 C15.9 0.4, 14.7 0.84, 14.72 0.98" stroke="#1971c2" stroke-width="4" fill="none"></path></g><g stroke-linecap="round" transform="translate(97.05695798128 63.21658885421925) rotate(0 8 6.5)"><path d="M5.91 -0.27 C7.36 -0.65, 9.89 0.02, 11.45 0.8 C13.02 1.59, 14.58 3.1, 15.29 4.43 C16 5.75, 16.16 7.53, 15.72 8.75 C15.27 9.97, 14.15 11.1, 12.62 11.77 C11.09 12.44, 8.31 12.97, 6.54 12.78 C4.77 12.58, 3.03 11.51, 2 10.58 C0.97 9.66, 0.4 8.5, 0.36 7.22 C0.32 5.95, 0.63 4.19, 1.76 2.94 C2.89 1.69, 6.28 0.12, 7.15 -0.27 C8.02 -0.66, 7.06 0.48, 7 0.6 M6.03 0.56 C7.68 0.35, 10.01 0.75, 11.68 1.43 C13.35 2.11, 15.51 3.34, 16.06 4.63 C16.61 5.93, 15.55 7.85, 14.99 9.21 C14.43 10.58, 13.95 12.24, 12.68 12.83 C11.42 13.41, 9.2 13.02, 7.42 12.74 C5.64 12.46, 3.19 12.21, 2.01 11.16 C0.83 10.11, 0.25 7.77, 0.33 6.43 C0.41 5.09, 1.45 4.08, 2.48 3.12 C3.51 2.16, 5.72 1.04, 6.52 0.68 C7.32 0.32, 7.19 0.86, 7.26 0.95" stroke="none" stroke-width="0" fill="#ffffff"></path><path d="M7.54 -0.11 C9.2 -0.37, 11.08 0.12, 12.44 1 C13.8 1.87, 15.2 3.87, 15.69 5.16 C16.18 6.45, 16.1 7.61, 15.39 8.74 C14.68 9.87, 12.93 11.35, 11.43 11.96 C9.93 12.56, 8 12.68, 6.41 12.34 C4.81 12, 2.91 11.02, 1.86 9.92 C0.8 8.82, 0.02 7.1, 0.07 5.76 C0.12 4.43, 0.99 2.89, 2.15 1.92 C3.32 0.95, 6.13 0.16, 7.07 -0.06 C8 -0.29, 7.65 0.48, 7.75 0.56 M7.97 -0.13 C9.66 -0.23, 11.88 0.99, 13.24 1.74 C14.6 2.49, 15.79 3.21, 16.12 4.37 C16.45 5.52, 16.01 7.24, 15.21 8.68 C14.42 10.13, 12.77 12.37, 11.36 13.05 C9.94 13.72, 8.33 13.29, 6.71 12.74 C5.09 12.18, 2.73 10.96, 1.65 9.72 C0.58 8.47, 0.11 6.47, 0.27 5.26 C0.42 4.05, 1.29 3.19, 2.56 2.44 C3.82 1.69, 7 1.12, 7.85 0.77 C8.71 0.42, 7.82 0.33, 7.7 0.34" stroke="#ffffff" stroke-width="4" fill="none"></path></g><g stroke-linecap="round"><g transform="translate(33.786101562087424 130.2585046230231) rotate(0 26.130965888116407 3.4404499371438533)" fill-rule="evenodd"><path d="M-0.81 0.22 L-0.82 11.18 L10.46 3.9 L32.94 14.62 L53.87 4.12 L33.5 -5.28 L12.22 3.56 L-2.41 -6.96" stroke="none" stroke-width="0" fill="#1e1e1e" fill-rule="evenodd"></path><path d="M0 0 C-1.46 3.64, -0.37 6.27, -2.81 12.76 M0 0 C-0.25 3.86, -2.2 7.4, -2.81 12.76 M-2.81 12.76 C1.32 10.03, 3.63 8.82, 11.33 5.72 M-2.81 12.76 C1.09 10.67, 5.89 9.04, 11.33 5.72 M11.33 5.72 C16.75 9.63, 22.12 11.54, 33.93 13.75 M11.33 5.72 C19.88 8.22, 28.44 12.85, 33.93 13.75 M33.93 13.75 C40.91 10.97, 48.91 7.66, 55.4 5.17 M33.93 13.75 C42.32 10.65, 49.38 7.44, 55.4 5.17 M55.4 5.17 C48.61 1.64, 36.68 -4.83, 32.83 -5.44 M55.4 5.17 C50.55 2.65, 44.66 0.46, 32.83 -5.44 M32.83 -5.44 C26.85 -4.31, 23.09 1.09, 11.27 3.94 M32.83 -5.44 C25.28 -2.51, 19.94 0.71, 11.27 3.94 M11.27 3.94 C7.65 0.07, 5.47 -1.94, -3.14 -6.87 M11.27 3.94 C5.02 0.6, 0.92 -3.32, -3.14 -6.87 M-3.14 -6.87 C-1.51 -3.84, -0.85 -0.8, 0 0 M-3.14 -6.87 C-1.52 -3.81, -0.47 -1.21, 0 0" stroke="#1e1e1e" stroke-width="2" fill="none"></path></g></g><mask></mask><g stroke-linecap="round" transform="translate(106.98115775512997 130.3500816355338) rotate(0 0.8790701468478801 1.409893023057407)"><path d="M0.69 0.29 C0.9 0.25, 1.2 0.32, 1.41 0.41 C1.61 0.5, 1.93 0.59, 1.93 0.83 C1.94 1.07, 1.54 1.55, 1.42 1.82 C1.31 2.1, 1.31 2.24, 1.23 2.45 C1.15 2.66, 1.1 3.07, 0.93 3.09 C0.77 3.1, 0.36 2.88, 0.26 2.55 C0.15 2.22, 0.32 1.42, 0.3 1.12 C0.28 0.82, 0.06 0.97, 0.13 0.75 C0.21 0.54, 0.68 -0.02, 0.75 -0.18 C0.81 -0.35, 0.53 -0.28, 0.53 -0.26 M1.35 0.3 C1.49 0.31, 1 0.56, 1.13 0.81 C1.27 1.06, 1.99 1.58, 2.15 1.8 C2.3 2.02, 2.22 1.91, 2.06 2.12 C1.89 2.33, 1.36 2.97, 1.14 3.05 C0.92 3.13, 0.82 2.67, 0.72 2.57 C0.62 2.48, 0.64 2.67, 0.53 2.48 C0.42 2.28, -0.01 1.7, 0.05 1.41 C0.1 1.11, 0.68 0.9, 0.87 0.72 C1.06 0.53, 1.21 0.41, 1.19 0.31 C1.17 0.21, 0.72 0.18, 0.76 0.09" stroke="none" stroke-width="0" fill="#ffffff"></path><path d="M0.84 0.31 C1.03 0.25, 1.32 -0.07, 1.46 0.02 C1.6 0.11, 1.61 0.56, 1.68 0.84 C1.75 1.13, 1.92 1.48, 1.88 1.74 C1.84 2.01, 1.64 2.3, 1.44 2.44 C1.23 2.57, 0.88 2.61, 0.66 2.56 C0.43 2.51, 0.24 2.36, 0.08 2.13 C-0.07 1.9, -0.31 1.43, -0.3 1.18 C-0.28 0.94, -0.01 0.89, 0.19 0.66 C0.39 0.44, 0.83 -0.08, 0.92 -0.17 C1.02 -0.26, 0.77 0.03, 0.76 0.14 M1.12 -0.26 C1.21 -0.41, 1.28 -0.34, 1.37 -0.04 C1.47 0.27, 1.55 1.22, 1.68 1.57 C1.8 1.91, 2.19 1.9, 2.13 2.03 C2.07 2.16, 1.54 2.3, 1.32 2.34 C1.09 2.38, 0.94 2.24, 0.77 2.26 C0.6 2.28, 0.37 2.58, 0.31 2.49 C0.26 2.39, 0.38 2.04, 0.43 1.71 C0.47 1.37, 0.54 0.75, 0.6 0.48 C0.65 0.22, 0.65 0.16, 0.76 0.09 C0.87 0.02, 1.32 -0.01, 1.26 0.08" stroke="#ffffff" stroke-width="1" fill="none"></path></g><g stroke-linecap="round" transform="translate(107.54863686531462 119.7286864027867) rotate(0 0.33566706903729937 0.6456645695216707)"><path d="M0.4 0.19 C0.52 0.12, 0.78 -0.02, 0.78 0.02 C0.77 0.06, 0.43 0.31, 0.4 0.44 C0.36 0.56, 0.51 0.59, 0.56 0.78 C0.61 0.97, 0.73 1.43, 0.68 1.55 C0.63 1.68, 0.34 1.66, 0.28 1.52 C0.23 1.38, 0.41 0.84, 0.35 0.72 C0.28 0.6, -0.04 0.93, -0.08 0.81 C-0.12 0.68, 0.07 0.13, 0.1 -0.05 C0.13 -0.24, 0.06 -0.27, 0.1 -0.29 C0.13 -0.32, 0.24 -0.24, 0.31 -0.2 M0.01 0.39 C0.07 0.43, 0.79 0.69, 0.98 0.71 C1.16 0.73, 1.19 0.4, 1.14 0.5 C1.08 0.61, 0.73 1.2, 0.64 1.32 C0.56 1.43, 0.63 1.1, 0.63 1.17 C0.63 1.23, 0.73 1.69, 0.63 1.7 C0.53 1.72, 0.06 1.4, 0.04 1.27 C0.02 1.14, 0.45 1.07, 0.5 0.92 C0.56 0.78, 0.43 0.55, 0.38 0.4 C0.32 0.26, 0.09 0.19, 0.18 0.06 C0.26 -0.07, 0.88 -0.3, 0.88 -0.37" stroke="none" stroke-width="0" fill="#ffffff"></path><path d="M0.38 -0.26 C0.43 -0.37, 0.4 -0.2, 0.48 -0.12 C0.57 -0.04, 0.83 0.07, 0.89 0.2 C0.95 0.33, 0.91 0.53, 0.85 0.68 C0.78 0.82, 0.61 0.96, 0.5 1.05 C0.39 1.14, 0.3 1.23, 0.18 1.21 C0.05 1.2, -0.21 1, -0.25 0.94 C-0.3 0.88, -0.16 1, -0.09 0.85 C-0.02 0.69, 0.12 0.12, 0.17 0 C0.22 -0.13, 0.18 0.05, 0.2 0.11 C0.22 0.17, 0.3 0.3, 0.31 0.34 M0.33 -0.33 C0.35 -0.2, 0.39 0.51, 0.52 0.66 C0.66 0.82, 1.11 0.58, 1.14 0.58 C1.17 0.58, 0.81 0.63, 0.71 0.67 C0.61 0.7, 0.63 0.64, 0.57 0.78 C0.51 0.93, 0.38 1.45, 0.36 1.55 C0.34 1.65, 0.45 1.55, 0.44 1.38 C0.44 1.22, 0.39 0.77, 0.32 0.57 C0.26 0.37, -0.01 0.28, 0.07 0.19 C0.15 0.1, 0.81 0.01, 0.79 0.05 C0.77 0.1, -0.02 0.54, -0.05 0.48" stroke="#ffffff" stroke-width="4" fill="none"></path></g><g stroke-linecap="round" transform="translate(118.38469878193428 106.32713707864309) rotate(0 0.001191726189063047 1.386753919018247)"><path d="M0.22 -0.13 C0.16 -0.16, -0.22 0.13, -0.27 0.34 C-0.32 0.55, -0.14 0.77, -0.06 1.13 C0.03 1.5, 0.22 2.22, 0.24 2.53 C0.26 2.85, 0.06 3.04, 0.07 3.01 C0.08 2.99, 0.33 2.51, 0.3 2.38 C0.28 2.24, -0.04 2.46, -0.09 2.2 C-0.14 1.93, 0.01 1.15, -0.02 0.77 C-0.05 0.39, -0.25 0.08, -0.25 -0.08 C-0.25 -0.24, -0.12 -0.2, -0.04 -0.19 C0.04 -0.19, 0.15 -0.15, 0.2 -0.05 M0.39 0.5 C0.53 0.43, 0.52 0.13, 0.47 0.3 C0.41 0.48, 0.09 1.26, 0.05 1.56 C0.01 1.85, 0.16 1.81, 0.22 2.09 C0.29 2.36, 0.49 3.06, 0.45 3.22 C0.42 3.37, 0.01 3.15, 0.01 3.02 C0.02 2.88, 0.45 2.71, 0.49 2.43 C0.52 2.15, 0.34 1.67, 0.22 1.32 C0.11 0.96, -0.25 0.58, -0.2 0.3 C-0.16 0.01, 0.5 -0.27, 0.5 -0.39 C0.5 -0.51, -0.09 -0.54, -0.22 -0.42" stroke="none" stroke-width="0" fill="#ffffff"></path><path d="M-0.06 -0.24 C-0.03 -0.22, 0.18 -0.06, 0.22 0.16 C0.27 0.38, 0.25 0.77, 0.22 1.09 C0.19 1.4, 0.08 1.79, 0.04 2.06 C-0.01 2.33, 0 2.62, -0.05 2.7 C-0.11 2.78, -0.3 2.64, -0.3 2.55 C-0.31 2.46, -0.15 2.47, -0.09 2.18 C-0.03 1.88, 0.07 1.08, 0.06 0.77 C0.05 0.46, -0.11 0.38, -0.13 0.31 C-0.14 0.24, -0.04 0.34, -0.03 0.35 C-0.02 0.36, -0.12 0.37, -0.07 0.37 M-0.06 0.46 C0.02 0.47, 0.44 0.18, 0.47 0.21 C0.5 0.25, 0.16 0.44, 0.11 0.65 C0.06 0.87, 0.15 1.1, 0.16 1.48 C0.17 1.87, 0.14 2.68, 0.18 2.97 C0.22 3.26, 0.4 3.33, 0.42 3.22 C0.44 3.11, 0.39 2.61, 0.31 2.3 C0.22 1.99, -0.11 1.66, -0.09 1.35 C-0.07 1.05, 0.47 0.6, 0.41 0.45 C0.35 0.31, -0.39 0.6, -0.43 0.47 C-0.47 0.34, 0.18 -0.24, 0.18 -0.33" stroke="#ffffff" stroke-width="4" fill="none"></path></g><g stroke-linecap="round" transform="translate(118.45539092169201 95.70574184589555) rotate(0 0.33566706903729937 0.6456645695216707)"><path d="M0.1 -0.11 C0.12 -0.11, 0.38 -0.18, 0.51 -0.01 C0.65 0.16, 0.88 0.68, 0.91 0.89 C0.93 1.11, 0.71 1.27, 0.68 1.29 C0.65 1.31, 0.82 1, 0.72 1.03 C0.63 1.07, 0.22 1.57, 0.1 1.51 C-0.02 1.46, 0.07 0.94, 0.01 0.72 C-0.05 0.5, -0.25 0.32, -0.24 0.18 C-0.22 0.04, -0.03 -0.05, 0.1 -0.1 C0.24 -0.14, 0.48 -0.16, 0.58 -0.09 C0.67 -0.03, 0.66 0.29, 0.65 0.28 M0.84 -0.11 C0.85 -0.14, 0.62 0.38, 0.63 0.48 C0.63 0.59, 0.82 0.33, 0.89 0.51 C0.96 0.68, 1.13 1.33, 1.05 1.52 C0.97 1.72, 0.49 1.63, 0.42 1.65 C0.36 1.68, 0.7 1.77, 0.67 1.69 C0.64 1.62, 0.39 1.39, 0.25 1.2 C0.11 1, -0.25 0.76, -0.19 0.51 C-0.12 0.26, 0.59 -0.13, 0.65 -0.29 C0.71 -0.45, 0.25 -0.54, 0.16 -0.45 C0.07 -0.36, 0.16 0.19, 0.13 0.23" stroke="none" stroke-width="0" fill="#ffffff"></path><path d="M0.51 -0.31 C0.63 -0.33, 0.7 -0.26, 0.73 -0.17 C0.76 -0.08, 0.72 0.09, 0.69 0.26 C0.67 0.43, 0.67 0.69, 0.59 0.85 C0.51 1, 0.26 1.05, 0.19 1.17 C0.12 1.29, 0.18 1.61, 0.17 1.56 C0.16 1.51, 0.18 1.01, 0.13 0.87 C0.08 0.73, -0.12 0.79, -0.13 0.73 C-0.14 0.68, 0 0.61, 0.06 0.54 C0.12 0.47, 0.14 0.38, 0.23 0.32 C0.32 0.26, 0.59 0.24, 0.58 0.2 M0.77 -0.03 C0.87 -0.19, 0.62 -0.27, 0.63 -0.27 C0.64 -0.27, 0.79 -0.28, 0.82 -0.03 C0.85 0.22, 0.81 0.94, 0.82 1.23 C0.84 1.52, 0.95 1.69, 0.9 1.72 C0.86 1.74, 0.72 1.49, 0.56 1.39 C0.41 1.3, 0 1.24, -0.02 1.12 C-0.05 1, 0.46 0.73, 0.41 0.65 C0.36 0.58, -0.35 0.83, -0.34 0.66 C-0.33 0.49, 0.44 -0.21, 0.48 -0.36 C0.51 -0.51, -0.1 -0.28, -0.12 -0.23" stroke="#ffffff" stroke-width="4" fill="none"></path></g></svg>