<svg version="1.1" xmlns="http://www.w3.org/2000/svg" viewBox="0 0 248 309" width="744" height="927">
  <!-- svg-source:excalidraw -->
  
  <defs>
    <style class="style-fonts">
      @font-face {
        font-family: "Virgil";
        src: url("https://excalidraw.com/Virgil.woff2");
      }
      @font-face {
        font-family: "Cascadia";
        src: url("https://excalidraw.com/Cascadia.woff2");
      }
      @font-face {
        font-family: "Assistant";
        src: url("https://excalidraw.com/Assistant-Regular.woff2");
      }
    </style>
    
  </defs>
  <g stroke-linecap="round" transform="translate(10 10) rotate(0 114 144.5)"><path d="M0 0 C66.52 0, 133.03 0, 228 0 M0 0 C62.55 0, 125.09 0, 228 0 M228 0 C228 68.01, 228 136.02, 228 289 M228 0 C228 64.7, 228 129.4, 228 289 M228 289 C165.43 289, 102.86 289, 0 289 M228 289 C171.62 289, 115.24 289, 0 289 M0 289 C0 200.03, 0 111.06, 0 0 M0 289 C0 229.06, 0 169.13, 0 0" stroke="transparent" stroke-width="4" fill="none"></path></g><g stroke-linecap="round" transform="translate(168 146.5) rotate(0 13.5 11.5)"><path d="M16.84 -0.16 C19.53 0.37, 22.22 2.91, 23.98 4.96 C25.75 7.01, 27.5 9.71, 27.43 12.14 C27.37 14.56, 25.65 17.79, 23.59 19.51 C21.54 21.23, 18.03 22.1, 15.1 22.45 C12.18 22.79, 8.54 22.81, 6.06 21.59 C3.59 20.36, 1.06 17.58, 0.25 15.1 C-0.57 12.63, -0.11 9.11, 1.17 6.74 C2.45 4.38, 5.3 1.95, 7.92 0.93 C10.54 -0.09, 15.28 0.6, 16.91 0.63 C18.54 0.66, 17.7 0.88, 17.71 1.1 M16.14 0.47 C18.81 0.92, 21.56 2.83, 23.32 4.56 C25.09 6.3, 26.66 8.38, 26.73 10.88 C26.81 13.39, 25.72 17.58, 23.79 19.58 C21.85 21.58, 18.06 22.52, 15.11 22.89 C12.15 23.25, 8.37 23.11, 6.04 21.77 C3.71 20.43, 1.92 17.29, 1.12 14.86 C0.32 12.43, 0.41 9.43, 1.24 7.18 C2.08 4.93, 3.58 2.48, 6.11 1.37 C8.65 0.26, 14.81 0.72, 16.43 0.51 C18.05 0.31, 15.92 0.08, 15.86 0.15" stroke="none" stroke-width="0" fill="#1971c2"></path><path d="M14.7 0.04 C17.43 0.24, 20.96 2.05, 23.05 3.8 C25.14 5.54, 27.08 8.05, 27.24 10.51 C27.41 12.97, 25.82 16.46, 24.04 18.57 C22.27 20.68, 19.29 22.69, 16.58 23.16 C13.87 23.63, 10.42 22.63, 7.78 21.39 C5.14 20.16, 1.91 17.93, 0.72 15.73 C-0.46 13.54, -0.16 10.57, 0.66 8.25 C1.48 5.93, 3.13 3.21, 5.66 1.83 C8.18 0.45, 14.21 0.21, 15.82 -0.02 C17.43 -0.24, 15.44 0.26, 15.31 0.51 M14.98 0.14 C17.66 0.2, 21.47 1, 23.44 2.88 C25.42 4.76, 26.65 8.92, 26.82 11.42 C26.98 13.91, 26.05 15.94, 24.45 17.86 C22.85 19.79, 20.01 22.4, 17.21 22.95 C14.4 23.51, 10.42 22.45, 7.62 21.2 C4.82 19.95, 1.49 17.7, 0.41 15.44 C-0.67 13.18, 0.12 9.84, 1.15 7.65 C2.18 5.46, 4.42 3.55, 6.61 2.3 C8.8 1.04, 12.97 0.58, 14.3 0.12 C15.62 -0.33, 14.42 -0.68, 14.57 -0.42" stroke="#1971c2" stroke-width="4" fill="none"></path></g><g stroke-linecap="round" transform="translate(158.5 177) rotate(0 8 6.5)"><path d="M5.86 0.47 C7.46 0.16, 10.47 0.06, 12.11 0.66 C13.74 1.26, 15.07 2.86, 15.67 4.07 C16.27 5.29, 16.27 6.54, 15.72 7.94 C15.16 9.33, 13.86 11.57, 12.35 12.46 C10.85 13.35, 8.39 13.57, 6.69 13.28 C5 13, 3.23 11.87, 2.19 10.75 C1.15 9.62, 0.61 7.87, 0.46 6.54 C0.31 5.21, 0.29 3.78, 1.29 2.76 C2.29 1.73, 5.52 0.75, 6.45 0.39 C7.38 0.04, 6.79 0.59, 6.88 0.63 M5.76 0.58 C7.25 0.07, 9.86 -0.58, 11.46 0.11 C13.06 0.79, 14.79 3.3, 15.37 4.71 C15.94 6.11, 15.54 7.27, 14.91 8.54 C14.28 9.81, 12.87 11.68, 11.59 12.32 C10.31 12.96, 8.75 12.7, 7.24 12.39 C5.72 12.09, 3.81 11.48, 2.5 10.51 C1.18 9.54, -0.61 7.87, -0.66 6.6 C-0.7 5.32, 1.06 3.97, 2.23 2.85 C3.4 1.74, 5.58 0.39, 6.34 -0.11 C7.09 -0.61, 6.78 -0.26, 6.76 -0.12" stroke="none" stroke-width="0" fill="#f8f9fa"></path><path d="M6.65 0.24 C8.36 -0.06, 11.09 -0.07, 12.53 0.68 C13.98 1.43, 14.86 3.26, 15.34 4.72 C15.81 6.18, 15.92 8.24, 15.37 9.43 C14.83 10.62, 13.64 11.35, 12.06 11.87 C10.49 12.39, 7.64 12.76, 5.92 12.53 C4.2 12.31, 2.82 11.59, 1.76 10.53 C0.71 9.47, -0.55 7.61, -0.42 6.18 C-0.3 4.76, 1.3 3, 2.52 2 C3.74 1, 6.08 0.43, 6.89 0.16 C7.7 -0.12, 7.27 0.21, 7.38 0.36 M7.14 -0.61 C8.71 -0.77, 10.71 0.9, 12.14 1.68 C13.56 2.47, 15.06 2.84, 15.69 4.11 C16.31 5.37, 16.54 8.01, 15.89 9.26 C15.24 10.52, 13.52 11.17, 11.79 11.65 C10.07 12.13, 7.13 12.46, 5.54 12.15 C3.95 11.85, 3.09 10.76, 2.27 9.83 C1.45 8.9, 0.76 7.86, 0.62 6.58 C0.48 5.3, 0.43 3.37, 1.43 2.17 C2.42 0.96, 5.59 -0.4, 6.58 -0.66 C7.56 -0.91, 7.24 0.4, 7.33 0.66" stroke="#f8f9fa" stroke-width="4" fill="none"></path></g><g stroke-linecap="round"><g transform="translate(95.22914358080743 244.04191576880385) rotate(0 26.130965888116407 3.4404499371438533)" fill-rule="evenodd"><path d="M-1.07 1.63 L-3.03 13.49 L10.23 7.07 L34.47 13.95 L53.44 3.63 L32.48 -3.51 L9.72 5.13 L-4.93 -7.22" stroke="none" stroke-width="0" fill="#1e1e1e" fill-rule="evenodd"></path><path d="M0 0 C-1.97 4.3, -2.69 9.31, -2.81 12.76 M0 0 C-0.81 4.44, -1.46 9.43, -2.81 12.76 M-2.81 12.76 C0.69 11.43, 2.21 9.51, 11.33 5.72 M-2.81 12.76 C2.88 9.87, 8.51 7.74, 11.33 5.72 M11.33 5.72 C19.99 9.25, 26.54 11.35, 33.93 13.75 M11.33 5.72 C20.79 9.35, 29.05 11.29, 33.93 13.75 M33.93 13.75 C36.67 13.47, 43.65 8.32, 55.4 5.17 M33.93 13.75 C41.05 11.95, 47.26 8.9, 55.4 5.17 M55.4 5.17 C47.33 -1.11, 36.21 -2.18, 32.83 -5.44 M55.4 5.17 C46.78 1.3, 36.79 -2.98, 32.83 -5.44 M32.83 -5.44 C24.37 -2.24, 17.35 1.08, 11.27 3.94 M32.83 -5.44 C28.39 -3.06, 23.64 -0.36, 11.27 3.94 M11.27 3.94 C8.12 -0.27, 4.5 -2.58, -3.14 -6.87 M11.27 3.94 C7.34 1.82, 4.28 -0.18, -3.14 -6.87 M-3.14 -6.87 C-2.48 -5.21, -1.2 -1.63, 0 0 M-3.14 -6.87 C-1.85 -4.69, -1.11 -2.18, 0 0" stroke="#1e1e1e" stroke-width="2" fill="none"></path></g></g><mask></mask><g stroke-linecap="round" transform="translate(168.42419977385362 244.13349278131477) rotate(0 0.8790701468478801 1.409893023057407)"><path d="M1.17 0.07 C1.3 0.04, 1.46 -0.15, 1.56 0.11 C1.66 0.37, 1.79 1.25, 1.76 1.64 C1.74 2.03, 1.49 2.29, 1.39 2.46 C1.28 2.63, 1.23 2.66, 1.13 2.66 C1.03 2.67, 1.01 2.58, 0.8 2.49 C0.58 2.4, -0.01 2.32, -0.14 2.11 C-0.27 1.9, -0.09 1.47, 0.01 1.21 C0.11 0.95, 0.25 0.74, 0.45 0.53 C0.65 0.31, 1.17 -0.01, 1.21 -0.08 C1.26 -0.14, 0.72 0.16, 0.7 0.15 M0.94 0.45 C1.07 0.54, 0.97 0.28, 1.03 0.46 C1.09 0.64, 1.17 1.28, 1.3 1.52 C1.43 1.75, 1.79 1.7, 1.81 1.87 C1.82 2.03, 1.67 2.42, 1.38 2.53 C1.09 2.65, 0.21 2.63, 0.06 2.58 C-0.1 2.52, 0.45 2.5, 0.45 2.22 C0.45 1.93, 0.02 1.23, 0.05 0.86 C0.09 0.49, 0.54 0.13, 0.66 -0.02 C0.78 -0.17, 0.78 -0.14, 0.79 -0.06 C0.79 0.01, 0.68 0.38, 0.7 0.44" stroke="none" stroke-width="0" fill="#f8f9fa"></path><path d="M0.74 0.14 C0.89 0.22, 1.26 0.56, 1.46 0.7 C1.67 0.84, 2 0.78, 1.98 1 C1.96 1.21, 1.49 1.68, 1.36 1.98 C1.23 2.28, 1.37 2.68, 1.19 2.8 C1 2.91, 0.38 2.8, 0.24 2.66 C0.11 2.52, 0.46 2.2, 0.38 1.95 C0.31 1.7, -0.18 1.42, -0.2 1.16 C-0.22 0.91, 0.03 0.57, 0.25 0.42 C0.46 0.27, 1 0.32, 1.09 0.26 C1.18 0.2, 0.8 0.04, 0.78 0.04 M0.79 -0.27 C1.04 -0.38, 1.51 0.26, 1.67 0.4 C1.83 0.53, 1.85 0.38, 1.78 0.55 C1.7 0.73, 1.22 1.19, 1.21 1.46 C1.2 1.74, 1.72 1.97, 1.71 2.23 C1.69 2.49, 1.44 3.01, 1.11 3.03 C0.78 3.05, -0.03 2.68, -0.26 2.32 C-0.48 1.97, -0.37 1.15, -0.25 0.9 C-0.13 0.64, 0.28 0.92, 0.46 0.79 C0.63 0.66, 0.67 0.29, 0.79 0.12 C0.92 -0.04, 1.3 -0.25, 1.22 -0.22" stroke="#f8f9fa" stroke-width="1" fill="none"></path></g><g stroke-linecap="round" transform="translate(168.99167888403827 233.51209754856745) rotate(0 0.33566706903729937 0.6456645695216707)"><path d="M0.38 -0.32 C0.41 -0.29, 0.54 0.3, 0.55 0.47 C0.57 0.65, 0.44 0.68, 0.46 0.74 C0.48 0.81, 0.61 0.79, 0.66 0.84 C0.71 0.9, 0.87 0.97, 0.76 1.06 C0.65 1.15, 0.13 1.36, 0.01 1.38 C-0.12 1.4, 0.02 1.26, 0.03 1.16 C0.04 1.07, 0.02 1.01, 0.07 0.83 C0.13 0.65, 0.35 0.19, 0.35 0.07 C0.35 -0.04, 0.03 0.17, 0.06 0.12 C0.08 0.07, 0.4 -0.2, 0.48 -0.23 M-0.18 0.04 C-0.19 -0.02, -0.12 0.31, 0.06 0.31 C0.23 0.32, 0.72 0.02, 0.87 0.08 C1.01 0.14, 1.06 0.47, 0.93 0.65 C0.79 0.82, 0.1 0.97, 0.05 1.11 C0 1.25, 0.63 1.54, 0.64 1.5 C0.64 1.46, 0.15 1.06, 0.09 0.87 C0.03 0.68, 0.31 0.48, 0.28 0.36 C0.25 0.24, -0.05 0.14, -0.09 0.15 C-0.13 0.15, -0.03 0.4, 0.02 0.41 C0.07 0.42, 0.23 0.2, 0.23 0.2" stroke="none" stroke-width="0" fill="#f8f9fa"></path><path d="M0.28 0.32 C0.42 0.23, 0.73 -0.14, 0.75 -0.15 C0.77 -0.16, 0.41 0.07, 0.4 0.25 C0.4 0.44, 0.74 0.79, 0.7 0.94 C0.67 1.1, 0.22 1.15, 0.2 1.19 C0.17 1.23, 0.61 1.2, 0.55 1.19 C0.49 1.17, -0.05 1.18, -0.16 1.11 C-0.27 1.04, -0.17 0.86, -0.11 0.75 C-0.04 0.64, 0.2 0.58, 0.24 0.45 C0.28 0.33, 0.11 0.07, 0.13 0.01 C0.15 -0.05, 0.37 0.1, 0.35 0.1 M0.72 0.2 C0.79 0.19, 0.74 -0.19, 0.65 -0.19 C0.56 -0.2, 0.12 0.03, 0.18 0.17 C0.24 0.3, 0.9 0.4, 1.01 0.63 C1.11 0.85, 1.02 1.41, 0.81 1.52 C0.6 1.62, -0.1 1.44, -0.27 1.25 C-0.44 1.07, -0.31 0.49, -0.23 0.41 C-0.14 0.32, 0.18 0.79, 0.25 0.75 C0.33 0.72, 0.1 0.37, 0.2 0.2 C0.3 0.04, 0.9 -0.25, 0.86 -0.25 C0.81 -0.25, 0.09 0.22, -0.06 0.21" stroke="#f8f9fa" stroke-width="4" fill="none"></path></g><g stroke-linecap="round" transform="translate(179.82774080065792 220.11054822442384) rotate(0 0.001191726189063047 1.386753919018247)"><path d="M0.01 0.33 C-0.03 0.41, -0.21 0.45, -0.2 0.58 C-0.2 0.7, -0.05 0.85, 0.04 1.08 C0.12 1.3, 0.34 1.64, 0.3 1.93 C0.26 2.22, -0.17 2.67, -0.22 2.83 C-0.27 2.98, -0.07 2.94, -0.02 2.86 C0.03 2.77, 0.02 2.63, 0.07 2.32 C0.11 2.02, 0.29 1.34, 0.24 1.02 C0.18 0.7, -0.27 0.62, -0.28 0.41 C-0.3 0.2, 0.05 -0.15, 0.13 -0.24 C0.21 -0.32, 0.26 -0.15, 0.19 -0.09 M-0.45 0.23 C-0.34 0.19, 0.09 -0.04, 0.21 0.1 C0.34 0.25, 0.39 0.77, 0.28 1.11 C0.17 1.45, -0.45 1.84, -0.44 2.15 C-0.42 2.46, 0.29 2.92, 0.37 2.97 C0.45 3.02, 0.04 2.66, 0.02 2.43 C0.01 2.21, 0.31 1.89, 0.28 1.63 C0.25 1.37, -0.09 1.05, -0.18 0.88 C-0.27 0.71, -0.29 0.72, -0.27 0.61 C-0.25 0.5, -0.05 0.24, -0.05 0.2 C-0.06 0.16, -0.31 0.38, -0.28 0.38" stroke="none" stroke-width="0" fill="#f8f9fa"></path><path d="M0.23 -0.25 C0.19 -0.34, -0.22 -0.08, -0.25 0.17 C-0.28 0.43, 0.07 0.95, 0.06 1.27 C0.06 1.6, -0.32 1.89, -0.28 2.12 C-0.25 2.35, 0.28 2.53, 0.29 2.63 C0.3 2.74, -0.16 2.82, -0.22 2.74 C-0.29 2.66, -0.17 2.38, -0.11 2.15 C-0.05 1.91, 0.16 1.62, 0.15 1.31 C0.13 1, -0.16 0.48, -0.18 0.27 C-0.19 0.07, 0.05 0.14, 0.03 0.09 C0.01 0.04, -0.34 -0.05, -0.29 -0.04 M0.06 -0.4 C-0.07 -0.56, -0.54 -0.39, -0.49 -0.22 C-0.43 -0.05, 0.26 0.19, 0.41 0.59 C0.56 1, 0.55 1.85, 0.41 2.2 C0.27 2.55, -0.34 2.67, -0.45 2.68 C-0.56 2.68, -0.36 2.28, -0.25 2.25 C-0.13 2.23, 0.19 2.65, 0.24 2.51 C0.29 2.36, 0.01 1.78, 0.04 1.39 C0.08 1, 0.55 0.35, 0.47 0.16 C0.39 -0.04, -0.29 0.28, -0.45 0.2 C-0.6 0.12, -0.6 -0.4, -0.47 -0.33" stroke="#f8f9fa" stroke-width="4" fill="none"></path></g><g stroke-linecap="round" transform="translate(179.89843294041566 209.4891529916763) rotate(0 0.33566706903729937 0.6456645695216707)"><path d="M0.08 0.23 C0.15 0.13, 0.4 -0.03, 0.54 -0.02 C0.69 -0.02, 0.97 0.08, 0.95 0.25 C0.93 0.42, 0.51 0.81, 0.43 1 C0.35 1.19, 0.49 1.3, 0.48 1.39 C0.46 1.49, 0.37 1.63, 0.34 1.56 C0.31 1.49, 0.42 1.1, 0.31 0.97 C0.21 0.83, -0.27 0.92, -0.28 0.75 C-0.3 0.59, 0.09 0.13, 0.21 -0.02 C0.34 -0.16, 0.52 -0.11, 0.48 -0.11 C0.45 -0.11, -0.01 0.02, 0.01 0 M0.55 -0.36 C0.74 -0.45, 0.89 -0.22, 0.83 -0.08 C0.78 0.05, 0.2 0.22, 0.22 0.44 C0.25 0.65, 0.95 1.09, 0.99 1.2 C1.03 1.31, 0.55 1.12, 0.47 1.08 C0.39 1.05, 0.6 1.02, 0.5 0.98 C0.4 0.95, -0.01 0.9, -0.13 0.89 C-0.26 0.88, -0.29 1.03, -0.26 0.93 C-0.23 0.84, 0.01 0.43, 0.07 0.33 C0.12 0.23, 0 0.38, 0.06 0.34 C0.13 0.3, 0.51 0.17, 0.47 0.06" stroke="none" stroke-width="0" fill="#f8f9fa"></path><path d="M0.13 -0.2 C0.17 -0.14, 0.61 0.12, 0.65 0.26 C0.69 0.39, 0.34 0.48, 0.38 0.59 C0.42 0.71, 0.92 0.84, 0.89 0.97 C0.85 1.09, 0.31 1.3, 0.17 1.36 C0.04 1.43, 0.07 1.4, 0.07 1.36 C0.06 1.32, 0.2 1.29, 0.17 1.13 C0.13 0.98, -0.16 0.6, -0.16 0.44 C-0.15 0.28, 0.15 0.26, 0.19 0.18 C0.24 0.09, 0.02 -0.04, 0.1 -0.06 C0.18 -0.08, 0.68 -0.01, 0.7 0.05 M-0.13 -0.46 C-0.01 -0.46, 0.77 -0.46, 0.98 -0.24 C1.18 -0.03, 1.21 0.6, 1.08 0.81 C0.94 1.03, 0.32 1.04, 0.17 1.04 C0.02 1.04, 0.14 0.7, 0.18 0.79 C0.23 0.87, 0.46 1.51, 0.44 1.55 C0.42 1.59, 0.07 1.26, 0.08 1.04 C0.09 0.82, 0.55 0.35, 0.48 0.23 C0.41 0.11, -0.21 0.42, -0.31 0.32 C-0.41 0.22, -0.28 -0.39, -0.12 -0.36 C0.04 -0.34, 0.59 0.35, 0.66 0.47" stroke="#f8f9fa" stroke-width="4" fill="none"></path></g><g transform="translate(91.88585397958741 126.33209171530416) rotate(8.703279399419433 12.194209653181133 -4.451854317828008)" stroke="none"><path fill="#1e1e1e" d="M -1.76,-4.00 Q -1.76,-4.00 -0.88,-4.85 -0.00,-5.70 0.74,-6.57 1.48,-7.45 2.75,-8.06 4.02,-8.67 5.65,-8.26 7.28,-7.86 8.48,-7.16 9.67,-6.47 10.90,-5.65 12.13,-4.84 13.46,-4.25 14.79,-3.67 16.13,-4.28 17.47,-4.90 19.66,-7.56 21.85,-10.23 22.22,-10.56 22.59,-10.88 23.05,-11.07 23.50,-11.26 24.00,-11.30 24.49,-11.33 24.97,-11.20 25.44,-11.08 25.86,-10.81 26.27,-10.53 26.57,-10.14 26.88,-9.75 27.04,-9.29 27.21,-8.82 27.21,-8.33 27.22,-7.83 27.07,-7.36 26.92,-6.89 26.62,-6.50 26.33,-6.10 25.92,-5.82 25.52,-5.53 25.04,-5.40 24.57,-5.26 24.08,-5.28 23.58,-5.30 23.12,-5.47 22.66,-5.65 22.28,-5.97 21.90,-6.28 21.64,-6.70 21.38,-7.12 21.26,-7.60 21.15,-8.08 21.20,-8.57 21.25,-9.07 21.45,-9.52 21.65,-9.97 21.98,-10.33 22.32,-10.70 22.75,-10.93 23.19,-11.17 23.67,-11.26 24.16,-11.34 24.65,-11.27 25.14,-11.20 25.58,-10.97 26.02,-10.74 26.36,-10.39 26.70,-10.04 26.92,-9.59 27.13,-9.14 27.19,-8.65 27.25,-8.16 27.15,-7.68 27.05,-7.20 26.80,-6.77 26.55,-6.34 26.55,-6.34 26.55,-6.34 24.85,-4.19 23.15,-2.03 21.90,-0.78 20.65,0.45 18.90,1.43 17.16,2.41 15.84,2.56 14.53,2.71 12.96,2.28 11.38,1.86 9.75,0.92 8.12,-0.02 7.17,-0.72 6.21,-1.41 5.76,-2.43 5.30,-3.45 4.43,-2.67 3.56,-1.89 2.66,-1.07 1.76,-0.24 1.51,-0.06 1.26,0.11 0.97,0.23 0.68,0.35 0.37,0.40 0.07,0.44 -0.23,0.41 -0.54,0.38 -0.83,0.28 -1.13,0.18 -1.39,0.01 -1.65,-0.15 -1.86,-0.37 -2.07,-0.60 -2.23,-0.87 -2.38,-1.14 -2.46,-1.44 -2.54,-1.74 -2.55,-2.05 -2.56,-2.36 -2.50,-2.67 -2.43,-2.97 -2.29,-3.25 -2.16,-3.53 -1.96,-3.77 -1.76,-4.00 -1.76,-4.00 L -1.76,-4.00 Z"></path></g><g transform="translate(162.67170701893338 126.68059528654885) rotate(8.703279399419433 12.194209653181133 -4.451854317828008)" stroke="none"><path fill="#1e1e1e" d="M -1.76,-4.00 Q -1.76,-4.00 -0.88,-4.85 -0.00,-5.70 0.74,-6.57 1.48,-7.45 2.75,-8.06 4.02,-8.67 5.65,-8.26 7.28,-7.86 8.48,-7.16 9.67,-6.47 10.90,-5.65 12.13,-4.84 13.46,-4.25 14.79,-3.67 16.13,-4.28 17.47,-4.90 19.66,-7.56 21.85,-10.23 22.22,-10.56 22.59,-10.88 23.05,-11.07 23.50,-11.26 24.00,-11.30 24.49,-11.33 24.97,-11.20 25.44,-11.08 25.86,-10.81 26.27,-10.53 26.57,-10.14 26.88,-9.75 27.04,-9.29 27.21,-8.82 27.21,-8.33 27.22,-7.83 27.07,-7.36 26.92,-6.89 26.62,-6.50 26.33,-6.10 25.92,-5.82 25.52,-5.53 25.04,-5.40 24.57,-5.26 24.08,-5.28 23.58,-5.30 23.12,-5.47 22.66,-5.65 22.28,-5.97 21.90,-6.28 21.64,-6.70 21.38,-7.12 21.26,-7.60 21.15,-8.08 21.20,-8.57 21.25,-9.07 21.45,-9.52 21.65,-9.97 21.98,-10.33 22.32,-10.70 22.75,-10.93 23.19,-11.17 23.67,-11.26 24.16,-11.34 24.65,-11.27 25.14,-11.20 25.58,-10.97 26.02,-10.74 26.36,-10.39 26.70,-10.04 26.92,-9.59 27.13,-9.14 27.19,-8.65 27.25,-8.16 27.15,-7.68 27.05,-7.20 26.80,-6.77 26.55,-6.34 26.55,-6.34 26.55,-6.34 24.85,-4.19 23.15,-2.03 21.90,-0.78 20.65,0.45 18.90,1.43 17.16,2.41 15.84,2.56 14.53,2.71 12.96,2.28 11.38,1.86 9.75,0.92 8.12,-0.02 7.17,-0.72 6.21,-1.41 5.76,-2.43 5.30,-3.45 4.43,-2.67 3.56,-1.89 2.66,-1.07 1.76,-0.24 1.51,-0.06 1.26,0.11 0.97,0.23 0.68,0.35 0.37,0.40 0.07,0.44 -0.23,0.41 -0.54,0.38 -0.83,0.28 -1.13,0.18 -1.39,0.01 -1.65,-0.15 -1.86,-0.37 -2.07,-0.60 -2.23,-0.87 -2.38,-1.14 -2.46,-1.44 -2.54,-1.74 -2.55,-2.05 -2.56,-2.36 -2.50,-2.67 -2.43,-2.97 -2.29,-3.25 -2.16,-3.53 -1.96,-3.77 -1.76,-4.00 -1.76,-4.00 L -1.76,-4.00 Z"></path></g><g transform="translate(65.19475086823513 140.75050927867733) rotate(8.703279399419433 12.194209653181133 -4.451854317828008)" stroke="none"><path fill="#1e1e1e" d="M -1.76,-4.00 Q -1.76,-4.00 -0.88,-4.85 -0.00,-5.70 0.74,-6.57 1.48,-7.45 2.75,-8.06 4.02,-8.67 5.65,-8.26 7.28,-7.86 8.48,-7.16 9.67,-6.47 10.90,-5.65 12.13,-4.84 13.46,-4.25 14.79,-3.67 16.13,-4.28 17.47,-4.90 19.66,-7.56 21.85,-10.23 22.22,-10.56 22.59,-10.88 23.05,-11.07 23.50,-11.26 24.00,-11.30 24.49,-11.33 24.97,-11.20 25.44,-11.08 25.86,-10.81 26.27,-10.53 26.57,-10.14 26.88,-9.75 27.04,-9.29 27.21,-8.82 27.21,-8.33 27.22,-7.83 27.07,-7.36 26.92,-6.89 26.62,-6.50 26.33,-6.10 25.92,-5.82 25.52,-5.53 25.04,-5.40 24.57,-5.26 24.08,-5.28 23.58,-5.30 23.12,-5.47 22.66,-5.65 22.28,-5.97 21.90,-6.28 21.64,-6.70 21.38,-7.12 21.26,-7.60 21.15,-8.08 21.20,-8.57 21.25,-9.07 21.45,-9.52 21.65,-9.97 21.98,-10.33 22.32,-10.70 22.75,-10.93 23.19,-11.17 23.67,-11.26 24.16,-11.34 24.65,-11.27 25.14,-11.20 25.58,-10.97 26.02,-10.74 26.36,-10.39 26.70,-10.04 26.92,-9.59 27.13,-9.14 27.19,-8.65 27.25,-8.16 27.15,-7.68 27.05,-7.20 26.80,-6.77 26.55,-6.34 26.55,-6.34 26.55,-6.34 24.85,-4.19 23.15,-2.03 21.90,-0.78 20.65,0.45 18.90,1.43 17.16,2.41 15.84,2.56 14.53,2.71 12.96,2.28 11.38,1.86 9.75,0.92 8.12,-0.02 7.17,-0.72 6.21,-1.41 5.76,-2.43 5.30,-3.45 4.43,-2.67 3.56,-1.89 2.66,-1.07 1.76,-0.24 1.51,-0.06 1.26,0.11 0.97,0.23 0.68,0.35 0.37,0.40 0.07,0.44 -0.23,0.41 -0.54,0.38 -0.83,0.28 -1.13,0.18 -1.39,0.01 -1.65,-0.15 -1.86,-0.37 -2.07,-0.60 -2.23,-0.87 -2.38,-1.14 -2.46,-1.44 -2.54,-1.74 -2.55,-2.05 -2.56,-2.36 -2.50,-2.67 -2.43,-2.97 -2.29,-3.25 -2.16,-3.53 -1.96,-3.77 -1.76,-4.00 -1.76,-4.00 L -1.76,-4.00 Z"></path></g><g transform="translate(134.98060390758474 141.09901284992247) rotate(8.703279399419433 12.194209653181133 -4.451854317828008)" stroke="none"><path fill="#1e1e1e" d="M -1.76,-4.00 Q -1.76,-4.00 -0.88,-4.85 -0.00,-5.70 0.74,-6.57 1.48,-7.45 2.75,-8.06 4.02,-8.67 5.65,-8.26 7.28,-7.86 8.48,-7.16 9.67,-6.47 10.90,-5.65 12.13,-4.84 13.46,-4.25 14.79,-3.67 16.13,-4.28 17.47,-4.90 19.66,-7.56 21.85,-10.23 22.22,-10.56 22.59,-10.88 23.05,-11.07 23.50,-11.26 24.00,-11.30 24.49,-11.33 24.97,-11.20 25.44,-11.08 25.86,-10.81 26.27,-10.53 26.57,-10.14 26.88,-9.75 27.04,-9.29 27.21,-8.82 27.21,-8.33 27.22,-7.83 27.07,-7.36 26.92,-6.89 26.62,-6.50 26.33,-6.10 25.92,-5.82 25.52,-5.53 25.04,-5.40 24.57,-5.26 24.08,-5.28 23.58,-5.30 23.12,-5.47 22.66,-5.65 22.28,-5.97 21.90,-6.28 21.64,-6.70 21.38,-7.12 21.26,-7.60 21.15,-8.08 21.20,-8.57 21.25,-9.07 21.45,-9.52 21.65,-9.97 21.98,-10.33 22.32,-10.70 22.75,-10.93 23.19,-11.17 23.67,-11.26 24.16,-11.34 24.65,-11.27 25.14,-11.20 25.58,-10.97 26.02,-10.74 26.36,-10.39 26.70,-10.04 26.92,-9.59 27.13,-9.14 27.19,-8.65 27.25,-8.16 27.15,-7.68 27.05,-7.20 26.80,-6.77 26.55,-6.34 26.55,-6.34 26.55,-6.34 24.85,-4.19 23.15,-2.03 21.90,-0.78 20.65,0.45 18.90,1.43 17.16,2.41 15.84,2.56 14.53,2.71 12.96,2.28 11.38,1.86 9.75,0.92 8.12,-0.02 7.17,-0.72 6.21,-1.41 5.76,-2.43 5.30,-3.45 4.43,-2.67 3.56,-1.89 2.66,-1.07 1.76,-0.24 1.51,-0.06 1.26,0.11 0.97,0.23 0.68,0.35 0.37,0.40 0.07,0.44 -0.23,0.41 -0.54,0.38 -0.83,0.28 -1.13,0.18 -1.39,0.01 -1.65,-0.15 -1.86,-0.37 -2.07,-0.60 -2.23,-0.87 -2.38,-1.14 -2.46,-1.44 -2.54,-1.74 -2.55,-2.05 -2.56,-2.36 -2.50,-2.67 -2.43,-2.97 -2.29,-3.25 -2.16,-3.53 -1.96,-3.77 -1.76,-4.00 -1.76,-4.00 L -1.76,-4.00 Z"></path></g><g transform="translate(60.53254333057703 69.10920361978833) rotate(263.0656510987302 -4.229003860455123 6.841011138412512)" stroke="none"><path fill="#1e1e1e" d="M 2.57,1.44 Q 2.57,1.44 1.49,2.73 0.41,4.03 -0.91,5.70 -2.24,7.37 -3.27,8.74 -4.29,10.11 -4.95,11.14 -5.61,12.17 -6.44,13.43 -7.27,14.70 -7.51,14.96 -7.76,15.21 -8.08,15.37 -8.40,15.54 -8.75,15.59 -9.10,15.64 -9.45,15.58 -9.80,15.52 -10.12,15.35 -10.43,15.17 -10.67,14.91 -10.91,14.65 -11.06,14.32 -11.20,14.00 -11.24,13.64 -11.27,13.29 -11.19,12.94 -11.11,12.60 -10.92,12.29 -10.73,11.99 -10.46,11.76 -10.18,11.54 -9.85,11.41 -9.51,11.28 -9.16,11.27 -8.80,11.25 -8.46,11.35 -8.12,11.45 -7.83,11.66 -7.53,11.86 -7.32,12.15 -7.11,12.43 -7.00,12.77 -6.89,13.11 -6.90,13.47 -6.90,13.83 -7.02,14.16 -7.14,14.50 -7.36,14.78 -7.58,15.06 -7.88,15.26 -8.17,15.45 -8.52,15.54 -8.86,15.63 -9.22,15.61 -9.57,15.58 -9.90,15.45 -10.23,15.31 -10.50,15.08 -10.77,14.84 -10.95,14.53 -11.13,14.23 -11.20,13.88 -11.27,13.53 -11.23,13.17 -11.18,12.82 -11.03,12.50 -10.88,12.18 -10.88,12.18 -10.88,12.18 -9.98,10.92 -9.09,9.67 -8.30,8.68 -7.51,7.69 -6.51,6.37 -5.51,5.05 -4.29,3.13 -3.08,1.21 -2.04,-0.11 -1.00,-1.44 -0.80,-1.63 -0.60,-1.82 -0.36,-1.96 -0.12,-2.10 0.13,-2.18 0.40,-2.26 0.68,-2.27 0.95,-2.28 1.22,-2.23 1.49,-2.18 1.75,-2.06 2.00,-1.94 2.21,-1.77 2.43,-1.59 2.59,-1.37 2.76,-1.15 2.87,-0.90 2.98,-0.65 3.03,-0.37 3.07,-0.10 3.05,0.17 3.03,0.44 2.94,0.71 2.86,0.97 2.71,1.20 2.57,1.44 2.57,1.44 L 2.57,1.44 Z"></path></g><g transform="translate(52.403585264793946 67.53549276597323) rotate(263.0656510987302 3.1960207134434313 6.52977254561273)" stroke="none"><path fill="#1e1e1e" d="M 2.20,-0.93 Q 2.20,-0.93 2.74,0.28 3.28,1.50 3.85,2.76 4.43,4.02 5.12,5.74 5.82,7.47 6.99,9.50 8.16,11.52 8.33,11.86 8.49,12.20 8.54,12.57 8.59,12.95 8.52,13.32 8.44,13.69 8.25,14.02 8.06,14.35 7.78,14.60 7.50,14.85 7.15,14.99 6.80,15.14 6.42,15.17 6.05,15.19 5.68,15.10 5.32,15.01 5.00,14.80 4.68,14.59 4.45,14.30 4.21,14.00 4.08,13.65 3.96,13.29 3.95,12.91 3.94,12.53 4.06,12.17 4.17,11.81 4.39,11.51 4.62,11.20 4.92,10.98 5.23,10.77 5.60,10.66 5.96,10.55 6.34,10.56 6.71,10.58 7.07,10.71 7.42,10.84 7.71,11.08 8.01,11.32 8.21,11.64 8.41,11.96 8.50,12.33 8.59,12.70 8.55,13.07 8.52,13.45 8.37,13.80 8.21,14.14 7.96,14.42 7.70,14.70 7.37,14.88 7.04,15.07 6.67,15.14 6.30,15.20 5.93,15.15 5.55,15.10 5.21,14.93 4.88,14.75 4.61,14.48 4.35,14.22 4.35,14.22 4.35,14.22 2.99,11.79 1.64,9.36 0.80,7.69 -0.03,6.03 -0.61,4.71 -1.20,3.40 -1.70,2.16 -2.20,0.93 -2.28,0.65 -2.36,0.37 -2.37,0.09 -2.38,-0.19 -2.32,-0.48 -2.26,-0.76 -2.14,-1.02 -2.02,-1.28 -1.83,-1.50 -1.65,-1.72 -1.42,-1.90 -1.19,-2.07 -0.92,-2.18 -0.66,-2.30 -0.37,-2.34 -0.09,-2.39 0.19,-2.36 0.48,-2.34 0.75,-2.25 1.03,-2.16 1.27,-2.00 1.51,-1.85 1.71,-1.64 1.91,-1.43 2.06,-1.18 2.20,-0.93 2.20,-0.93 L 2.20,-0.93 Z"></path></g><g transform="translate(47.33856986359024 74.9554212005944) rotate(263.0656510987302 7.352187688937192 0.15551684873014437)" stroke="none"><path fill="#1e1e1e" d="M 15.91,2.27 Q 15.91,2.27 14.28,2.31 12.65,2.35 11.14,2.40 9.63,2.46 8.17,2.50 6.71,2.54 4.45,2.43 2.20,2.32 0.67,2.36 -0.85,2.40 -1.18,2.35 -1.52,2.30 -1.82,2.15 -2.12,1.99 -2.36,1.75 -2.60,1.50 -2.74,1.20 -2.89,0.89 -2.93,0.55 -2.97,0.21 -2.90,-0.11 -2.83,-0.44 -2.66,-0.74 -2.49,-1.03 -2.23,-1.25 -1.98,-1.48 -1.66,-1.60 -1.35,-1.73 -1.01,-1.76 -0.67,-1.78 -0.34,-1.69 -0.01,-1.60 0.26,-1.42 0.55,-1.23 0.75,-0.96 0.96,-0.69 1.08,-0.37 1.19,-0.05 1.19,0.28 1.20,0.62 1.09,0.94 0.99,1.27 0.78,1.54 0.58,1.81 0.30,2.01 0.02,2.20 -0.30,2.29 -0.62,2.39 -0.96,2.37 -1.30,2.36 -1.62,2.24 -1.94,2.12 -2.20,1.90 -2.46,1.68 -2.64,1.39 -2.82,1.10 -2.89,0.77 -2.97,0.44 -2.94,0.10 -2.90,-0.23 -2.76,-0.54 -2.62,-0.85 -2.39,-1.10 -2.16,-1.35 -1.86,-1.51 -1.57,-1.67 -1.23,-1.73 -0.90,-1.79 -0.90,-1.79 -0.90,-1.79 0.63,-1.77 2.16,-1.76 4.39,-1.91 6.62,-2.06 8.07,-2.07 9.51,-2.08 11.01,-2.11 12.50,-2.14 14.13,-2.20 15.76,-2.27 16.03,-2.24 16.30,-2.22 16.56,-2.13 16.82,-2.04 17.05,-1.89 17.28,-1.75 17.47,-1.55 17.66,-1.35 17.79,-1.11 17.93,-0.87 18.00,-0.61 18.08,-0.34 18.09,-0.07 18.10,0.19 18.04,0.46 17.98,0.73 17.86,0.98 17.74,1.22 17.57,1.43 17.39,1.65 17.17,1.81 16.95,1.97 16.70,2.08 16.45,2.18 16.18,2.22 15.91,2.27 15.91,2.27 L 15.91,2.27 Z"></path></g><g transform="translate(87.765291512158 54.22145528355259) rotate(263.0656510987302 -4.229003860455123 6.841011138412512)" stroke="none"><path fill="#1e1e1e" d="M 2.57,1.44 Q 2.57,1.44 1.49,2.73 0.41,4.03 -0.91,5.70 -2.24,7.37 -3.27,8.74 -4.29,10.11 -4.95,11.14 -5.61,12.17 -6.44,13.43 -7.27,14.70 -7.51,14.96 -7.76,15.21 -8.08,15.37 -8.40,15.54 -8.75,15.59 -9.10,15.64 -9.45,15.58 -9.80,15.52 -10.12,15.35 -10.43,15.17 -10.67,14.91 -10.91,14.65 -11.06,14.32 -11.20,14.00 -11.24,13.64 -11.27,13.29 -11.19,12.94 -11.11,12.60 -10.92,12.29 -10.73,11.99 -10.46,11.76 -10.18,11.54 -9.85,11.41 -9.51,11.28 -9.16,11.27 -8.80,11.25 -8.46,11.35 -8.12,11.45 -7.83,11.66 -7.53,11.86 -7.32,12.15 -7.11,12.43 -7.00,12.77 -6.89,13.11 -6.90,13.47 -6.90,13.83 -7.02,14.16 -7.14,14.50 -7.36,14.78 -7.58,15.06 -7.88,15.26 -8.17,15.45 -8.52,15.54 -8.86,15.63 -9.22,15.61 -9.57,15.58 -9.90,15.45 -10.23,15.31 -10.50,15.08 -10.77,14.84 -10.95,14.53 -11.13,14.23 -11.20,13.88 -11.27,13.53 -11.23,13.17 -11.18,12.82 -11.03,12.50 -10.88,12.18 -10.88,12.18 -10.88,12.18 -9.98,10.92 -9.09,9.67 -8.30,8.68 -7.51,7.69 -6.51,6.37 -5.51,5.05 -4.29,3.13 -3.08,1.21 -2.04,-0.11 -1.00,-1.44 -0.80,-1.63 -0.60,-1.82 -0.36,-1.96 -0.12,-2.10 0.13,-2.18 0.40,-2.26 0.68,-2.27 0.95,-2.28 1.22,-2.23 1.49,-2.18 1.75,-2.06 2.00,-1.94 2.21,-1.77 2.43,-1.59 2.59,-1.37 2.76,-1.15 2.87,-0.90 2.98,-0.65 3.03,-0.37 3.07,-0.10 3.05,0.17 3.03,0.44 2.94,0.71 2.86,0.97 2.71,1.20 2.57,1.44 2.57,1.44 L 2.57,1.44 Z"></path></g><g transform="translate(79.63633344637492 52.647744429737486) rotate(263.0656510987302 3.1960207134434313 6.52977254561273)" stroke="none"><path fill="#1e1e1e" d="M 2.20,-0.93 Q 2.20,-0.93 2.74,0.28 3.28,1.50 3.85,2.76 4.43,4.02 5.12,5.74 5.82,7.47 6.99,9.50 8.16,11.52 8.33,11.86 8.49,12.20 8.54,12.57 8.59,12.95 8.52,13.32 8.44,13.69 8.25,14.02 8.06,14.35 7.78,14.60 7.50,14.85 7.15,14.99 6.80,15.14 6.42,15.17 6.05,15.19 5.68,15.10 5.32,15.01 5.00,14.80 4.68,14.59 4.45,14.30 4.21,14.00 4.08,13.65 3.96,13.29 3.95,12.91 3.94,12.53 4.06,12.17 4.17,11.81 4.39,11.51 4.62,11.20 4.92,10.98 5.23,10.77 5.60,10.66 5.96,10.55 6.34,10.56 6.71,10.58 7.07,10.71 7.42,10.84 7.71,11.08 8.01,11.32 8.21,11.64 8.41,11.96 8.50,12.33 8.59,12.70 8.55,13.07 8.52,13.45 8.37,13.80 8.21,14.14 7.96,14.42 7.70,14.70 7.37,14.88 7.04,15.07 6.67,15.14 6.30,15.20 5.93,15.15 5.55,15.10 5.21,14.93 4.88,14.75 4.61,14.48 4.35,14.22 4.35,14.22 4.35,14.22 2.99,11.79 1.64,9.36 0.80,7.69 -0.03,6.03 -0.61,4.71 -1.20,3.40 -1.70,2.16 -2.20,0.93 -2.28,0.65 -2.36,0.37 -2.37,0.09 -2.38,-0.19 -2.32,-0.48 -2.26,-0.76 -2.14,-1.02 -2.02,-1.28 -1.83,-1.50 -1.65,-1.72 -1.42,-1.90 -1.19,-2.07 -0.92,-2.18 -0.66,-2.30 -0.37,-2.34 -0.09,-2.39 0.19,-2.36 0.48,-2.34 0.75,-2.25 1.03,-2.16 1.27,-2.00 1.51,-1.85 1.71,-1.64 1.91,-1.43 2.06,-1.18 2.20,-0.93 2.20,-0.93 L 2.20,-0.93 Z"></path></g><g transform="translate(74.57131804516393 60.06767286435843) rotate(263.0656510987302 7.352187688937192 0.15551684873014437)" stroke="none"><path fill="#1e1e1e" d="M 15.91,2.27 Q 15.91,2.27 14.28,2.31 12.65,2.35 11.14,2.40 9.63,2.46 8.17,2.50 6.71,2.54 4.45,2.43 2.20,2.32 0.67,2.36 -0.85,2.40 -1.18,2.35 -1.52,2.30 -1.82,2.15 -2.12,1.99 -2.36,1.75 -2.60,1.50 -2.74,1.20 -2.89,0.89 -2.93,0.55 -2.97,0.21 -2.90,-0.11 -2.83,-0.44 -2.66,-0.74 -2.49,-1.03 -2.23,-1.25 -1.98,-1.48 -1.66,-1.60 -1.35,-1.73 -1.01,-1.76 -0.67,-1.78 -0.34,-1.69 -0.01,-1.60 0.26,-1.42 0.55,-1.23 0.75,-0.96 0.96,-0.69 1.08,-0.37 1.19,-0.05 1.19,0.28 1.20,0.62 1.09,0.94 0.99,1.27 0.78,1.54 0.58,1.81 0.30,2.01 0.02,2.20 -0.30,2.29 -0.62,2.39 -0.96,2.37 -1.30,2.36 -1.62,2.24 -1.94,2.12 -2.20,1.90 -2.46,1.68 -2.64,1.39 -2.82,1.10 -2.89,0.77 -2.97,0.44 -2.94,0.10 -2.90,-0.23 -2.76,-0.54 -2.62,-0.85 -2.39,-1.10 -2.16,-1.35 -1.86,-1.51 -1.57,-1.67 -1.23,-1.73 -0.90,-1.79 -0.90,-1.79 -0.90,-1.79 0.63,-1.77 2.16,-1.76 4.39,-1.91 6.62,-2.06 8.07,-2.07 9.51,-2.08 11.01,-2.11 12.50,-2.14 14.13,-2.20 15.76,-2.27 16.03,-2.24 16.30,-2.22 16.56,-2.13 16.82,-2.04 17.05,-1.89 17.28,-1.75 17.47,-1.55 17.66,-1.35 17.79,-1.11 17.93,-0.87 18.00,-0.61 18.08,-0.34 18.09,-0.07 18.10,0.19 18.04,0.46 17.98,0.73 17.86,0.98 17.74,1.22 17.57,1.43 17.39,1.65 17.17,1.81 16.95,1.97 16.70,2.08 16.45,2.18 16.18,2.22 15.91,2.27 15.91,2.27 L 15.91,2.27 Z"></path></g><g transform="translate(128.34130612595618 122.21577531597586) rotate(0 11.725159860247004 0.7237100737540345)" stroke="none"><path fill="#1e1e1e" d="M -1.15,-2.60 Q -1.15,-2.60 -0.60,-2.92 -0.05,-3.24 1.06,-3.91 2.18,-4.58 3.18,-5.02 4.19,-5.47 5.26,-5.62 6.34,-5.77 7.61,-5.60 8.89,-5.42 10.02,-4.96 11.14,-4.49 12.12,-3.85 13.11,-3.21 14.50,-1.89 15.89,-0.58 16.87,0.39 17.85,1.36 18.22,0.21 18.60,-0.93 19.83,-2.36 21.05,-3.79 21.53,-4.08 22.02,-4.37 22.57,-4.49 23.12,-4.61 23.68,-4.55 24.24,-4.49 24.75,-4.25 25.26,-4.01 25.67,-3.63 26.08,-3.24 26.35,-2.74 26.61,-2.24 26.70,-1.69 26.80,-1.13 26.70,-0.57 26.61,-0.01 26.35,0.47 26.08,0.97 25.67,1.36 25.27,1.75 24.75,1.99 24.24,2.22 23.68,2.28 23.12,2.35 22.57,2.22 22.02,2.10 21.53,1.81 21.05,1.52 20.68,1.09 20.32,0.66 20.11,0.14 19.90,-0.38 19.87,-0.94 19.84,-1.50 19.99,-2.05 20.14,-2.59 20.46,-3.06 20.78,-3.53 21.22,-3.87 21.67,-4.21 22.21,-4.39 22.74,-4.57 23.31,-4.57 23.87,-4.57 24.41,-4.39 24.94,-4.21 25.39,-3.87 25.84,-3.53 26.16,-3.06 26.47,-2.59 26.62,-2.05 26.77,-1.50 26.74,-0.94 26.71,-0.38 26.50,0.14 26.30,0.66 25.93,1.09 25.57,1.52 25.57,1.52 25.57,1.52 24.32,2.93 23.07,4.35 21.76,5.20 20.45,6.05 19.42,6.57 18.38,7.09 16.53,7.06 14.67,7.03 13.28,5.85 11.88,4.68 10.71,3.40 9.53,2.12 8.30,1.25 7.07,0.38 5.82,0.52 4.56,0.67 3.45,1.13 2.34,1.58 1.75,1.83 1.15,2.08 0.86,2.18 0.56,2.28 0.25,2.32 -0.06,2.35 -0.37,2.30 -0.68,2.25 -0.97,2.14 -1.27,2.02 -1.52,1.83 -1.78,1.65 -1.98,1.41 -2.18,1.16 -2.32,0.88 -2.46,0.60 -2.53,0.29 -2.60,-0.01 -2.59,-0.32 -2.58,-0.64 -2.50,-0.94 -2.42,-1.24 -2.26,-1.52 -2.11,-1.79 -1.90,-2.03 -1.68,-2.26 -1.42,-2.43 -1.15,-2.60 -1.15,-2.60 L -1.15,-2.60 Z"></path></g><g transform="translate(101.51880487057497 137.04747351328024) rotate(0 11.725159860247004 0.7237100737540345)" stroke="none"><path fill="#1e1e1e" d="M -1.15,-2.60 Q -1.15,-2.60 -0.60,-2.92 -0.05,-3.24 1.06,-3.91 2.18,-4.58 3.18,-5.02 4.19,-5.47 5.26,-5.62 6.34,-5.77 7.61,-5.60 8.89,-5.42 10.02,-4.96 11.14,-4.49 12.12,-3.85 13.11,-3.21 14.50,-1.89 15.89,-0.58 16.87,0.39 17.85,1.36 18.22,0.21 18.60,-0.93 19.83,-2.36 21.05,-3.79 21.53,-4.08 22.02,-4.37 22.57,-4.49 23.12,-4.61 23.68,-4.55 24.24,-4.49 24.75,-4.25 25.26,-4.01 25.67,-3.63 26.08,-3.24 26.35,-2.74 26.61,-2.24 26.70,-1.69 26.80,-1.13 26.70,-0.57 26.61,-0.01 26.35,0.47 26.08,0.97 25.67,1.36 25.27,1.75 24.75,1.99 24.24,2.22 23.68,2.28 23.12,2.35 22.57,2.22 22.02,2.10 21.53,1.81 21.05,1.52 20.68,1.09 20.32,0.66 20.11,0.14 19.90,-0.38 19.87,-0.94 19.84,-1.50 19.99,-2.05 20.14,-2.59 20.46,-3.06 20.78,-3.53 21.22,-3.87 21.67,-4.21 22.21,-4.39 22.74,-4.57 23.31,-4.57 23.87,-4.57 24.41,-4.39 24.94,-4.21 25.39,-3.87 25.84,-3.53 26.16,-3.06 26.47,-2.59 26.62,-2.05 26.77,-1.50 26.74,-0.94 26.71,-0.38 26.50,0.14 26.30,0.66 25.93,1.09 25.57,1.52 25.57,1.52 25.57,1.52 24.32,2.93 23.07,4.35 21.76,5.20 20.45,6.05 19.42,6.57 18.38,7.09 16.53,7.06 14.67,7.03 13.28,5.85 11.88,4.68 10.71,3.40 9.53,2.12 8.30,1.25 7.07,0.38 5.82,0.52 4.56,0.67 3.45,1.13 2.34,1.58 1.75,1.83 1.15,2.08 0.86,2.18 0.56,2.28 0.25,2.32 -0.06,2.35 -0.37,2.30 -0.68,2.25 -0.97,2.14 -1.27,2.02 -1.52,1.83 -1.78,1.65 -1.98,1.41 -2.18,1.16 -2.32,0.88 -2.46,0.60 -2.53,0.29 -2.60,-0.01 -2.59,-0.32 -2.58,-0.64 -2.50,-0.94 -2.42,-1.24 -2.26,-1.52 -2.11,-1.79 -1.90,-2.03 -1.68,-2.26 -1.42,-2.43 -1.15,-2.60 -1.15,-2.60 L -1.15,-2.60 Z"></path></g></svg>