<svg version="1.1" xmlns="http://www.w3.org/2000/svg" viewBox="0 0 129.78252031375757 113.84469674289846" width="129.78252031375757" height="113.84469674289846">
  <!-- svg-source:excalidraw -->
  
  <defs>
    <style class="style-fonts">
      @font-face {
        font-family: "Virgil";
        src: url("https://excalidraw.com/Virgil.woff2");
      }
      @font-face {
        font-family: "Cascadia";
        src: url("https://excalidraw.com/Cascadia.woff2");
      }
      @font-face {
        font-family: "Assistant";
        src: url("https://excalidraw.com/Assistant-Regular.woff2");
      }
    </style>
    
  </defs>
  <g stroke-linecap="round"><g transform="translate(19.152392112034136 78.4349402988255) rotate(0 27.52510883714001 0.4008671016227936)" fill-rule="evenodd"><path d="M0 0 C0 0, 0.76 -4.14, 0 0 C-0.76 4.14, -6.71 23.24, -4.57 24.87 C-2.44 26.5, 5.48 9.71, 12.81 9.8 C20.14 9.89, 30.91 25.89, 39.42 25.4 C47.93 24.91, 63.87 13.76, 63.85 6.88 C63.83 0, 47.63 -14.82, 39.3 -15.87 C30.96 -16.93, 21.87 2.02, 13.85 0.57 C5.83 -0.89, -6.49 -24.5, -8.8 -24.6 C-11.11 -24.69, -1.47 -4.1, 0 0" stroke="none" stroke-width="0" fill="#228be6" fill-rule="evenodd"></path><path d="M0 0 C0 0, 0.76 -4.14, 0 0 C-0.76 4.14, -6.71 23.24, -4.57 24.87 C-2.44 26.5, 5.48 9.71, 12.81 9.8 C20.14 9.89, 30.91 25.89, 39.42 25.4 C47.93 24.91, 63.87 13.76, 63.85 6.88 C63.83 0, 47.63 -14.82, 39.3 -15.87 C30.96 -16.93, 21.87 2.02, 13.85 0.57 C5.83 -0.89, -6.49 -24.5, -8.8 -24.6 C-11.11 -24.69, -1.47 -4.1, 0 0 M0 0 C0 0, 0.76 -4.14, 0 0 C-0.76 4.14, -6.71 23.24, -4.57 24.87 C-2.44 26.5, 5.48 9.71, 12.81 9.8 C20.14 9.89, 30.91 25.89, 39.42 25.4 C47.93 24.91, 63.87 13.76, 63.85 6.88 C63.83 0, 47.63 -14.82, 39.3 -15.87 C30.96 -16.93, 21.87 2.02, 13.85 0.57 C5.83 -0.89, -6.49 -24.5, -8.8 -24.6 C-11.11 -24.69, -1.47 -4.1, 0 0" stroke="#228be6" stroke-width="1" fill="none"></path></g></g><mask></mask><g stroke-linecap="round" transform="translate(75.66434293139207 10) rotate(0 13.725655185624817 11.274645331048987)"><path d="M13.66 0.06 C16.59 -0.14, 20.33 1.03, 22.66 2.57 C25 4.12, 27.18 7.01, 27.67 9.32 C28.16 11.63, 27.01 14.36, 25.6 16.44 C24.19 18.52, 21.89 20.86, 19.2 21.81 C16.51 22.77, 12.26 22.93, 9.44 22.17 C6.63 21.41, 3.8 19.39, 2.3 17.23 C0.79 15.06, -0.01 11.61, 0.4 9.19 C0.81 6.77, 2.51 4.29, 4.76 2.7 C7 1.1, 12.22 0.01, 13.87 -0.37 C15.53 -0.74, 14.69 0.2, 14.68 0.44 M12.96 0.67 C15.73 0.46, 20.46 0.79, 22.85 2.14 C25.24 3.48, 26.68 6.26, 27.29 8.77 C27.9 11.27, 27.98 14.96, 26.49 17.18 C25.01 19.41, 21.34 21.28, 18.37 22.13 C15.41 22.98, 11.56 23.1, 8.72 22.3 C5.88 21.51, 2.7 19.56, 1.33 17.34 C-0.04 15.13, 0.04 11.57, 0.5 9.04 C0.95 6.5, 1.89 3.75, 4.07 2.13 C6.25 0.52, 12 -0.21, 13.58 -0.64 C15.16 -1.06, 13.64 -0.81, 13.55 -0.43" stroke="none" stroke-width="0" fill="#ced4da"></path><path d="M12.38 -0.14 C15.11 -0.45, 19.49 0.41, 21.97 1.8 C24.45 3.19, 26.59 5.79, 27.26 8.19 C27.94 10.6, 27.35 14.07, 26.04 16.22 C24.73 18.38, 22.19 20.1, 19.42 21.13 C16.65 22.15, 12.2 22.92, 9.4 22.36 C6.61 21.8, 4.19 19.8, 2.65 17.76 C1.11 15.72, -0.05 12.55, 0.17 10.12 C0.39 7.68, 1.87 4.78, 3.98 3.16 C6.1 1.55, 11.2 0.98, 12.86 0.42 C14.52 -0.14, 13.79 -0.38, 13.95 -0.2 M13.32 0.1 C15.97 -0.06, 19.81 0.66, 22.25 2.14 C24.7 3.62, 27.38 6.51, 27.97 8.99 C28.56 11.48, 27.38 14.92, 25.79 17.04 C24.21 19.17, 21.4 20.93, 18.46 21.74 C15.51 22.55, 10.94 22.74, 8.12 21.9 C5.3 21.06, 2.82 18.72, 1.54 16.69 C0.26 14.65, -0.17 12.1, 0.45 9.7 C1.08 7.3, 3.15 3.82, 5.3 2.28 C7.44 0.74, 11.77 0.7, 13.34 0.47 C14.91 0.24, 14.55 0.68, 14.72 0.91" stroke="#ced4da" stroke-width="1" fill="none"></path></g><g stroke-linecap="round" transform="translate(106.0568651281327 39.41211825491064) rotate(0 6.862827592812437 5.882423650982105)"><path d="M7.55 0.11 C8.99 0.13, 11.01 1.03, 12 1.82 C12.99 2.62, 13.32 3.69, 13.5 4.9 C13.69 6.11, 13.86 7.97, 13.11 9.1 C12.36 10.24, 10.44 11.33, 9.01 11.71 C7.57 12.1, 5.84 11.98, 4.5 11.4 C3.17 10.81, 1.71 9.34, 1.01 8.19 C0.3 7.04, 0.04 5.7, 0.27 4.47 C0.49 3.24, 1.25 1.54, 2.37 0.83 C3.49 0.11, 6.22 0.3, 7 0.17 C7.78 0.05, 7.03 -0.08, 7.07 0.06 M6.8 -0.34 C8.29 -0.68, 9.68 -0.12, 10.92 0.75 C12.16 1.61, 13.93 3.52, 14.24 4.85 C14.55 6.18, 13.62 7.61, 12.77 8.73 C11.92 9.85, 10.56 11.07, 9.17 11.58 C7.77 12.09, 5.68 12.27, 4.42 11.8 C3.15 11.32, 2.4 9.92, 1.56 8.74 C0.73 7.55, -0.69 5.98, -0.59 4.7 C-0.49 3.42, 0.99 1.96, 2.16 1.07 C3.32 0.18, 5.76 -0.57, 6.39 -0.64 C7.01 -0.71, 5.99 0.45, 5.92 0.63" stroke="none" stroke-width="0" fill="#ced4da"></path><path d="M5.97 -0.31 C7.45 -0.6, 9.41 -0.25, 10.64 0.46 C11.88 1.18, 12.9 2.79, 13.37 3.97 C13.83 5.15, 14.03 6.34, 13.41 7.56 C12.8 8.78, 10.93 10.59, 9.66 11.31 C8.4 12.03, 7.19 12.15, 5.84 11.87 C4.49 11.59, 2.61 10.63, 1.59 9.62 C0.58 8.6, -0.19 6.97, -0.25 5.77 C-0.31 4.57, 0.14 3.44, 1.22 2.41 C2.3 1.39, 5.29 -0.08, 6.24 -0.39 C7.19 -0.71, 6.92 0.3, 6.93 0.51 M5.66 -0.62 C7.27 -0.93, 10.04 -0.34, 11.4 0.46 C12.75 1.27, 13.46 2.94, 13.79 4.21 C14.13 5.48, 14.19 6.9, 13.43 8.08 C12.66 9.26, 10.61 10.71, 9.21 11.29 C7.81 11.87, 6.3 11.79, 5.02 11.56 C3.73 11.34, 2.29 10.99, 1.49 9.94 C0.68 8.89, 0.23 6.53, 0.19 5.24 C0.15 3.96, 0.15 3, 1.27 2.24 C2.39 1.49, 6 0.94, 6.89 0.71 C7.77 0.48, 6.67 0.8, 6.58 0.87" stroke="#ced4da" stroke-width="1" fill="none"></path></g><g stroke-linecap="round" transform="translate(93.8018158552535 64.9026207424995) rotate(0 3.186312810948664 3.6765147818638297)"><path d="M3.56 0.18 C4.15 0.1, 4.65 0.25, 5.16 0.74 C5.68 1.24, 6.51 2.3, 6.65 3.13 C6.79 3.96, 6.36 5.03, 5.99 5.71 C5.62 6.39, 5.05 7.02, 4.42 7.21 C3.79 7.4, 2.87 7.16, 2.21 6.85 C1.55 6.55, 0.86 6.07, 0.46 5.38 C0.07 4.69, -0.25 3.47, -0.17 2.72 C-0.08 1.98, 0.43 1.39, 0.97 0.93 C1.51 0.46, 2.68 0.05, 3.08 -0.05 C3.48 -0.15, 3.35 0.31, 3.37 0.35 M3.72 -0.18 C4.4 -0.02, 5.66 0.89, 6.07 1.55 C6.48 2.22, 6.3 3.03, 6.17 3.81 C6.04 4.58, 5.76 5.6, 5.3 6.2 C4.83 6.81, 3.96 7.38, 3.39 7.44 C2.82 7.5, 2.48 7.05, 1.89 6.57 C1.29 6.1, 0.08 5.34, -0.19 4.59 C-0.47 3.84, -0.04 2.83, 0.25 2.08 C0.55 1.34, 1.06 0.39, 1.59 0.1 C2.11 -0.18, 3.11 0.39, 3.41 0.37 C3.7 0.35, 3.35 -0.05, 3.38 -0.02" stroke="none" stroke-width="0" fill="#ced4da"></path><path d="M3.14 -0.26 C3.77 -0.31, 4.55 0.24, 5.09 0.71 C5.64 1.17, 6.29 1.72, 6.4 2.52 C6.5 3.32, 6 4.73, 5.71 5.51 C5.42 6.29, 5.23 6.91, 4.66 7.2 C4.1 7.49, 3.05 7.49, 2.33 7.24 C1.61 6.99, 0.79 6.33, 0.35 5.71 C-0.08 5.09, -0.42 4.35, -0.31 3.52 C-0.19 2.69, 0.44 1.26, 1.05 0.72 C1.65 0.17, 2.97 0.34, 3.31 0.26 C3.66 0.18, 3.18 0.27, 3.11 0.24 M3.7 -0.37 C4.45 -0.34, 5.03 0.31, 5.5 0.86 C5.98 1.42, 6.54 2.18, 6.54 2.97 C6.54 3.77, 5.89 4.96, 5.48 5.66 C5.08 6.35, 4.66 6.83, 4.11 7.14 C3.55 7.45, 2.76 7.82, 2.16 7.51 C1.56 7.21, 0.93 6.02, 0.51 5.31 C0.08 4.6, -0.58 3.94, -0.39 3.27 C-0.2 2.6, 1.02 1.73, 1.67 1.26 C2.32 0.8, 3.24 0.63, 3.52 0.49 C3.8 0.35, 3.4 0.52, 3.35 0.42" stroke="#ced4da" stroke-width="1" fill="none"></path></g><g stroke-linecap="round" transform="translate(97.72343162257482 79.31473899741013) rotate(0 3.186312810948607 3.6765147818638297)"><path d="M3.18 -0.16 C3.83 -0.2, 5.1 0.39, 5.64 0.97 C6.17 1.55, 6.34 2.52, 6.41 3.31 C6.49 4.09, 6.43 5.08, 6.08 5.68 C5.74 6.28, 5.01 6.69, 4.34 6.92 C3.66 7.14, 2.76 7.3, 2.06 7.01 C1.36 6.72, 0.51 5.82, 0.15 5.15 C-0.22 4.49, -0.28 3.76, -0.14 3.02 C0 2.28, 0.4 1.18, 0.98 0.73 C1.57 0.27, 2.96 0.42, 3.35 0.27 C3.75 0.13, 3.29 -0.19, 3.35 -0.13 M3.43 0.32 C4.03 0.29, 4.42 0.46, 4.83 0.91 C5.24 1.35, 5.75 2.24, 5.89 2.99 C6.02 3.74, 5.82 4.8, 5.63 5.41 C5.44 6.03, 5.35 6.46, 4.73 6.68 C4.11 6.91, 2.6 7.01, 1.92 6.79 C1.24 6.56, 0.96 5.99, 0.65 5.34 C0.34 4.69, 0.07 3.55, 0.08 2.89 C0.09 2.23, 0.27 1.88, 0.7 1.38 C1.13 0.88, 2.3 0.07, 2.67 -0.12 C3.04 -0.31, 2.83 0.09, 2.93 0.23" stroke="none" stroke-width="0" fill="#ced4da"></path><path d="M2.79 0.01 C3.42 -0.14, 4.5 -0.19, 5.02 0.27 C5.54 0.73, 5.69 1.93, 5.91 2.76 C6.13 3.59, 6.55 4.54, 6.35 5.25 C6.15 5.95, 5.38 6.65, 4.7 6.99 C4.03 7.33, 3.05 7.42, 2.32 7.28 C1.58 7.15, 0.7 6.86, 0.32 6.18 C-0.06 5.5, -0.09 4.01, 0.05 3.22 C0.18 2.43, 0.65 1.94, 1.12 1.44 C1.59 0.93, 2.6 0.46, 2.87 0.18 C3.15 -0.09, 2.77 -0.22, 2.78 -0.22 M2.95 -0.01 C3.54 -0.12, 4.59 -0.03, 5.07 0.41 C5.54 0.84, 5.62 1.83, 5.78 2.6 C5.95 3.37, 6.2 4.23, 6.04 5.02 C5.88 5.81, 5.39 6.97, 4.82 7.32 C4.26 7.68, 3.42 7.31, 2.65 7.14 C1.89 6.96, 0.6 6.78, 0.24 6.26 C-0.13 5.75, 0.34 4.78, 0.48 4.02 C0.62 3.26, 0.68 2.32, 1.07 1.72 C1.46 1.11, 2.55 0.74, 2.82 0.39 C3.09 0.04, 2.68 -0.41, 2.69 -0.37" stroke="#ced4da" stroke-width="1" fill="none"></path></g></svg>