<svg version="1.1" xmlns="http://www.w3.org/2000/svg" viewBox="0 0 197.5740756258947 188.819074968956" width="592.7222268776841" height="566.457224906868">
  <!-- svg-source:excalidraw -->
  
  <defs>
    <style class="style-fonts">
      @font-face {
        font-family: "Virgil";
        src: url("https://excalidraw.com/Virgil.woff2");
      }
      @font-face {
        font-family: "Cascadia";
        src: url("https://excalidraw.com/Cascadia.woff2");
      }
      @font-face {
        font-family: "Assistant";
        src: url("https://excalidraw.com/Assistant-Regular.woff2");
      }
    </style>
    
  </defs>
  <g stroke-linecap="round" transform="translate(10 10) rotate(0 88.78703781294735 84.409537484478)"><path d="M0 0 C51.45 0, 102.89 0, 177.57 0 M0 0 C61.27 0, 122.55 0, 177.57 0 M177.57 0 C177.57 55.54, 177.57 111.09, 177.57 168.82 M177.57 0 C177.57 63.37, 177.57 126.74, 177.57 168.82 M177.57 168.82 C129.15 168.82, 80.73 168.82, 0 168.82 M177.57 168.82 C107.19 168.82, 36.81 168.82, 0 168.82 M0 168.82 C0 121.18, 0 73.54, 0 0 M0 168.82 C0 108.88, 0 48.94, 0 0" stroke="transparent" stroke-width="4" fill="none"></path></g><g stroke-linecap="round" transform="translate(93.29033410047123 21.78364005890171) rotate(0 40.89486142333135 32.98313411241941)"><path d="M61.14 3.65 C68.16 6.29, 74.64 13.31, 77.86 19.31 C81.08 25.31, 81.86 33.25, 80.47 39.66 C79.08 46.06, 75.34 53.5, 69.52 57.74 C63.7 61.98, 53.57 64.51, 45.55 65.11 C37.53 65.71, 28.17 64.48, 21.38 61.34 C14.6 58.2, 8.21 52.09, 4.85 46.25 C1.5 40.41, -0.08 32.44, 1.24 26.29 C2.57 20.13, 6.96 13.6, 12.82 9.31 C18.69 5.03, 28.16 1.53, 36.43 0.58 C44.7 -0.37, 58.04 2.7, 62.46 3.59 C66.89 4.49, 63.57 5.16, 62.98 5.95 M57.15 2.23 C64.39 4.51, 73.26 11.12, 77.4 17.14 C81.53 23.17, 83.24 31.98, 81.96 38.38 C80.68 44.79, 75.12 50.88, 69.72 55.58 C64.33 60.28, 57.49 65.48, 49.57 66.6 C41.65 67.71, 29.58 65.21, 22.21 62.28 C14.83 59.35, 8.79 54.82, 5.31 48.99 C1.83 43.16, 0.35 33.63, 1.31 27.31 C2.27 20.99, 5.52 15.53, 11.09 11.07 C16.66 6.61, 26.66 1.76, 34.73 0.56 C42.8 -0.64, 55.65 3.27, 59.5 3.89 C63.34 4.51, 58.05 4.01, 57.8 4.29" stroke="none" stroke-width="0" fill="#1971c2"></path><path d="M57.68 3.58 C64.87 5.7, 72.77 11.54, 76.82 17.05 C80.88 22.57, 83.08 30.23, 82.01 36.66 C80.93 43.1, 75.83 50.89, 70.36 55.65 C64.89 60.4, 56.83 64.12, 49.2 65.21 C41.58 66.29, 31.76 64.8, 24.61 62.16 C17.45 59.53, 10.39 54.68, 6.27 49.39 C2.15 44.1, -0.81 36.92, -0.1 30.45 C0.61 23.97, 5.21 15.51, 10.54 10.52 C15.88 5.52, 23.03 1.28, 31.89 0.46 C40.74 -0.36, 57.75 4.17, 63.65 5.59 C69.55 7.02, 67.72 8.51, 67.29 9 M60.38 3.75 C67.63 6.2, 75.15 11.73, 78.57 17.65 C82 23.58, 82.34 32.72, 80.95 39.31 C79.56 45.89, 75.9 52.84, 70.23 57.17 C64.55 61.51, 55.11 64.32, 46.9 65.3 C38.68 66.28, 28.1 66.01, 20.93 63.04 C13.76 60.07, 7.26 53.31, 3.87 47.47 C0.48 41.63, -0.61 34.35, 0.61 27.99 C1.83 21.63, 5.52 13.88, 11.21 9.31 C16.91 4.74, 26.56 1.49, 34.79 0.57 C43.02 -0.35, 56.28 3.1, 60.61 3.8 C64.93 4.5, 60.98 4.46, 60.73 4.75" stroke="#1971c2" stroke-width="2" fill="none"></path></g><g stroke-linecap="round"><g transform="translate(43.6408984235386 115.0665854324875) rotate(0 55.8257897559979 18.258605123304676)" fill-rule="evenodd"><path d="M1.76 0 L4.05 35.77 L28.73 23.74 L73.19 35.69 L111.13 21.9 L70.07 5.35 L28.27 20.93 L1 1.15" stroke="none" stroke-width="0" fill="#1e1e1e" fill-rule="evenodd"></path><path d="M0 0 C1.85 11.2, 2.17 22.33, 2.68 34.85 M0 0 C1.45 11.38, 2.75 24.46, 2.68 34.85 M2.68 34.85 C12.03 31.34, 17.75 29.82, 29.15 23.09 M2.68 34.85 C10.64 31.65, 19.27 26.93, 29.15 23.09 M29.15 23.09 C42.88 26.1, 51.86 31.14, 71.46 36.52 M29.15 23.09 C41.75 27.85, 55.09 31.75, 71.46 36.52 M71.46 36.52 C84.73 31.93, 95.54 28.18, 111.65 22.18 M71.46 36.52 C84.9 31.9, 98.93 26.99, 111.65 22.18 M111.65 22.18 C93.84 14.11, 77.18 10.88, 69.4 4.45 M111.65 22.18 C100.45 17.92, 90.47 12.75, 69.4 4.45 M69.4 4.45 C53.85 9.22, 40.72 14.83, 29.04 20.13 M69.4 4.45 C52.87 10.81, 38 17.71, 29.04 20.13 M29.04 20.13 C20.52 13.71, 8.42 8.35, 0 0 M29.04 20.13 C16.89 11.58, 6.86 4.35, 0 0 M0 0 C0 0, 0 0, 0 0 M0 0 C0 0, 0 0, 0 0" stroke="#1e1e1e" stroke-width="2" fill="none"></path></g></g><mask></mask><g stroke-linecap="round" transform="translate(155.30966558765795 107.53695248499616) rotate(0 4.395505937030066 3.9253613835926444)"><path d="M5.34 -0.07 C6.26 0.04, 7.2 0.84, 7.74 1.53 C8.29 2.23, 8.55 3.23, 8.58 4.09 C8.62 4.95, 8.56 6.1, 7.97 6.68 C7.37 7.27, 5.95 7.51, 5 7.59 C4.05 7.67, 2.99 7.57, 2.26 7.14 C1.52 6.71, 0.89 5.8, 0.58 5.01 C0.28 4.22, 0.17 3.14, 0.43 2.41 C0.7 1.68, 1.34 1.02, 2.17 0.64 C3 0.27, 4.88 0.3, 5.43 0.16 C5.98 0.03, 5.5 -0.24, 5.48 -0.18 M3.89 -0.1 C4.62 -0.36, 5.59 -0.14, 6.41 0.35 C7.24 0.83, 8.45 1.89, 8.81 2.82 C9.18 3.74, 9.05 5.13, 8.58 5.9 C8.12 6.66, 6.84 7.05, 6.04 7.42 C5.23 7.8, 4.66 8.36, 3.73 8.13 C2.8 7.9, 1.07 6.8, 0.47 6.07 C-0.13 5.34, -0.06 4.62, 0.12 3.73 C0.31 2.84, 0.93 1.31, 1.56 0.73 C2.18 0.16, 3.42 0.38, 3.9 0.28 C4.37 0.17, 4.31 0.04, 4.38 0.1" stroke="none" stroke-width="0" fill="#ffffff"></path><path d="M5.09 0.13 C5.9 0.18, 6.69 0.87, 7.3 1.47 C7.9 2.07, 8.58 2.97, 8.7 3.72 C8.81 4.48, 8.5 5.31, 7.99 5.97 C7.48 6.64, 6.57 7.42, 5.62 7.71 C4.67 8, 3.15 8.1, 2.28 7.7 C1.41 7.3, 0.74 6.14, 0.37 5.3 C0 4.46, -0.24 3.44, 0.05 2.67 C0.34 1.9, 1.33 1.14, 2.12 0.69 C2.91 0.24, 4.29 0.04, 4.79 -0.03 C5.3 -0.1, 5.04 0.2, 5.13 0.26 M4.42 -0.21 C5.26 -0.28, 6.13 0.45, 6.87 1.01 C7.62 1.58, 8.65 2.41, 8.9 3.17 C9.14 3.92, 8.87 4.76, 8.37 5.53 C7.86 6.29, 6.75 7.43, 5.86 7.78 C4.98 8.13, 3.92 7.89, 3.07 7.64 C2.22 7.4, 1.34 7, 0.78 6.31 C0.21 5.62, -0.42 4.35, -0.33 3.5 C-0.25 2.65, 0.51 1.76, 1.28 1.19 C2.06 0.61, 3.79 0.19, 4.32 0.03 C4.86 -0.13, 4.47 0.23, 4.5 0.23" stroke="#ffffff" stroke-width="4" fill="none"></path></g><g stroke-linecap="round" transform="translate(131.39733632037678 87.20464554335058) rotate(0 9.196313292481136 6.7432265704878205)"><path d="M9.04 0.23 C10.8 0.2, 13.1 0.86, 14.67 1.79 C16.25 2.73, 18.12 4.52, 18.5 5.84 C18.87 7.16, 17.94 8.57, 16.95 9.72 C15.96 10.87, 14.25 12.25, 12.54 12.74 C10.83 13.24, 8.49 13.16, 6.66 12.69 C4.84 12.22, 2.68 11.06, 1.59 9.92 C0.5 8.77, -0.21 7.2, 0.12 5.85 C0.44 4.5, 1.94 2.87, 3.55 1.81 C5.16 0.75, 8.7 -0.23, 9.77 -0.49 C10.85 -0.74, 10.14 0.01, 10.01 0.28 M10.56 -0.32 C12.48 -0.08, 15.46 1.3, 16.8 2.62 C18.15 3.95, 18.85 6.18, 18.64 7.62 C18.43 9.07, 16.8 10.21, 15.52 11.28 C14.24 12.34, 12.93 13.88, 10.96 14.03 C8.98 14.18, 5.4 13.03, 3.67 12.17 C1.94 11.31, 1 10.33, 0.59 8.87 C0.17 7.41, 0.47 4.73, 1.2 3.44 C1.92 2.15, 3.14 1.68, 4.92 1.14 C6.7 0.59, 10.75 0.25, 11.88 0.17 C13.01 0.08, 11.86 0.49, 11.7 0.64" stroke="none" stroke-width="0" fill="#ffffff"></path><path d="M10.11 0.4 C11.92 0.5, 14.58 1.33, 15.98 2.28 C17.38 3.24, 18.4 4.67, 18.53 6.11 C18.66 7.55, 18.03 9.62, 16.74 10.9 C15.46 12.18, 12.82 13.53, 10.83 13.78 C8.84 14.04, 6.55 13.22, 4.82 12.43 C3.08 11.65, 1.1 10.34, 0.41 9.05 C-0.29 7.75, 0.04 6.03, 0.65 4.67 C1.25 3.3, 2.29 1.59, 4.04 0.87 C5.8 0.15, 9.82 0.46, 11.18 0.35 C12.54 0.25, 12.29 0.15, 12.22 0.26 M9.06 0.41 C10.9 0.43, 13.93 1.05, 15.46 1.89 C17 2.72, 18.07 3.97, 18.27 5.41 C18.47 6.85, 17.68 9.26, 16.66 10.52 C15.64 11.79, 13.91 12.52, 12.15 12.99 C10.39 13.46, 7.98 13.82, 6.07 13.34 C4.17 12.85, 1.7 11.34, 0.7 10.07 C-0.3 8.79, -0.42 7.09, 0.07 5.68 C0.57 4.27, 2.04 2.52, 3.66 1.6 C5.29 0.69, 8.8 0.55, 9.82 0.2 C10.84 -0.14, 9.98 -0.4, 9.77 -0.44" stroke="#ffffff" stroke-width="4" fill="none"></path></g><g stroke-linecap="round" transform="translate(153.09329233000608 58.07717232683672) rotate(0 11.49235159291402 8.830534116336025)"><path d="M10.07 0.33 C12.43 0.08, 16.23 0.97, 18.27 1.94 C20.3 2.91, 21.65 4.46, 22.27 6.17 C22.89 7.88, 22.89 10.49, 22 12.19 C21.1 13.89, 19.09 15.55, 16.9 16.37 C14.72 17.18, 11.35 17.45, 8.89 17.08 C6.43 16.7, 3.56 15.58, 2.14 14.12 C0.73 12.65, 0.16 10.29, 0.42 8.3 C0.68 6.3, 1.88 3.52, 3.69 2.16 C5.5 0.8, 10.03 0.39, 11.29 0.14 C12.55 -0.11, 11.23 0.52, 11.26 0.63 M11.07 -0.02 C13.54 -0.07, 16.71 1.16, 18.57 2.29 C20.44 3.41, 21.6 4.87, 22.23 6.72 C22.87 8.56, 23.5 11.69, 22.38 13.35 C21.26 15.02, 17.86 16, 15.53 16.68 C13.2 17.36, 10.6 18.04, 8.41 17.42 C6.22 16.81, 3.8 14.55, 2.4 13.02 C1 11.48, -0.29 9.99, 0.01 8.23 C0.32 6.46, 2.35 3.74, 4.23 2.43 C6.11 1.12, 10.22 0.7, 11.29 0.36 C12.36 0.03, 10.6 0.4, 10.63 0.44" stroke="none" stroke-width="0" fill="#ffffff"></path><path d="M12.19 0.01 C14.64 -0.11, 17.79 0.7, 19.64 2.01 C21.49 3.32, 23.1 5.83, 23.3 7.86 C23.5 9.9, 22.28 12.67, 20.84 14.21 C19.41 15.75, 17.05 16.68, 14.67 17.11 C12.3 17.53, 8.8 17.47, 6.57 16.75 C4.34 16.03, 2.41 14.47, 1.31 12.77 C0.21 11.07, -0.61 8.38, -0.03 6.57 C0.54 4.75, 2.49 2.97, 4.75 1.87 C7 0.76, 12.05 0.16, 13.5 -0.07 C14.94 -0.29, 13.53 0.29, 13.43 0.52 M10.58 0.37 C12.91 -0.04, 15.97 0.26, 17.87 1.32 C19.78 2.39, 21.35 4.93, 22.01 6.75 C22.67 8.58, 22.72 10.57, 21.83 12.28 C20.93 13.99, 18.88 16.15, 16.62 17 C14.35 17.85, 10.66 17.83, 8.25 17.36 C5.84 16.89, 3.48 15.68, 2.17 14.17 C0.86 12.66, 0.13 10.17, 0.4 8.29 C0.68 6.42, 2.07 4.41, 3.81 2.94 C5.54 1.47, 9.83 0.05, 10.8 -0.52 C11.77 -1.09, 9.6 -0.69, 9.65 -0.5" stroke="#ffffff" stroke-width="4" fill="none"></path></g></svg>