<svg version="1.1" xmlns="http://www.w3.org/2000/svg" viewBox="0 0 197.5740756258947 193.3704114147872" width="592.7222268776841" height="580.1112342443616">
  <!-- svg-source:excalidraw -->
  
  <defs>
    <style class="style-fonts">
      @font-face {
        font-family: "Virgil";
        src: url("https://excalidraw.com/Virgil.woff2");
      }
      @font-face {
        font-family: "Cascadia";
        src: url("https://excalidraw.com/Cascadia.woff2");
      }
      @font-face {
        font-family: "Assistant";
        src: url("https://excalidraw.com/Assistant-Regular.woff2");
      }
    </style>
    
  </defs>
  <g stroke-linecap="round" transform="translate(10 10) rotate(0 88.78703781294735 86.6852057073936)"><path d="M0 0 L177.57 0 L177.57 173.37 L0 173.37" stroke="none" stroke-width="0" fill="#d0bdef"></path><path d="M0 0 C62.17 0, 124.35 0, 177.57 0 M0 0 C63.73 0, 127.47 0, 177.57 0 M177.57 0 C177.57 64.05, 177.57 128.09, 177.57 173.37 M177.57 0 C177.57 68.47, 177.57 136.94, 177.57 173.37 M177.57 173.37 C111.4 173.37, 45.22 173.37, 0 173.37 M177.57 173.37 C115.26 173.37, 52.95 173.37, 0 173.37 M0 173.37 C0 126.53, 0 79.68, 0 0 M0 173.37 C0 120.85, 0 68.34, 0 0" stroke="#1e1e1e" stroke-width="4" fill="none"></path></g><g stroke-linecap="round" transform="translate(93.29033410047305 21.783640058901824) rotate(0 40.89486142333135 32.98313411241941)"><path d="M42.08 0.56 C49.86 0.02, 59.69 2.14, 66.18 5.94 C72.67 9.73, 78.83 17.04, 81.03 23.32 C83.23 29.6, 82.13 37.48, 79.4 43.63 C76.66 49.78, 71.24 56.55, 64.62 60.22 C58 63.89, 47.75 65.7, 39.67 65.64 C31.6 65.58, 22.45 63.65, 16.17 59.85 C9.89 56.06, 4.19 49.24, 2 42.87 C-0.19 36.5, 0.33 27.88, 3.02 21.62 C5.72 15.36, 10.34 8.76, 18.18 5.3 C26.01 1.84, 43.77 1.17, 50.05 0.88 C56.33 0.58, 56.1 3.14, 55.86 3.52 M43.82 1.53 C51.64 1.6, 61.27 4.82, 67.36 8.46 C73.45 12.1, 78.22 17.27, 80.35 23.35 C82.49 29.44, 83.11 38.89, 80.17 44.97 C77.24 51.05, 69.93 56.5, 62.75 59.84 C55.57 63.18, 45.28 65.45, 37.09 64.99 C28.9 64.53, 19.74 61.1, 13.62 57.07 C7.5 53.04, 2.26 46.86, 0.36 40.82 C-1.54 34.78, -0.84 27.01, 2.21 20.83 C5.26 14.66, 11.74 7.2, 18.67 3.76 C25.6 0.32, 39.45 0.43, 43.78 0.17 C48.11 -0.09, 44.92 1.69, 44.65 2.22" stroke="none" stroke-width="0" fill="#1971c2"></path><path d="M37.48 0.18 C44.83 -0.91, 55.16 0.98, 62.17 4.56 C69.17 8.13, 76.43 15.56, 79.53 21.63 C82.64 27.7, 83.07 34.93, 80.8 40.96 C78.53 46.98, 72.22 53.64, 65.94 57.78 C59.66 61.93, 50.79 65.19, 43.1 65.83 C35.42 66.46, 26.55 65.01, 19.83 61.58 C13.1 58.15, 5.85 51.55, 2.76 45.24 C-0.32 38.93, -0.63 29.89, 1.33 23.72 C3.29 17.55, 7.83 12.35, 14.52 8.23 C21.22 4.12, 36.36 0.29, 41.52 -0.97 C46.67 -2.24, 45.39 -0.2, 45.46 0.65 M50.62 0.04 C57.96 1.18, 65.95 6.09, 71.05 11.44 C76.16 16.79, 80.47 25.85, 81.27 32.16 C82.07 38.46, 79.96 44.11, 75.83 49.27 C71.69 54.43, 63.95 60.5, 56.46 63.12 C48.98 65.73, 38.69 66.7, 30.9 64.95 C23.1 63.19, 14.95 57.51, 9.68 52.59 C4.4 47.66, -0.4 41.42, -0.75 35.4 C-1.11 29.38, 2.85 21.77, 7.54 16.47 C12.22 11.18, 19.93 5.98, 27.34 3.62 C34.74 1.26, 48.14 2.54, 51.97 2.29 C55.79 2.04, 50.77 1.93, 50.3 2.12" stroke="#1971c2" stroke-width="2" fill="none"></path></g><g stroke-linecap="round"><g transform="translate(43.64089842353496 115.06658543248784) rotate(0 55.8257897559979 18.258605123304676)" fill-rule="evenodd"><path d="M1.78 2 L1.44 34.81 L31.05 24.11 L71.7 37.7 L112.76 22.1 L71.09 2.92 L29.73 18.4 L1.94 -0.7" stroke="none" stroke-width="0" fill="#1e1e1e" fill-rule="evenodd"></path><path d="M0 0 C-0.76 12.66, 2.94 29.24, 2.68 34.85 M0 0 C0.1 11.39, 1.59 24.16, 2.68 34.85 M2.68 34.85 C12.78 28.4, 22.03 27.3, 29.15 23.09 M2.68 34.85 C9.12 31.93, 16.72 29.56, 29.15 23.09 M29.15 23.09 C39.23 24.99, 51.28 29.95, 71.46 36.52 M29.15 23.09 C45.52 28.17, 61.19 33.63, 71.46 36.52 M71.46 36.52 C85.26 33.54, 99.4 29.25, 111.65 22.18 M71.46 36.52 C86.59 30.88, 102.04 24.5, 111.65 22.18 M111.65 22.18 C96.67 17.27, 83.82 11.35, 69.4 4.45 M111.65 22.18 C96.57 16.14, 81.4 10.3, 69.4 4.45 M69.4 4.45 C56.57 10.45, 44.34 14.91, 29.04 20.13 M69.4 4.45 C53.57 11.57, 39.23 16.51, 29.04 20.13 M29.04 20.13 C18.95 11.9, 8.61 6.3, 0 0 M29.04 20.13 C17.33 11.39, 6.66 4.23, 0 0 M0 0 C0 0, 0 0, 0 0 M0 0 C0 0, 0 0, 0 0" stroke="#1e1e1e" stroke-width="2" fill="none"></path></g></g><mask></mask><g stroke-linecap="round" transform="translate(155.30966558765795 107.53695248499628) rotate(0 4.395505937030066 3.9253613835926444)"><path d="M5.29 -0.11 C6.2 0.03, 7.13 0.96, 7.67 1.56 C8.22 2.15, 8.53 2.68, 8.55 3.47 C8.58 4.26, 8.36 5.6, 7.83 6.3 C7.3 6.99, 6.33 7.42, 5.38 7.63 C4.43 7.84, 3.02 7.93, 2.15 7.56 C1.28 7.19, 0.43 6.22, 0.16 5.41 C-0.12 4.6, 0.17 3.52, 0.5 2.69 C0.83 1.86, 1.34 0.83, 2.13 0.44 C2.91 0.04, 4.69 0.38, 5.21 0.31 C5.73 0.24, 5.24 0.04, 5.24 0.01 M3.81 0.4 C4.66 0.28, 5.97 0.24, 6.68 0.66 C7.39 1.09, 7.83 2.25, 8.09 2.95 C8.36 3.66, 8.55 4.21, 8.28 4.88 C8.01 5.55, 7.28 6.42, 6.5 6.99 C5.72 7.55, 4.48 8.35, 3.6 8.27 C2.71 8.19, 1.86 7.17, 1.19 6.49 C0.53 5.82, -0.35 5.07, -0.4 4.21 C-0.45 3.36, 0.11 2.13, 0.88 1.37 C1.64 0.61, 3.72 -0.18, 4.19 -0.35 C4.65 -0.51, 3.78 0.31, 3.69 0.41" stroke="none" stroke-width="0" fill="#ffffff"></path><path d="M3.83 0.05 C4.62 0.02, 5.78 0.55, 6.59 0.97 C7.39 1.39, 8.38 1.75, 8.66 2.55 C8.95 3.35, 8.72 5, 8.3 5.77 C7.87 6.55, 6.88 6.83, 6.11 7.2 C5.33 7.57, 4.51 8.19, 3.63 8 C2.74 7.81, 1.42 6.76, 0.8 6.06 C0.18 5.36, -0.12 4.67, -0.08 3.81 C-0.04 2.96, 0.38 1.55, 1.03 0.95 C1.68 0.36, 3.23 0.37, 3.8 0.25 C4.37 0.14, 4.36 0.23, 4.44 0.25 M4.2 -0.26 C5.05 -0.31, 5.91 0.76, 6.64 1.31 C7.36 1.86, 8.24 2.22, 8.53 3.03 C8.81 3.83, 8.77 5.38, 8.34 6.13 C7.91 6.89, 6.82 7.35, 5.96 7.55 C5.1 7.76, 4.04 7.6, 3.2 7.36 C2.35 7.11, 1.45 6.7, 0.89 6.09 C0.33 5.47, -0.32 4.52, -0.16 3.65 C0.01 2.79, 1.14 1.52, 1.89 0.9 C2.64 0.28, 3.98 0.13, 4.36 -0.07 C4.74 -0.27, 4.08 -0.44, 4.15 -0.29" stroke="#ffffff" stroke-width="4" fill="none"></path></g><g stroke-linecap="round" transform="translate(136.61560518499755 90.54433761670839) rotate(0 4.395505937030066 3.9253613835926444)"><path d="M4.57 0.11 C5.41 0.04, 6.39 0.49, 7.14 1.01 C7.88 1.52, 8.84 2.35, 9.04 3.18 C9.24 4.01, 8.86 5.25, 8.36 6 C7.87 6.75, 6.93 7.41, 6.05 7.69 C5.17 7.97, 4 7.95, 3.08 7.68 C2.17 7.4, 1.02 6.77, 0.56 6.01 C0.09 5.25, 0.12 3.92, 0.31 3.1 C0.5 2.27, 1.06 1.54, 1.7 1.06 C2.34 0.59, 3.71 0.38, 4.14 0.23 C4.58 0.08, 4.25 0.12, 4.32 0.17 M4.18 -0.44 C5.11 -0.63, 6.03 -0.05, 6.82 0.61 C7.62 1.26, 8.79 2.58, 8.97 3.5 C9.16 4.41, 8.39 5.41, 7.93 6.11 C7.47 6.82, 7.03 7.5, 6.22 7.73 C5.4 7.96, 4.01 7.83, 3.05 7.49 C2.09 7.15, 0.93 6.32, 0.46 5.71 C-0.01 5.1, -0.03 4.62, 0.22 3.81 C0.47 3, 1.23 1.51, 1.95 0.86 C2.66 0.21, 4.15 0.11, 4.51 -0.1 C4.87 -0.31, 4.14 -0.41, 4.11 -0.4" stroke="none" stroke-width="0" fill="#ffffff"></path><path d="M4.91 0.32 C5.8 0.41, 6.97 0.75, 7.6 1.33 C8.23 1.91, 8.65 2.97, 8.71 3.79 C8.77 4.61, 8.47 5.59, 7.97 6.26 C7.47 6.92, 6.6 7.56, 5.73 7.78 C4.86 8, 3.65 7.92, 2.75 7.58 C1.84 7.24, 0.74 6.51, 0.29 5.74 C-0.17 4.97, -0.18 3.83, 0.03 2.95 C0.24 2.08, 0.74 0.98, 1.56 0.5 C2.38 0.01, 4.42 0.14, 4.95 0.04 C5.48 -0.06, 4.74 -0.17, 4.74 -0.11 M4.63 0.25 C5.56 0.3, 7.53 0.93, 8.16 1.58 C8.78 2.23, 8.48 3.26, 8.37 4.13 C8.26 5, 8 6.2, 7.51 6.78 C7.02 7.36, 6.36 7.52, 5.43 7.6 C4.51 7.68, 2.88 7.65, 1.97 7.27 C1.06 6.89, 0.26 6.04, -0.03 5.32 C-0.32 4.59, -0.05 3.75, 0.23 2.94 C0.52 2.13, 0.91 1.01, 1.69 0.47 C2.48 -0.07, 4.46 -0.25, 4.96 -0.32 C5.47 -0.4, 4.65 -0.05, 4.71 0.01" stroke="#ffffff" stroke-width="4" fill="none"></path></g><g stroke-linecap="round" transform="translate(153.09329233000426 67.88751779232393) rotate(0 4.395505937030066 3.9253613835926444)"><path d="M4.17 0.14 C5.11 0.12, 6.8 0.58, 7.54 1.08 C8.28 1.58, 8.48 2.37, 8.6 3.14 C8.72 3.91, 8.75 4.96, 8.25 5.72 C7.76 6.49, 6.57 7.48, 5.61 7.74 C4.66 7.99, 3.41 7.61, 2.53 7.26 C1.65 6.9, 0.79 6.31, 0.33 5.62 C-0.12 4.93, -0.47 3.88, -0.22 3.12 C0.03 2.37, 0.96 1.56, 1.83 1.07 C2.69 0.59, 4.45 0.44, 4.96 0.24 C5.46 0.03, 4.86 -0.22, 4.84 -0.15 M3.7 -0.3 C4.66 -0.31, 6.52 0.5, 7.29 0.99 C8.06 1.48, 8.16 1.88, 8.32 2.66 C8.48 3.44, 8.53 4.88, 8.26 5.67 C7.98 6.46, 7.41 7, 6.68 7.39 C5.94 7.79, 4.82 8.26, 3.85 8.04 C2.88 7.82, 1.58 6.72, 0.87 6.05 C0.15 5.38, -0.55 4.81, -0.43 4.03 C-0.3 3.26, 0.9 2.12, 1.62 1.38 C2.34 0.64, 3.42 -0.2, 3.87 -0.42 C4.32 -0.64, 4.27 -0.03, 4.33 0.07" stroke="none" stroke-width="0" fill="#ffffff"></path><path d="M3.45 -0.14 C4.25 -0.27, 5.64 0.33, 6.54 0.76 C7.44 1.19, 8.46 1.66, 8.82 2.44 C9.19 3.23, 9.09 4.65, 8.72 5.47 C8.35 6.29, 7.49 7.02, 6.61 7.38 C5.72 7.74, 4.38 7.78, 3.41 7.63 C2.43 7.48, 1.28 7.07, 0.76 6.49 C0.24 5.91, 0.24 4.99, 0.28 4.16 C0.32 3.33, 0.42 2.21, 1 1.51 C1.58 0.81, 3.32 0.18, 3.76 -0.05 C4.19 -0.28, 3.63 0.11, 3.6 0.16 M3.85 0.34 C4.64 0.23, 5.64 0.57, 6.4 1.06 C7.15 1.56, 7.99 2.59, 8.38 3.32 C8.77 4.05, 9.16 4.71, 8.75 5.44 C8.33 6.18, 6.81 7.31, 5.92 7.75 C5.03 8.2, 4.24 8.36, 3.39 8.09 C2.53 7.82, 1.38 6.93, 0.82 6.14 C0.25 5.35, -0.01 4.12, 0.01 3.37 C0.03 2.62, 0.24 2.29, 0.93 1.66 C1.62 1.03, 3.68 -0.18, 4.14 -0.4 C4.61 -0.63, 3.69 0.16, 3.73 0.31" stroke="#ffffff" stroke-width="4" fill="none"></path></g></svg>