<svg version="1.1" xmlns="http://www.w3.org/2000/svg" viewBox="0 0 212.3478645076557 161.081565510485" width="637.0435935229671" height="483.244696531455">
  <!-- svg-source:excalidraw -->
  
  <defs>
    <style class="style-fonts">
      @font-face {
        font-family: "Virgil";
        src: url("https://excalidraw.com/Virgil.woff2");
      }
      @font-face {
        font-family: "Cascadia";
        src: url("https://excalidraw.com/Cascadia.woff2");
      }
      @font-face {
        font-family: "Assistant";
        src: url("https://excalidraw.com/Assistant-Regular.woff2");
      }
    </style>
    
  </defs>
  <g stroke-linecap="round" transform="translate(10 10) rotate(0 96.17393225382784 70.5407827552425)"><path d="M0 0 C57.26 0, 114.52 0, 192.35 0 M0 0 C43.56 0, 87.11 0, 192.35 0 M192.35 0 C192.35 50.61, 192.35 101.23, 192.35 141.08 M192.35 0 C192.35 46.88, 192.35 93.76, 192.35 141.08 M192.35 141.08 C123.38 141.08, 54.41 141.08, 0 141.08 M192.35 141.08 C152.42 141.08, 112.49 141.08, 0 141.08 M0 141.08 C0 86.17, 0 31.25, 0 0 M0 141.08 C0 89.03, 0 36.98, 0 0" stroke="transparent" stroke-width="4" fill="none"></path></g><g transform="translate(82.78318108792155 108.8853020062844) rotate(8.703279399419433 12.194209653181133 -4.451854317828008)" stroke="none"><path fill="#1e1e1e" d="M -1.76,-4.00 Q -1.76,-4.00 -0.88,-4.85 -0.00,-5.70 0.74,-6.57 1.48,-7.45 2.75,-8.06 4.02,-8.67 5.65,-8.26 7.28,-7.86 8.48,-7.16 9.67,-6.47 10.90,-5.65 12.13,-4.84 13.46,-4.25 14.79,-3.67 16.13,-4.28 17.47,-4.90 19.66,-7.56 21.85,-10.23 22.22,-10.56 22.59,-10.88 23.05,-11.07 23.50,-11.26 24.00,-11.30 24.49,-11.33 24.97,-11.20 25.44,-11.08 25.86,-10.81 26.27,-10.53 26.57,-10.14 26.88,-9.75 27.04,-9.29 27.21,-8.82 27.21,-8.33 27.22,-7.83 27.07,-7.36 26.92,-6.89 26.62,-6.50 26.33,-6.10 25.92,-5.82 25.52,-5.53 25.04,-5.40 24.57,-5.26 24.08,-5.28 23.58,-5.30 23.12,-5.47 22.66,-5.65 22.28,-5.97 21.90,-6.28 21.64,-6.70 21.38,-7.12 21.26,-7.60 21.15,-8.08 21.20,-8.57 21.25,-9.07 21.45,-9.52 21.65,-9.97 21.98,-10.33 22.32,-10.70 22.75,-10.93 23.19,-11.17 23.67,-11.26 24.16,-11.34 24.65,-11.27 25.14,-11.20 25.58,-10.97 26.02,-10.74 26.36,-10.39 26.70,-10.04 26.92,-9.59 27.13,-9.14 27.19,-8.65 27.25,-8.16 27.15,-7.68 27.05,-7.20 26.80,-6.77 26.55,-6.34 26.55,-6.34 26.55,-6.34 24.85,-4.19 23.15,-2.03 21.90,-0.78 20.65,0.45 18.90,1.43 17.16,2.41 15.84,2.56 14.53,2.71 12.96,2.28 11.38,1.86 9.75,0.92 8.12,-0.02 7.17,-0.72 6.21,-1.41 5.76,-2.43 5.30,-3.45 4.43,-2.67 3.56,-1.89 2.66,-1.07 1.76,-0.24 1.51,-0.06 1.26,0.11 0.97,0.23 0.68,0.35 0.37,0.40 0.07,0.44 -0.23,0.41 -0.54,0.38 -0.83,0.28 -1.13,0.18 -1.39,0.01 -1.65,-0.15 -1.86,-0.37 -2.07,-0.60 -2.23,-0.87 -2.38,-1.14 -2.46,-1.44 -2.54,-1.74 -2.55,-2.05 -2.56,-2.36 -2.50,-2.67 -2.43,-2.97 -2.29,-3.25 -2.16,-3.53 -1.96,-3.77 -1.76,-4.00 -1.76,-4.00 L -1.76,-4.00 Z"></path></g><g transform="translate(153.56903412727115 109.2338055775291) rotate(8.703279399419433 12.194209653181133 -4.451854317828008)" stroke="none"><path fill="#1e1e1e" d="M -1.76,-4.00 Q -1.76,-4.00 -0.88,-4.85 -0.00,-5.70 0.74,-6.57 1.48,-7.45 2.75,-8.06 4.02,-8.67 5.65,-8.26 7.28,-7.86 8.48,-7.16 9.67,-6.47 10.90,-5.65 12.13,-4.84 13.46,-4.25 14.79,-3.67 16.13,-4.28 17.47,-4.90 19.66,-7.56 21.85,-10.23 22.22,-10.56 22.59,-10.88 23.05,-11.07 23.50,-11.26 24.00,-11.30 24.49,-11.33 24.97,-11.20 25.44,-11.08 25.86,-10.81 26.27,-10.53 26.57,-10.14 26.88,-9.75 27.04,-9.29 27.21,-8.82 27.21,-8.33 27.22,-7.83 27.07,-7.36 26.92,-6.89 26.62,-6.50 26.33,-6.10 25.92,-5.82 25.52,-5.53 25.04,-5.40 24.57,-5.26 24.08,-5.28 23.58,-5.30 23.12,-5.47 22.66,-5.65 22.28,-5.97 21.90,-6.28 21.64,-6.70 21.38,-7.12 21.26,-7.60 21.15,-8.08 21.20,-8.57 21.25,-9.07 21.45,-9.52 21.65,-9.97 21.98,-10.33 22.32,-10.70 22.75,-10.93 23.19,-11.17 23.67,-11.26 24.16,-11.34 24.65,-11.27 25.14,-11.20 25.58,-10.97 26.02,-10.74 26.36,-10.39 26.70,-10.04 26.92,-9.59 27.13,-9.14 27.19,-8.65 27.25,-8.16 27.15,-7.68 27.05,-7.20 26.80,-6.77 26.55,-6.34 26.55,-6.34 26.55,-6.34 24.85,-4.19 23.15,-2.03 21.90,-0.78 20.65,0.45 18.90,1.43 17.16,2.41 15.84,2.56 14.53,2.71 12.96,2.28 11.38,1.86 9.75,0.92 8.12,-0.02 7.17,-0.72 6.21,-1.41 5.76,-2.43 5.30,-3.45 4.43,-2.67 3.56,-1.89 2.66,-1.07 1.76,-0.24 1.51,-0.06 1.26,0.11 0.97,0.23 0.68,0.35 0.37,0.40 0.07,0.44 -0.23,0.41 -0.54,0.38 -0.83,0.28 -1.13,0.18 -1.39,0.01 -1.65,-0.15 -1.86,-0.37 -2.07,-0.60 -2.23,-0.87 -2.38,-1.14 -2.46,-1.44 -2.54,-1.74 -2.55,-2.05 -2.56,-2.36 -2.50,-2.67 -2.43,-2.97 -2.29,-3.25 -2.16,-3.53 -1.96,-3.77 -1.76,-4.00 -1.76,-4.00 L -1.76,-4.00 Z"></path></g><g transform="translate(56.09207797657291 123.30371956965769) rotate(8.703279399419433 12.194209653181133 -4.451854317828008)" stroke="none"><path fill="#1e1e1e" d="M -1.76,-4.00 Q -1.76,-4.00 -0.88,-4.85 -0.00,-5.70 0.74,-6.57 1.48,-7.45 2.75,-8.06 4.02,-8.67 5.65,-8.26 7.28,-7.86 8.48,-7.16 9.67,-6.47 10.90,-5.65 12.13,-4.84 13.46,-4.25 14.79,-3.67 16.13,-4.28 17.47,-4.90 19.66,-7.56 21.85,-10.23 22.22,-10.56 22.59,-10.88 23.05,-11.07 23.50,-11.26 24.00,-11.30 24.49,-11.33 24.97,-11.20 25.44,-11.08 25.86,-10.81 26.27,-10.53 26.57,-10.14 26.88,-9.75 27.04,-9.29 27.21,-8.82 27.21,-8.33 27.22,-7.83 27.07,-7.36 26.92,-6.89 26.62,-6.50 26.33,-6.10 25.92,-5.82 25.52,-5.53 25.04,-5.40 24.57,-5.26 24.08,-5.28 23.58,-5.30 23.12,-5.47 22.66,-5.65 22.28,-5.97 21.90,-6.28 21.64,-6.70 21.38,-7.12 21.26,-7.60 21.15,-8.08 21.20,-8.57 21.25,-9.07 21.45,-9.52 21.65,-9.97 21.98,-10.33 22.32,-10.70 22.75,-10.93 23.19,-11.17 23.67,-11.26 24.16,-11.34 24.65,-11.27 25.14,-11.20 25.58,-10.97 26.02,-10.74 26.36,-10.39 26.70,-10.04 26.92,-9.59 27.13,-9.14 27.19,-8.65 27.25,-8.16 27.15,-7.68 27.05,-7.20 26.80,-6.77 26.55,-6.34 26.55,-6.34 26.55,-6.34 24.85,-4.19 23.15,-2.03 21.90,-0.78 20.65,0.45 18.90,1.43 17.16,2.41 15.84,2.56 14.53,2.71 12.96,2.28 11.38,1.86 9.75,0.92 8.12,-0.02 7.17,-0.72 6.21,-1.41 5.76,-2.43 5.30,-3.45 4.43,-2.67 3.56,-1.89 2.66,-1.07 1.76,-0.24 1.51,-0.06 1.26,0.11 0.97,0.23 0.68,0.35 0.37,0.40 0.07,0.44 -0.23,0.41 -0.54,0.38 -0.83,0.28 -1.13,0.18 -1.39,0.01 -1.65,-0.15 -1.86,-0.37 -2.07,-0.60 -2.23,-0.87 -2.38,-1.14 -2.46,-1.44 -2.54,-1.74 -2.55,-2.05 -2.56,-2.36 -2.50,-2.67 -2.43,-2.97 -2.29,-3.25 -2.16,-3.53 -1.96,-3.77 -1.76,-4.00 -1.76,-4.00 L -1.76,-4.00 Z"></path></g><g transform="translate(125.87793101592251 123.65222314090283) rotate(8.703279399419433 12.194209653181133 -4.451854317828008)" stroke="none"><path fill="#1e1e1e" d="M -1.76,-4.00 Q -1.76,-4.00 -0.88,-4.85 -0.00,-5.70 0.74,-6.57 1.48,-7.45 2.75,-8.06 4.02,-8.67 5.65,-8.26 7.28,-7.86 8.48,-7.16 9.67,-6.47 10.90,-5.65 12.13,-4.84 13.46,-4.25 14.79,-3.67 16.13,-4.28 17.47,-4.90 19.66,-7.56 21.85,-10.23 22.22,-10.56 22.59,-10.88 23.05,-11.07 23.50,-11.26 24.00,-11.30 24.49,-11.33 24.97,-11.20 25.44,-11.08 25.86,-10.81 26.27,-10.53 26.57,-10.14 26.88,-9.75 27.04,-9.29 27.21,-8.82 27.21,-8.33 27.22,-7.83 27.07,-7.36 26.92,-6.89 26.62,-6.50 26.33,-6.10 25.92,-5.82 25.52,-5.53 25.04,-5.40 24.57,-5.26 24.08,-5.28 23.58,-5.30 23.12,-5.47 22.66,-5.65 22.28,-5.97 21.90,-6.28 21.64,-6.70 21.38,-7.12 21.26,-7.60 21.15,-8.08 21.20,-8.57 21.25,-9.07 21.45,-9.52 21.65,-9.97 21.98,-10.33 22.32,-10.70 22.75,-10.93 23.19,-11.17 23.67,-11.26 24.16,-11.34 24.65,-11.27 25.14,-11.20 25.58,-10.97 26.02,-10.74 26.36,-10.39 26.70,-10.04 26.92,-9.59 27.13,-9.14 27.19,-8.65 27.25,-8.16 27.15,-7.68 27.05,-7.20 26.80,-6.77 26.55,-6.34 26.55,-6.34 26.55,-6.34 24.85,-4.19 23.15,-2.03 21.90,-0.78 20.65,0.45 18.90,1.43 17.16,2.41 15.84,2.56 14.53,2.71 12.96,2.28 11.38,1.86 9.75,0.92 8.12,-0.02 7.17,-0.72 6.21,-1.41 5.76,-2.43 5.30,-3.45 4.43,-2.67 3.56,-1.89 2.66,-1.07 1.76,-0.24 1.51,-0.06 1.26,0.11 0.97,0.23 0.68,0.35 0.37,0.40 0.07,0.44 -0.23,0.41 -0.54,0.38 -0.83,0.28 -1.13,0.18 -1.39,0.01 -1.65,-0.15 -1.86,-0.37 -2.07,-0.60 -2.23,-0.87 -2.38,-1.14 -2.46,-1.44 -2.54,-1.74 -2.55,-2.05 -2.56,-2.36 -2.50,-2.67 -2.43,-2.97 -2.29,-3.25 -2.16,-3.53 -1.96,-3.77 -1.76,-4.00 -1.76,-4.00 L -1.76,-4.00 Z"></path></g><g transform="translate(51.429870438914804 51.66241391076858) rotate(263.0656510987302 -4.229003860455123 6.841011138412512)" stroke="none"><path fill="#1e1e1e" d="M 2.57,1.44 Q 2.57,1.44 1.49,2.73 0.41,4.03 -0.91,5.70 -2.24,7.37 -3.27,8.74 -4.29,10.11 -4.95,11.14 -5.61,12.17 -6.44,13.43 -7.27,14.70 -7.51,14.96 -7.76,15.21 -8.08,15.37 -8.40,15.54 -8.75,15.59 -9.10,15.64 -9.45,15.58 -9.80,15.52 -10.12,15.35 -10.43,15.17 -10.67,14.91 -10.91,14.65 -11.06,14.32 -11.20,14.00 -11.24,13.64 -11.27,13.29 -11.19,12.94 -11.11,12.60 -10.92,12.29 -10.73,11.99 -10.46,11.76 -10.18,11.54 -9.85,11.41 -9.51,11.28 -9.16,11.27 -8.80,11.25 -8.46,11.35 -8.12,11.45 -7.83,11.66 -7.53,11.86 -7.32,12.15 -7.11,12.43 -7.00,12.77 -6.89,13.11 -6.90,13.47 -6.90,13.83 -7.02,14.16 -7.14,14.50 -7.36,14.78 -7.58,15.06 -7.88,15.26 -8.17,15.45 -8.52,15.54 -8.86,15.63 -9.22,15.61 -9.57,15.58 -9.90,15.45 -10.23,15.31 -10.50,15.08 -10.77,14.84 -10.95,14.53 -11.13,14.23 -11.20,13.88 -11.27,13.53 -11.23,13.17 -11.18,12.82 -11.03,12.50 -10.88,12.18 -10.88,12.18 -10.88,12.18 -9.98,10.92 -9.09,9.67 -8.30,8.68 -7.51,7.69 -6.51,6.37 -5.51,5.05 -4.29,3.13 -3.08,1.21 -2.04,-0.11 -1.00,-1.44 -0.80,-1.63 -0.60,-1.82 -0.36,-1.96 -0.12,-2.10 0.13,-2.18 0.40,-2.26 0.68,-2.27 0.95,-2.28 1.22,-2.23 1.49,-2.18 1.75,-2.06 2.00,-1.94 2.21,-1.77 2.43,-1.59 2.59,-1.37 2.76,-1.15 2.87,-0.90 2.98,-0.65 3.03,-0.37 3.07,-0.10 3.05,0.17 3.03,0.44 2.94,0.71 2.86,0.97 2.71,1.20 2.57,1.44 2.57,1.44 L 2.57,1.44 Z"></path></g><g transform="translate(43.30091237313172 50.08870305695348) rotate(263.0656510987302 3.1960207134434313 6.52977254561273)" stroke="none"><path fill="#1e1e1e" d="M 2.20,-0.93 Q 2.20,-0.93 2.74,0.28 3.28,1.50 3.85,2.76 4.43,4.02 5.12,5.74 5.82,7.47 6.99,9.50 8.16,11.52 8.33,11.86 8.49,12.20 8.54,12.57 8.59,12.95 8.52,13.32 8.44,13.69 8.25,14.02 8.06,14.35 7.78,14.60 7.50,14.85 7.15,14.99 6.80,15.14 6.42,15.17 6.05,15.19 5.68,15.10 5.32,15.01 5.00,14.80 4.68,14.59 4.45,14.30 4.21,14.00 4.08,13.65 3.96,13.29 3.95,12.91 3.94,12.53 4.06,12.17 4.17,11.81 4.39,11.51 4.62,11.20 4.92,10.98 5.23,10.77 5.60,10.66 5.96,10.55 6.34,10.56 6.71,10.58 7.07,10.71 7.42,10.84 7.71,11.08 8.01,11.32 8.21,11.64 8.41,11.96 8.50,12.33 8.59,12.70 8.55,13.07 8.52,13.45 8.37,13.80 8.21,14.14 7.96,14.42 7.70,14.70 7.37,14.88 7.04,15.07 6.67,15.14 6.30,15.20 5.93,15.15 5.55,15.10 5.21,14.93 4.88,14.75 4.61,14.48 4.35,14.22 4.35,14.22 4.35,14.22 2.99,11.79 1.64,9.36 0.80,7.69 -0.03,6.03 -0.61,4.71 -1.20,3.40 -1.70,2.16 -2.20,0.93 -2.28,0.65 -2.36,0.37 -2.37,0.09 -2.38,-0.19 -2.32,-0.48 -2.26,-0.76 -2.14,-1.02 -2.02,-1.28 -1.83,-1.50 -1.65,-1.72 -1.42,-1.90 -1.19,-2.07 -0.92,-2.18 -0.66,-2.30 -0.37,-2.34 -0.09,-2.39 0.19,-2.36 0.48,-2.34 0.75,-2.25 1.03,-2.16 1.27,-2.00 1.51,-1.85 1.71,-1.64 1.91,-1.43 2.06,-1.18 2.20,-0.93 2.20,-0.93 L 2.20,-0.93 Z"></path></g><g transform="translate(38.23589697192074 57.50863149157442) rotate(263.0656510987302 7.352187688937192 0.15551684873014437)" stroke="none"><path fill="#1e1e1e" d="M 15.91,2.27 Q 15.91,2.27 14.28,2.31 12.65,2.35 11.14,2.40 9.63,2.46 8.17,2.50 6.71,2.54 4.45,2.43 2.20,2.32 0.67,2.36 -0.85,2.40 -1.18,2.35 -1.52,2.30 -1.82,2.15 -2.12,1.99 -2.36,1.75 -2.60,1.50 -2.74,1.20 -2.89,0.89 -2.93,0.55 -2.97,0.21 -2.90,-0.11 -2.83,-0.44 -2.66,-0.74 -2.49,-1.03 -2.23,-1.25 -1.98,-1.48 -1.66,-1.60 -1.35,-1.73 -1.01,-1.76 -0.67,-1.78 -0.34,-1.69 -0.01,-1.60 0.26,-1.42 0.55,-1.23 0.75,-0.96 0.96,-0.69 1.08,-0.37 1.19,-0.05 1.19,0.28 1.20,0.62 1.09,0.94 0.99,1.27 0.78,1.54 0.58,1.81 0.30,2.01 0.02,2.20 -0.30,2.29 -0.62,2.39 -0.96,2.37 -1.30,2.36 -1.62,2.24 -1.94,2.12 -2.20,1.90 -2.46,1.68 -2.64,1.39 -2.82,1.10 -2.89,0.77 -2.97,0.44 -2.94,0.10 -2.90,-0.23 -2.76,-0.54 -2.62,-0.85 -2.39,-1.10 -2.16,-1.35 -1.86,-1.51 -1.57,-1.67 -1.23,-1.73 -0.90,-1.79 -0.90,-1.79 -0.90,-1.79 0.63,-1.77 2.16,-1.76 4.39,-1.91 6.62,-2.06 8.07,-2.07 9.51,-2.08 11.01,-2.11 12.50,-2.14 14.13,-2.20 15.76,-2.27 16.03,-2.24 16.30,-2.22 16.56,-2.13 16.82,-2.04 17.05,-1.89 17.28,-1.75 17.47,-1.55 17.66,-1.35 17.79,-1.11 17.93,-0.87 18.00,-0.61 18.08,-0.34 18.09,-0.07 18.10,0.19 18.04,0.46 17.98,0.73 17.86,0.98 17.74,1.22 17.57,1.43 17.39,1.65 17.17,1.81 16.95,1.97 16.70,2.08 16.45,2.18 16.18,2.22 15.91,2.27 15.91,2.27 L 15.91,2.27 Z"></path></g><g transform="translate(78.6626186204885 36.77466557453283) rotate(263.0656510987302 -4.229003860455123 6.841011138412512)" stroke="none"><path fill="#1e1e1e" d="M 2.57,1.44 Q 2.57,1.44 1.49,2.73 0.41,4.03 -0.91,5.70 -2.24,7.37 -3.27,8.74 -4.29,10.11 -4.95,11.14 -5.61,12.17 -6.44,13.43 -7.27,14.70 -7.51,14.96 -7.76,15.21 -8.08,15.37 -8.40,15.54 -8.75,15.59 -9.10,15.64 -9.45,15.58 -9.80,15.52 -10.12,15.35 -10.43,15.17 -10.67,14.91 -10.91,14.65 -11.06,14.32 -11.20,14.00 -11.24,13.64 -11.27,13.29 -11.19,12.94 -11.11,12.60 -10.92,12.29 -10.73,11.99 -10.46,11.76 -10.18,11.54 -9.85,11.41 -9.51,11.28 -9.16,11.27 -8.80,11.25 -8.46,11.35 -8.12,11.45 -7.83,11.66 -7.53,11.86 -7.32,12.15 -7.11,12.43 -7.00,12.77 -6.89,13.11 -6.90,13.47 -6.90,13.83 -7.02,14.16 -7.14,14.50 -7.36,14.78 -7.58,15.06 -7.88,15.26 -8.17,15.45 -8.52,15.54 -8.86,15.63 -9.22,15.61 -9.57,15.58 -9.90,15.45 -10.23,15.31 -10.50,15.08 -10.77,14.84 -10.95,14.53 -11.13,14.23 -11.20,13.88 -11.27,13.53 -11.23,13.17 -11.18,12.82 -11.03,12.50 -10.88,12.18 -10.88,12.18 -10.88,12.18 -9.98,10.92 -9.09,9.67 -8.30,8.68 -7.51,7.69 -6.51,6.37 -5.51,5.05 -4.29,3.13 -3.08,1.21 -2.04,-0.11 -1.00,-1.44 -0.80,-1.63 -0.60,-1.82 -0.36,-1.96 -0.12,-2.10 0.13,-2.18 0.40,-2.26 0.68,-2.27 0.95,-2.28 1.22,-2.23 1.49,-2.18 1.75,-2.06 2.00,-1.94 2.21,-1.77 2.43,-1.59 2.59,-1.37 2.76,-1.15 2.87,-0.90 2.98,-0.65 3.03,-0.37 3.07,-0.10 3.05,0.17 3.03,0.44 2.94,0.71 2.86,0.97 2.71,1.20 2.57,1.44 2.57,1.44 L 2.57,1.44 Z"></path></g><g transform="translate(70.53366055470542 35.20095472071773) rotate(263.0656510987302 3.1960207134434313 6.52977254561273)" stroke="none"><path fill="#1e1e1e" d="M 2.20,-0.93 Q 2.20,-0.93 2.74,0.28 3.28,1.50 3.85,2.76 4.43,4.02 5.12,5.74 5.82,7.47 6.99,9.50 8.16,11.52 8.33,11.86 8.49,12.20 8.54,12.57 8.59,12.95 8.52,13.32 8.44,13.69 8.25,14.02 8.06,14.35 7.78,14.60 7.50,14.85 7.15,14.99 6.80,15.14 6.42,15.17 6.05,15.19 5.68,15.10 5.32,15.01 5.00,14.80 4.68,14.59 4.45,14.30 4.21,14.00 4.08,13.65 3.96,13.29 3.95,12.91 3.94,12.53 4.06,12.17 4.17,11.81 4.39,11.51 4.62,11.20 4.92,10.98 5.23,10.77 5.60,10.66 5.96,10.55 6.34,10.56 6.71,10.58 7.07,10.71 7.42,10.84 7.71,11.08 8.01,11.32 8.21,11.64 8.41,11.96 8.50,12.33 8.59,12.70 8.55,13.07 8.52,13.45 8.37,13.80 8.21,14.14 7.96,14.42 7.70,14.70 7.37,14.88 7.04,15.07 6.67,15.14 6.30,15.20 5.93,15.15 5.55,15.10 5.21,14.93 4.88,14.75 4.61,14.48 4.35,14.22 4.35,14.22 4.35,14.22 2.99,11.79 1.64,9.36 0.80,7.69 -0.03,6.03 -0.61,4.71 -1.20,3.40 -1.70,2.16 -2.20,0.93 -2.28,0.65 -2.36,0.37 -2.37,0.09 -2.38,-0.19 -2.32,-0.48 -2.26,-0.76 -2.14,-1.02 -2.02,-1.28 -1.83,-1.50 -1.65,-1.72 -1.42,-1.90 -1.19,-2.07 -0.92,-2.18 -0.66,-2.30 -0.37,-2.34 -0.09,-2.39 0.19,-2.36 0.48,-2.34 0.75,-2.25 1.03,-2.16 1.27,-2.00 1.51,-1.85 1.71,-1.64 1.91,-1.43 2.06,-1.18 2.20,-0.93 2.20,-0.93 L 2.20,-0.93 Z"></path></g><g transform="translate(65.46864515350171 42.620883155338674) rotate(263.0656510987302 7.352187688937192 0.15551684873014437)" stroke="none"><path fill="#1e1e1e" d="M 15.91,2.27 Q 15.91,2.27 14.28,2.31 12.65,2.35 11.14,2.40 9.63,2.46 8.17,2.50 6.71,2.54 4.45,2.43 2.20,2.32 0.67,2.36 -0.85,2.40 -1.18,2.35 -1.52,2.30 -1.82,2.15 -2.12,1.99 -2.36,1.75 -2.60,1.50 -2.74,1.20 -2.89,0.89 -2.93,0.55 -2.97,0.21 -2.90,-0.11 -2.83,-0.44 -2.66,-0.74 -2.49,-1.03 -2.23,-1.25 -1.98,-1.48 -1.66,-1.60 -1.35,-1.73 -1.01,-1.76 -0.67,-1.78 -0.34,-1.69 -0.01,-1.60 0.26,-1.42 0.55,-1.23 0.75,-0.96 0.96,-0.69 1.08,-0.37 1.19,-0.05 1.19,0.28 1.20,0.62 1.09,0.94 0.99,1.27 0.78,1.54 0.58,1.81 0.30,2.01 0.02,2.20 -0.30,2.29 -0.62,2.39 -0.96,2.37 -1.30,2.36 -1.62,2.24 -1.94,2.12 -2.20,1.90 -2.46,1.68 -2.64,1.39 -2.82,1.10 -2.89,0.77 -2.97,0.44 -2.94,0.10 -2.90,-0.23 -2.76,-0.54 -2.62,-0.85 -2.39,-1.10 -2.16,-1.35 -1.86,-1.51 -1.57,-1.67 -1.23,-1.73 -0.90,-1.79 -0.90,-1.79 -0.90,-1.79 0.63,-1.77 2.16,-1.76 4.39,-1.91 6.62,-2.06 8.07,-2.07 9.51,-2.08 11.01,-2.11 12.50,-2.14 14.13,-2.20 15.76,-2.27 16.03,-2.24 16.30,-2.22 16.56,-2.13 16.82,-2.04 17.05,-1.89 17.28,-1.75 17.47,-1.55 17.66,-1.35 17.79,-1.11 17.93,-0.87 18.00,-0.61 18.08,-0.34 18.09,-0.07 18.10,0.19 18.04,0.46 17.98,0.73 17.86,0.98 17.74,1.22 17.57,1.43 17.39,1.65 17.17,1.81 16.95,1.97 16.70,2.08 16.45,2.18 16.18,2.22 15.91,2.27 15.91,2.27 L 15.91,2.27 Z"></path></g><g transform="translate(119.23863323429396 104.76898560695611) rotate(0 11.725159860247004 0.7237100737540345)" stroke="none"><path fill="#1e1e1e" d="M -1.15,-2.60 Q -1.15,-2.60 -0.60,-2.92 -0.05,-3.24 1.06,-3.91 2.18,-4.58 3.18,-5.02 4.19,-5.47 5.26,-5.62 6.34,-5.77 7.61,-5.60 8.89,-5.42 10.02,-4.96 11.14,-4.49 12.12,-3.85 13.11,-3.21 14.50,-1.89 15.89,-0.58 16.87,0.39 17.85,1.36 18.22,0.21 18.60,-0.93 19.83,-2.36 21.05,-3.79 21.53,-4.08 22.02,-4.37 22.57,-4.49 23.12,-4.61 23.68,-4.55 24.24,-4.49 24.75,-4.25 25.26,-4.01 25.67,-3.63 26.08,-3.24 26.35,-2.74 26.61,-2.24 26.70,-1.69 26.80,-1.13 26.70,-0.57 26.61,-0.01 26.35,0.47 26.08,0.97 25.67,1.36 25.27,1.75 24.75,1.99 24.24,2.22 23.68,2.28 23.12,2.35 22.57,2.22 22.02,2.10 21.53,1.81 21.05,1.52 20.68,1.09 20.32,0.66 20.11,0.14 19.90,-0.38 19.87,-0.94 19.84,-1.50 19.99,-2.05 20.14,-2.59 20.46,-3.06 20.78,-3.53 21.22,-3.87 21.67,-4.21 22.21,-4.39 22.74,-4.57 23.31,-4.57 23.87,-4.57 24.41,-4.39 24.94,-4.21 25.39,-3.87 25.84,-3.53 26.16,-3.06 26.47,-2.59 26.62,-2.05 26.77,-1.50 26.74,-0.94 26.71,-0.38 26.50,0.14 26.30,0.66 25.93,1.09 25.57,1.52 25.57,1.52 25.57,1.52 24.32,2.93 23.07,4.35 21.76,5.20 20.45,6.05 19.42,6.57 18.38,7.09 16.53,7.06 14.67,7.03 13.28,5.85 11.88,4.68 10.71,3.40 9.53,2.12 8.30,1.25 7.07,0.38 5.82,0.52 4.56,0.67 3.45,1.13 2.34,1.58 1.75,1.83 1.15,2.08 0.86,2.18 0.56,2.28 0.25,2.32 -0.06,2.35 -0.37,2.30 -0.68,2.25 -0.97,2.14 -1.27,2.02 -1.52,1.83 -1.78,1.65 -1.98,1.41 -2.18,1.16 -2.32,0.88 -2.46,0.60 -2.53,0.29 -2.60,-0.01 -2.59,-0.32 -2.58,-0.64 -2.50,-0.94 -2.42,-1.24 -2.26,-1.52 -2.11,-1.79 -1.90,-2.03 -1.68,-2.26 -1.42,-2.43 -1.15,-2.60 -1.15,-2.60 L -1.15,-2.60 Z"></path></g><g transform="translate(92.41613197890547 119.6006838042606) rotate(0 11.725159860247004 0.7237100737540345)" stroke="none"><path fill="#1e1e1e" d="M -1.15,-2.60 Q -1.15,-2.60 -0.60,-2.92 -0.05,-3.24 1.06,-3.91 2.18,-4.58 3.18,-5.02 4.19,-5.47 5.26,-5.62 6.34,-5.77 7.61,-5.60 8.89,-5.42 10.02,-4.96 11.14,-4.49 12.12,-3.85 13.11,-3.21 14.50,-1.89 15.89,-0.58 16.87,0.39 17.85,1.36 18.22,0.21 18.60,-0.93 19.83,-2.36 21.05,-3.79 21.53,-4.08 22.02,-4.37 22.57,-4.49 23.12,-4.61 23.68,-4.55 24.24,-4.49 24.75,-4.25 25.26,-4.01 25.67,-3.63 26.08,-3.24 26.35,-2.74 26.61,-2.24 26.70,-1.69 26.80,-1.13 26.70,-0.57 26.61,-0.01 26.35,0.47 26.08,0.97 25.67,1.36 25.27,1.75 24.75,1.99 24.24,2.22 23.68,2.28 23.12,2.35 22.57,2.22 22.02,2.10 21.53,1.81 21.05,1.52 20.68,1.09 20.32,0.66 20.11,0.14 19.90,-0.38 19.87,-0.94 19.84,-1.50 19.99,-2.05 20.14,-2.59 20.46,-3.06 20.78,-3.53 21.22,-3.87 21.67,-4.21 22.21,-4.39 22.74,-4.57 23.31,-4.57 23.87,-4.57 24.41,-4.39 24.94,-4.21 25.39,-3.87 25.84,-3.53 26.16,-3.06 26.47,-2.59 26.62,-2.05 26.77,-1.50 26.74,-0.94 26.71,-0.38 26.50,0.14 26.30,0.66 25.93,1.09 25.57,1.52 25.57,1.52 25.57,1.52 24.32,2.93 23.07,4.35 21.76,5.20 20.45,6.05 19.42,6.57 18.38,7.09 16.53,7.06 14.67,7.03 13.28,5.85 11.88,4.68 10.71,3.40 9.53,2.12 8.30,1.25 7.07,0.38 5.82,0.52 4.56,0.67 3.45,1.13 2.34,1.58 1.75,1.83 1.15,2.08 0.86,2.18 0.56,2.28 0.25,2.32 -0.06,2.35 -0.37,2.30 -0.68,2.25 -0.97,2.14 -1.27,2.02 -1.52,1.83 -1.78,1.65 -1.98,1.41 -2.18,1.16 -2.32,0.88 -2.46,0.60 -2.53,0.29 -2.60,-0.01 -2.59,-0.32 -2.58,-0.64 -2.50,-0.94 -2.42,-1.24 -2.26,-1.52 -2.11,-1.79 -1.90,-2.03 -1.68,-2.26 -1.42,-2.43 -1.15,-2.60 -1.15,-2.60 L -1.15,-2.60 Z"></path></g></svg>